<?xml version="1.0" encoding="utf-8"?>
<!-- Generator: Adobe Illustrator 17.1.0, SVG Export Plug-In . SVG Version: 6.00 Build 0)  -->
<!DOCTYPE svg PUBLIC "-//W3C//DTD SVG 1.1//EN" "http://www.w3.org/Graphics/SVG/1.1/DTD/svg11.dtd">
<svg version="1.1" id="Icons" xmlns="http://www.w3.org/2000/svg" xmlns:xlink="http://www.w3.org/1999/xlink" x="0px" y="0px"
	 viewBox="288.5 292.5 23 15" enable-background="new 288.5 292.5 23 15" xml:space="preserve">
<path id="Behance" fill="#F7F7F7" d="M309.2,294.9h-5.8v-1.4h5.8V294.9L309.2,294.9z M299.6,300.7c0.4,0.6,0.6,1.3,0.6,2.1
	c0,0.8-0.2,1.6-0.6,2.3c-0.3,0.4-0.6,0.8-1,1.1c-0.5,0.4-1,0.6-1.6,0.7c-0.6,0.1-1.3,0.2-2,0.2h-6.4v-14.3h6.9c1.7,0,3,0.5,3.7,1.5
	c0.4,0.6,0.7,1.3,0.7,2.2s-0.2,1.6-0.7,2.1c-0.3,0.3-0.6,0.6-1.1,0.8C298.7,299.7,299.3,300.2,299.6,300.7z M291.8,298.5h3
	c0.6,0,1.1-0.1,1.5-0.4c0.4-0.2,0.6-0.7,0.6-1.2c0-0.7-0.3-1.1-0.8-1.3c-0.4-0.2-1-0.2-1.7-0.2h-2.7V298.5z M297.2,302.6
	c0-0.7-0.3-1.2-0.9-1.5c-0.3-0.2-0.8-0.2-1.4-0.2h-3.1v3.8h3c0.6,0,1.1-0.1,1.5-0.3C296.9,304.1,297.2,303.5,297.2,302.6z
	 M311.3,300.3c0.1,0.5,0.1,1.1,0.1,2H304c0.1,1,0.4,1.8,1.1,2.2c0.4,0.3,0.9,0.4,1.5,0.4c0.6,0,1.1-0.2,1.5-0.5
	c0.2-0.2,0.4-0.4,0.6-0.7h2.7c-0.1,0.6-0.4,1.2-1,1.9c-0.9,1-2.2,1.5-3.8,1.5c-1.4,0-2.5-0.4-3.6-1.2c-1-0.8-1.6-2.2-1.6-4.1
	c0-1.8,0.5-3.1,1.4-4.1s2.2-1.4,3.7-1.4c0.9,0,1.7,0.2,2.4,0.5c0.7,0.3,1.3,0.8,1.8,1.5C311,298.8,311.2,299.5,311.3,300.3z
	 M308.7,300.6c-0.1-0.7-0.3-1.2-0.7-1.6s-0.9-0.6-1.6-0.6c-0.7,0-1.2,0.2-1.6,0.6c-0.4,0.4-0.6,0.9-0.7,1.6
	C304.1,300.6,308.7,300.6,308.7,300.6z"/>
</svg>
