<?xml version="1.0" encoding="utf-8"?>
<!-- Generator: Adobe Illustrator 17.1.0, SVG Export Plug-In . SVG Version: 6.00 Build 0)  -->
<!DOCTYPE svg PUBLIC "-//W3C//DTD SVG 1.1//EN" "http://www.w3.org/Graphics/SVG/1.1/DTD/svg11.dtd">
<svg version="1.1" id="Icons" xmlns="http://www.w3.org/2000/svg" xmlns:xlink="http://www.w3.org/1999/xlink" x="0px" y="0px"
	 viewBox="0 0 100 100" enable-background="new 0 0 100 100" xml:space="preserve">
<path id="Behance" fill="#F7F7F7" d="M86.3,29.9H63.7v-5.6h22.6L86.3,29.9L86.3,29.9z M48.7,52.9c1.5,2.3,2.2,5,2.2,8.2
	c0,3.3-0.8,6.3-2.5,8.9c-1.1,1.7-2.4,3.2-4,4.4c-1.8,1.4-3.9,2.3-6.3,2.8c-2.4,0.5-5.1,0.8-7.9,0.8H5V22h27c6.8,0.1,11.7,2.1,14.5,6
	c1.7,2.4,2.6,5.2,2.6,8.6c0,3.4-0.9,6.2-2.6,8.2c-1,1.2-2.4,2.2-4.3,3.2C45.1,49,47.3,50.6,48.7,52.9z M17.9,44.1h11.9
	c2.4,0,4.4-0.5,5.9-1.4c1.5-0.9,2.3-2.6,2.3-4.9c0-2.6-1-4.3-3-5.2c-1.7-0.6-3.9-0.9-6.6-0.9H17.9V44.1z M39.1,60.3
	c0-2.9-1.2-4.9-3.6-6c-1.3-0.6-3.2-0.9-5.6-0.9h-12v14.9h11.8c2.4,0,4.3-0.3,5.7-1C37.9,66.1,39.1,63.7,39.1,60.3z M94.6,51.2
	c0.3,1.8,0.4,4.5,0.3,8H65.8c0.2,4,1.6,6.9,4.2,8.5c1.6,1,3.5,1.5,5.8,1.5c2.4,0,4.3-0.6,5.8-1.8c0.8-0.7,1.5-1.6,2.2-2.8h10.7
	c-0.3,2.4-1.6,4.8-3.9,7.3c-3.6,3.9-8.6,5.9-15.1,5.9c-5.3,0-10-1.7-14.1-4.9c-4.1-3.3-6.1-8.6-6.1-16.1c0-7,1.8-12.3,5.5-16
	c3.7-3.7,8.5-5.6,14.4-5.6c3.5,0,6.6,0.6,9.4,1.9c2.8,1.3,5.1,3.2,6.9,5.9C93.1,45.3,94.2,48,94.6,51.2z M84.1,52.2
	c-0.2-2.8-1.1-4.9-2.8-6.3c-1.7-1.4-3.7-2.2-6.2-2.2c-2.7,0-4.8,0.8-6.3,2.3c-1.5,1.5-2.4,3.6-2.8,6.2C66,52.2,84.1,52.2,84.1,52.2z
	"/>
</svg>
