<?xml version="1.0" encoding="utf-8"?>
<!-- Generator: Adobe Illustrator 17.1.0, SVG Export Plug-In . SVG Version: 6.00 Build 0)  -->
<!DOCTYPE svg PUBLIC "-//W3C//DTD SVG 1.1//EN" "http://www.w3.org/Graphics/SVG/1.1/DTD/svg11.dtd">
<svg version="1.1" id="Layer_1" xmlns="http://www.w3.org/2000/svg" xmlns:xlink="http://www.w3.org/1999/xlink" x="0px" y="0px"
	 viewBox="290 290 20 20" enable-background="new 290 290 20 20" xml:space="preserve">
<path fill="#F7F7F7" d="M299.9,290c-5.5,0-9.9,4.5-9.9,10s4.4,10,9.9,10s9.9-4.5,9.9-10S305.4,290,299.9,290z M306.4,294.7
	c1.1,1.4,1.8,3.2,1.8,5.1c-0.4-0.1-2-0.4-3.9-0.4c-0.6,0-1.3,0-1.9,0.1c-0.1-0.1-0.1-0.3-0.2-0.4c-0.2-0.4-0.3-0.8-0.5-1.2
	C304.7,296.8,306.2,295.1,306.4,294.7z M299.9,291.6c2.1,0,4,0.8,5.5,2.1c-0.2,0.3-1.5,1.9-4.3,3c-1.3-2.4-2.7-4.4-3.1-4.9
	C298.6,291.6,299.3,291.6,299.9,291.6z M296.3,292.4c0.3,0.4,1.7,2.4,3.1,4.8c-3.6,1-6.8,1-7.6,1c0,0-0.1,0-0.1,0
	C292.3,295.6,294,293.5,296.3,292.4z M291.5,300c0-0.1,0-0.1,0-0.2c0,0,0.1,0,0.2,0c1,0,4.6-0.1,8.4-1.2c0.2,0.5,0.4,0.9,0.6,1.3
	c-0.1,0-0.2,0.1-0.3,0.1c-4.2,1.4-6.5,5-6.9,5.6C292.3,304.1,291.5,302.1,291.5,300z M299.9,308.5c-1.9,0-3.7-0.7-5.1-1.8
	c0.2-0.5,2-3.6,6.6-5.2l0,0c1.1,3,1.6,5.6,1.8,6.3C302.2,308.2,301.1,308.5,299.9,308.5z M304.7,307c-0.1-0.7-0.6-3-1.6-5.9
	c0.6-0.1,1.1-0.1,1.7-0.1c1.8,0,3.1,0.4,3.4,0.5C307.8,303.7,306.5,305.7,304.7,307z"/>
</svg>
