<?xml version="1.0" encoding="utf-8"?>
<!-- Generator: Adobe Illustrator 17.1.0, SVG Export Plug-In . SVG Version: 6.00 Build 0)  -->
<!DOCTYPE svg PUBLIC "-//W3C//DTD SVG 1.1//EN" "http://www.w3.org/Graphics/SVG/1.1/DTD/svg11.dtd">
<svg version="1.1" id="Layer_1" xmlns="http://www.w3.org/2000/svg" xmlns:xlink="http://www.w3.org/1999/xlink" x="0px" y="0px"
	 viewBox="0 0 100 100" enable-background="new 0 0 100 100" xml:space="preserve">
<path fill="#F7F7F7" d="M50,1.6C23.3,1.6,1.5,23.3,1.5,50c0,26.7,21.7,48.4,48.5,48.4S98.5,76.7,98.5,50C98.5,23.3,76.7,1.6,50,1.6z
	 M81.9,24.4c5.5,6.9,8.9,15.5,9,24.9c-1.8-0.4-9.6-1.8-18.9-1.8c-3,0-6.2,0.2-9.3,0.5c-0.3-0.6-0.5-1.3-0.8-2
	c-0.8-1.9-1.7-3.9-2.6-5.7C73.5,34.5,80.5,26.3,81.9,24.4z M50,9.2c10.3,0,19.8,3.8,27,10.2c-1.1,1.6-7.3,9.3-21.2,14.5
	c-6.4-11.7-13.4-21.4-15.1-23.6C43.7,9.5,46.8,9.2,50,9.2z M32.4,13.1c1.4,1.9,8.4,11.7,15,23.3c-17.6,4.6-33.2,4.9-37,4.9
	c-0.2,0-0.3,0-0.4,0C12.7,28.9,21.1,18.5,32.4,13.1z M9,50.1c0-0.3,0-0.7,0-1c0.2,0,0.6,0,1.1,0c5.1,0,22.7-0.4,40.9-5.8
	c1.1,2.2,2.2,4.3,3.1,6.5c-0.5,0.1-0.9,0.3-1.4,0.4c-20.5,6.6-31.7,24.1-33.5,27C12.9,69.9,9,60.4,9,50.1z M50,91
	c-9.4,0-18.1-3.2-25-8.5c1.2-2.3,9.7-17.6,32.1-25.4c0,0,0,0,0,0c5.6,14.6,8,26.9,8.7,30.7C61,89.8,55.6,91,50,91z M73.2,83.8
	c-0.5-3.2-2.8-14.7-7.8-28.7c2.9-0.4,5.6-0.6,8.2-0.6c8.6,0,15.3,1.9,16.8,2.3C88.6,67.9,82.2,77.6,73.2,83.8z"/>
</svg>
