<?xml version="1.0" encoding="utf-8"?>
<!-- Generator: Adobe Illustrator 17.1.0, SVG Export Plug-In . SVG Version: 6.00 Build 0)  -->
<!DOCTYPE svg PUBLIC "-//W3C//DTD SVG 1.1//EN" "http://www.w3.org/Graphics/SVG/1.1/DTD/svg11.dtd">
<svg version="1.1" id="Layer_1" xmlns="http://www.w3.org/2000/svg" xmlns:xlink="http://www.w3.org/1999/xlink" x="0px" y="0px"
	 viewBox="291.2 292.9 19 15" enable-background="new 291.2 292.9 19 15" xml:space="preserve">
<path fill="#F7F7F7" d="M309.8,294.8c-0.5,0.8-1.1,1.4-1.9,2c0,0.2,0,0.3,0,0.5c0,5-3.7,10.7-10.7,10.7c-2.1,0-4-0.6-5.7-1.7
	c0.3,0.1,0.6,0.1,0.9,0.1c1.8,0,3.4-0.6,4.6-1.6c-1.7,0-3-1.1-3.5-2.6c0.2,0.1,0.5,0.1,0.7,0.1c0.4,0,0.7-0.1,1-0.2
	c-1.7-0.3-3-1.8-3-3.7c0-0.1,0-0.1,0-0.1c0.5,0.2,1.1,0.4,1.7,0.5c-1-0.7-1.7-1.8-1.7-3.1c0-0.7,0.2-1.4,0.5-1.9
	c1.8,2.3,4.6,3.7,7.7,3.9c-0.1-0.2-0.1-0.5-0.1-0.8c0-2.1,1.7-3.7,3.7-3.7c1.1,0,2.1,0.5,2.8,1.2c0.8-0.2,1.6-0.5,2.4-0.9
	c-0.3,0.8-0.9,1.6-1.7,2.1C308.4,295.3,309.1,295.1,309.8,294.8z"/>
</svg>
