<?xml version="1.0" encoding="utf-8"?>
<!-- Generator: Adobe Illustrator 17.1.0, SVG Export Plug-In . SVG Version: 6.00 Build 0)  -->
<!DOCTYPE svg PUBLIC "-//W3C//DTD SVG 1.1//EN" "http://www.w3.org/Graphics/SVG/1.1/DTD/svg11.dtd">
<svg version="1.1" id="Layer_1" xmlns="http://www.w3.org/2000/svg" xmlns:xlink="http://www.w3.org/1999/xlink" x="0px" y="0px"
	 viewBox="0 0 260 260" enable-background="new 0 0 260 260" xml:space="preserve">
<rect x="-1" y="1" fill="#9AE4E8" width="260" height="260"/>
<path fill="#F7F7F7" d="M194.4,90.9c-3.5,5.5-7.6,9.7-13.1,13.8c0,1.4,0,2.1,0,3.5c0,34.5-25.6,73.9-73.9,73.9
	c-14.5,0-27.6-4.1-39.4-11.7c2.1,0.7,4.1,0.7,6.2,0.7c12.4,0,23.5-4.1,31.8-11.1c-11.7,0-20.7-7.6-24.2-18c1.4,0.7,3.5,0.7,4.8,0.7
	c2.8,0,4.8-0.7,6.9-1.4c-11.7-2.1-20.7-12.4-20.7-25.6c0-0.7,0-0.7,0-0.7c3.5,1.4,7.6,2.8,11.7,3.5c-6.9-4.8-11.7-12.4-11.7-21.4
	c0-4.8,1.4-9.7,3.5-13.1c12.4,15.9,31.8,25.6,53.2,26.9c-0.7-1.4-0.7-3.5-0.7-5.5c0-14.5,11.7-25.6,25.6-25.6
	c7.6,0,14.5,3.5,19.3,8.3c5.5-1.4,11.1-3.5,16.6-6.2c-2.1,5.5-6.2,11.1-11.7,14.5C184.7,94.4,189.6,93,194.4,90.9z"/>
</svg>
