<?xml version="1.0" encoding="utf-8"?>
<!-- Generator: Adobe Illustrator 17.1.0, SVG Export Plug-In . SVG Version: 6.00 Build 0)  -->
<!DOCTYPE svg PUBLIC "-//W3C//DTD SVG 1.1//EN" "http://www.w3.org/Graphics/SVG/1.1/DTD/svg11.dtd">
<svg version="1.1" id="Layer_4" xmlns="http://www.w3.org/2000/svg" xmlns:xlink="http://www.w3.org/1999/xlink" x="0px" y="0px"
	 viewBox="286 292.5 28 15" enable-background="new 286 292.5 28 15" xml:space="preserve">
<path fill="#F7F7F7" d="M312,304.7c-0.8-0.9-1.7-1.8-2.6-2.6c-0.8-0.8-0.8-1.2-0.2-2.1c0.7-1,1.5-1.9,2.1-2.9
	c0.7-0.9,1.3-1.8,1.7-2.9c0.2-0.7,0-1-0.7-1.1c-0.1,0-0.2,0-0.4,0h-4.2c-0.5,0-0.8,0.2-1,0.7c-0.2,0.6-0.5,1.2-0.8,1.8
	c-0.7,1.3-1.4,2.7-2.4,3.8c-0.2,0.2-0.5,0.5-0.9,0.4c-0.5-0.2-0.6-1-0.6-1.2v-4.8c-0.1-0.7-0.2-1-0.9-1.1h-4.4
	c-0.6,0-0.9,0.2-1.2,0.6c-0.2,0.2-0.2,0.4,0.1,0.4c0.7,0.1,1.1,0.6,1.2,1.3c0.2,1.2,0.2,2.3,0.1,3.5c0,0.3-0.1,0.7-0.2,1
	c-0.2,0.5-0.5,0.6-1,0.3c-0.4-0.3-0.7-0.7-1-1.1c-1-1.5-1.9-3.1-2.5-4.7c-0.2-0.5-0.5-0.8-1-0.8c-1.3,0-2.5,0-3.8,0
	c-0.8,0-1,0.4-0.7,1.1c1.4,3,2.9,6,4.9,8.7c1,1.4,2.2,2.6,3.7,3.5c1.7,1,3.6,1.3,5.5,1.2c0.9-0.1,1.2-0.3,1.2-1.2
	c0-0.6,0.1-1.2,0.4-1.8c0.3-0.5,0.8-0.7,1.3-0.3c0.3,0.2,0.5,0.4,0.7,0.6c0.5,0.5,1,1.2,1.5,1.7c0.7,0.7,1.5,1.1,2.5,1h3.9
	c0.6,0,0.9-0.8,0.6-1.5C312.7,305.5,312.4,305.1,312,304.7z"/>
</svg>
