<?xml version="1.0" encoding="utf-8"?>
<!-- Generator: Adobe Illustrator 17.1.0, SVG Export Plug-In . SVG Version: 6.00 Build 0)  -->
<!DOCTYPE svg PUBLIC "-//W3C//DTD SVG 1.1//EN" "http://www.w3.org/Graphics/SVG/1.1/DTD/svg11.dtd">
<svg version="1.1" id="Layer_1" xmlns="http://www.w3.org/2000/svg" xmlns:xlink="http://www.w3.org/1999/xlink" x="0px" y="0px"
	 viewBox="0 0 600 600" enable-background="new 0 0 600 600" xml:space="preserve">
<path fill="#1FAEE9" d="M600,113.8c-17.5,25-37.5,47.5-62.5,65c0,5,0,10,0,15c0,162.5-122.5,350-350,350c-67.5,0-132.5-20-187.5-55
	c10,2.5,20,2.5,30,2.5c57.5,0,110-20,152.5-52.5c-55,0-100-35-115-85c7.5,2.5,15,2.5,22.5,2.5c12.5,0,22.5-2.5,32.5-5
	c-55-10-97.5-60-97.5-120c0-2.5,0-2.5,0-2.5c15,7.5,35,12.5,55,15c-32.5-22.5-55-60-55-102.5c0-22.5,5-45,17.5-62.5
	c60,75,150,122.5,252.5,127.5c-2.5-7.5-2.5-17.5-2.5-27.5c0-67.5,55-122.5,122.5-122.5c35,0,67.5,15,92.5,40c27.5-5,52.5-15,77.5-30
	c-10,27.5-30,52.5-55,67.5C555,131.3,577.5,123.8,600,113.8z"/>
</svg>
