<?xml version="1.0" encoding="utf-8"?>
<!-- Generator: Adobe Illustrator 17.1.0, SVG Export Plug-In . SVG Version: 6.00 Build 0)  -->
<!DOCTYPE svg PUBLIC "-//W3C//DTD SVG 1.1//EN" "http://www.w3.org/Graphics/SVG/1.1/DTD/svg11.dtd">
<svg version="1.1" id="Layer_4" xmlns="http://www.w3.org/2000/svg" xmlns:xlink="http://www.w3.org/1999/xlink" x="0px" y="0px"
	 viewBox="284 291.5 32 17" enable-background="new 284 291.5 32 17" xml:space="preserve">
<path fill="#8AA5C2" d="M313.7,305.1c-0.9-1-1.9-2-2.9-2.9c-0.9-0.9-1-1.3-0.2-2.4c0.8-1.1,1.6-2.1,2.4-3.2c0.7-1,1.5-2,1.9-3.2
	c0.2-0.8,0-1.1-0.8-1.3c-0.1,0-0.3,0-0.4,0h-4.7c-0.6,0-0.9,0.2-1.1,0.8c-0.3,0.7-0.6,1.4-0.9,2c-0.7,1.5-1.6,3-2.7,4.2
	c-0.2,0.3-0.6,0.6-1,0.5c-0.6-0.2-0.7-1.1-0.7-1.4v-5.4c-0.1-0.8-0.3-1.1-1-1.3h-4.9c-0.6,0-1,0.2-1.3,0.6c-0.2,0.2-0.2,0.4,0.2,0.5
	c0.8,0.2,1.3,0.7,1.4,1.5c0.2,1.3,0.2,2.6,0.1,3.9c0,0.4-0.1,0.8-0.2,1.1c-0.2,0.5-0.6,0.7-1.1,0.3c-0.5-0.3-0.8-0.7-1.1-1.2
	c-1.2-1.6-2.1-3.4-2.9-5.3c-0.2-0.5-0.6-0.9-1.2-0.9c-1.4,0-2.8,0-4.3,0c-0.9,0-1.1,0.4-0.8,1.2c1.5,3.4,3.3,6.7,5.5,9.7
	c1.1,1.6,2.5,2.9,4.2,3.9c1.9,1.1,4,1.4,6.2,1.3c1-0.1,1.3-0.3,1.4-1.3c0-0.7,0.1-1.4,0.5-2c0.3-0.6,0.9-0.7,1.5-0.3
	c0.3,0.2,0.6,0.4,0.8,0.7c0.6,0.6,1.1,1.3,1.7,1.9c0.7,0.8,1.6,1.2,2.8,1.1h4.4c0.7,0,1-0.9,0.6-1.7
	C314.4,306.1,314.1,305.6,313.7,305.1z"/>
</svg>
