<?xml version="1.0" encoding="utf-8"?>
<!-- Generator: Adobe Illustrator 17.1.0, SVG Export Plug-In . SVG Version: 6.00 Build 0)  -->
<!DOCTYPE svg PUBLIC "-//W3C//DTD SVG 1.1//EN" "http://www.w3.org/Graphics/SVG/1.1/DTD/svg11.dtd">
<svg version="1.1" xmlns="http://www.w3.org/2000/svg" xmlns:xlink="http://www.w3.org/1999/xlink" x="0px" y="0px"
	 viewBox="0 0 405.4 350.2" enable-background="new 0 0 405.4 350.2" xml:space="preserve">
<g id="Слой_0_xA0_Изображение_1_">
	<g>
		<path fill="#F7F7F7" d="M143,350.2c0,0,130.5-8.4,151.2-160.9c0.5-3.7,0.8-7.5,0.8-11.3c0-5.8,0.9-16.9,6.6-22.8
			c8.1-8.4,21.4-24.5,73.3-24.5c30.4,0,30.4,0,30.4,0s-91.5-17.5-110.5-21.4c-1.6-0.3-36.6-5-53.1,20.8s-16.6,32-17.5,31.7
			c-0.9-0.3-61.6,53.2-61.6,53.2l20.6,43.1L143,350.2z"/>
		<path opacity="0.3" fill="#F7F7F7" d="M224.9,174.4V0c0,0-123.3,71.5-61.8,216.3L224.9,174.4z"/>
		<path opacity="0.3" fill="#F7F7F7" d="M210.1,174.5L120.2,7.9c0,0-71.7,126.8,57.1,236L210.1,174.5z"/>
		<path opacity="0.3" fill="#F7F7F7" d="M206,177.8L42.1,64.9c0,0-2.7,147.9,168.3,190.9L206,177.8z"/>
		<path opacity="0.3" fill="#F7F7F7" d="M208.6,177.3L4.8,148.6c0,0,66.3,133.9,244.1,96.8L208.6,177.3z"/>
		<path opacity="0.3" fill="#F7F7F7" d="M204.9,178.2L0,225.6c0,0,111.8,100.8,268,1.5L204.9,178.2z"/>
		<path opacity="0.3" fill="#F7F7F7" d="M191.6,189.8L55.9,307.4c0,0,136.4,45,208.7-99.2L191.6,189.8z"/>
	</g>
</g>
<g id="Bird_1_">
	<g id="Wings_1_">
	</g>
	<g id="Фигура_4_xA0_Изображение_1_">
	</g>
</g>
<g id="Criticize_My__x0D_Work">
</g>
</svg>
