<?xml version="1.0" encoding="utf-8"?>
<!-- Generator: Adobe Illustrator 17.1.0, SVG Export Plug-In . SVG Version: 6.00 Build 0)  -->
<!DOCTYPE svg PUBLIC "-//W3C//DTD SVG 1.1//EN" "http://www.w3.org/Graphics/SVG/1.1/DTD/svg11.dtd">
<svg version="1.1" id="Layer_1" xmlns="http://www.w3.org/2000/svg" xmlns:xlink="http://www.w3.org/1999/xlink" x="0px" y="0px"
	 viewBox="0 0 48 48" enable-background="new 0 0 48 48" xml:space="preserve">
<path fill="#F1C40F" d="M22.4,3.3c0.3-0.6,0.9-1,1.6-1s1.3,0.4,1.6,1L31.4,15c0.3,0.5,0.8,0.9,1.4,1l12.9,1.9
	c0.7,0.1,1.2,0.6,1.4,1.2s0,1.4-0.5,1.8L37.3,30c-0.4,0.4-0.6,1-0.5,1.6L39,44.5c0.1,0.7-0.2,1.4-0.7,1.8s-1.3,0.5-1.9,0.1
	l-11.5-6.1c-0.5-0.3-1.1-0.3-1.7,0l-11.5,6.1c-0.6,0.3-1.3,0.3-1.9-0.1S8.9,45.1,9,44.5l2.2-12.9c0.1-0.6-0.1-1.2-0.5-1.6l-9.3-9.1
	c-0.5-0.5-0.7-1.2-0.5-1.8s0.8-1.1,1.4-1.2L15.3,16c0.6-0.1,1.1-0.5,1.4-1L22.4,3.3z"/>
</svg>
