<?xml version="1.0" encoding="utf-8"?>
<!-- Generator: Adobe Illustrator 17.1.0, SVG Export Plug-In . SVG Version: 6.00 Build 0)  -->
<!DOCTYPE svg PUBLIC "-//W3C//DTD SVG 1.1//EN" "http://www.w3.org/Graphics/SVG/1.1/DTD/svg11.dtd">
<svg version="1.1" id="Layer_1" xmlns="http://www.w3.org/2000/svg" xmlns:xlink="http://www.w3.org/1999/xlink" x="0px" y="0px"
	 viewBox="285.8 288.6 19 19" enable-background="new 285.8 288.6 19 19" xml:space="preserve">
<path fill="#F1C40F" d="M288.1,291.6v-2.4c0-0.3,0.3-0.6,0.6-0.6s0.6,0.3,0.6,0.6v2.4c0,0.3-0.3,0.6-0.6,0.6
	S288.1,291.9,288.1,291.6z M298.2,292.2c0.3,0,0.6-0.3,0.6-0.6v-2.4c0-0.3-0.3-0.6-0.6-0.6s-0.6,0.3-0.6,0.6v2.4
	C297.6,291.9,297.9,292.2,298.2,292.2z M304.8,302.8c0,2.6-2.1,4.7-4.8,4.7s-4.8-2.1-4.8-4.7s2.1-4.7,4.8-4.7
	S304.8,300.2,304.8,302.8z M303.6,302.8c0-2-1.6-3.6-3.6-3.6s-3.6,1.6-3.6,3.6c0,2,1.6,3.6,3.6,3.6S303.6,304.8,303.6,302.8z
	 M290.5,295.7h-2.4v2.4h2.4V295.7z M288.1,301.7h2.4v-2.4h-2.4V301.7z M291.7,298.1h2.4v-2.4h-2.4V298.1z M291.7,301.7h2.4v-2.4
	h-2.4V301.7z M286.9,302.7v-8.2H300v2.4h1.2v-4.6c0-0.7-0.6-1.3-1.3-1.3h-0.5v0.6c0,0.7-0.5,1.2-1.2,1.2s-1.2-0.5-1.2-1.2V291h-7.1
	v0.6c0,0.7-0.5,1.2-1.2,1.2s-1.2-0.5-1.2-1.2V291H287c-0.7,0-1.3,0.6-1.3,1.3v10.4c0,0.7,0.6,1.3,1.3,1.3h7v-1.2h-7
	C287,302.8,286.9,302.8,286.9,302.7z M297.6,298.1v-2.4h-2.4v2.4H297.6z M301.8,302.8H300v-1.8c0-0.3-0.3-0.6-0.6-0.6
	s-0.6,0.3-0.6,0.6v2.4c0,0.3,0.3,0.6,0.6,0.6h2.4c0.3,0,0.6-0.3,0.6-0.6S302.1,302.8,301.8,302.8z"/>
</svg>
