<?xml version="1.0" encoding="utf-8"?>
<!-- Generator: Adobe Illustrator 17.1.0, SVG Export Plug-In . SVG Version: 6.00 Build 0)  -->
<!DOCTYPE svg PUBLIC "-//W3C//DTD SVG 1.1//EN" "http://www.w3.org/Graphics/SVG/1.1/DTD/svg11.dtd">
<svg version="1.1" id="Layer_1" xmlns="http://www.w3.org/2000/svg" xmlns:xlink="http://www.w3.org/1999/xlink" x="0px" y="0px"
	 viewBox="0 0 512 512" enable-background="new 0 0 512 512" xml:space="preserve">
<path fill="#F1C40F" d="M64,80V16c0-8.8,7.2-16,16-16s16,7.2,16,16v64c0,8.8-7.2,16-16,16S64,88.8,64,80z M336,96
	c8.8,0,16-7.2,16-16V16c0-8.8-7.2-16-16-16s-16,7.2-16,16v64C320,88.8,327.2,96,336,96z M512,384c0,70.7-57.3,128-128,128
	s-128-57.3-128-128s57.3-128,128-128S512,313.3,512,384z M480,384c0-52.9-43.1-96-96-96s-96,43.1-96,96s43.1,96,96,96
	S480,436.9,480,384z M128,192H64v64h64V192z M64,352h64v-64H64V352z M160,256h64v-64h-64V256z M160,352h64v-64h-64V352z M32,380.8
	V160h352v64h32V99.2c0-19.4-15.5-35.2-34.7-35.2H368v16c0,17.6-14.3,32-32,32s-32-14.4-32-32V64H112v16c0,17.6-14.3,32-32,32
	S48,97.6,48,80V64H34.7C15.5,64,0,79.8,0,99.2v281.6C0,400.2,15.5,416,34.7,416H224v-32H34.7C33.2,384,32,382.5,32,380.8z M320,256
	v-64h-64v64H320z M432,384h-48v-48c0-8.8-7.2-16-16-16s-16,7.2-16,16v64c0,8.8,7.2,16,16,16h64c8.8,0,16-7.2,16-16
	S440.8,384,432,384z"/>
</svg>
