<?xml version="1.0" encoding="utf-8"?>
<!-- Generator: Adobe Illustrator 17.1.0, SVG Export Plug-In . SVG Version: 6.00 Build 0)  -->
<!DOCTYPE svg PUBLIC "-//W3C//DTD SVG 1.1//EN" "http://www.w3.org/Graphics/SVG/1.1/DTD/svg11.dtd">
<svg version="1.1" id="Capa_1" xmlns="http://www.w3.org/2000/svg" xmlns:xlink="http://www.w3.org/1999/xlink" x="0px" y="0px"
	 viewBox="292.5 290.5 15 19" enable-background="new 292.5 290.5 15 19" xml:space="preserve">
<g>
	<ellipse fill="#F7F7F7" cx="297.6" cy="294.3" rx="3.7" ry="3.8"/>
	<path fill="#F7F7F7" d="M303.1,300.4c-0.5,0-1,0.1-1.4,0.2c-1-1.2-2.4-2-4.1-2c-2.8,0-5.1,2.3-5.1,5.1v2.8h6.4
		c0.6,1.8,2.2,3.1,4.2,3.1c2.5,0,4.5-2,4.5-4.6S305.6,300.4,303.1,300.4z M299.6,304.9c0-2,1.6-3.6,3.5-3.6s3.5,1.6,3.5,3.6
		c0,2-1.6,3.6-3.5,3.6S299.6,306.9,299.6,304.9z"/>
	<path fill="#F7F7F7" d="M303.7,302.3h-1.1c0,0.6,0,2,0,2s-1.2,0-1.8,0v1.1c0.6,0,1.8,0,1.8,0s0,1.5,0,2h1.1c0-0.6,0-2,0-2
		s1.2,0,1.8,0v-1.1c-0.6,0-1.8,0-1.8,0S303.7,302.9,303.7,302.3z"/>
</g>
</svg>
