<?xml version="1.0" encoding="utf-8"?>
<!-- Generator: Adobe Illustrator 17.1.0, SVG Export Plug-In . SVG Version: 6.00 Build 0)  -->
<!DOCTYPE svg PUBLIC "-//W3C//DTD SVG 1.1//EN" "http://www.w3.org/Graphics/SVG/1.1/DTD/svg11.dtd">
<svg version="1.1" id="Layer_1" xmlns="http://www.w3.org/2000/svg" xmlns:xlink="http://www.w3.org/1999/xlink" x="0px" y="0px"
	 viewBox="290 290 20 20" enable-background="new 290 290 20 20" xml:space="preserve">
<g>
	<path fill="#D81400" d="M307.9,295.5c-0.8-1.2-1.8-2.2-3.1-3c-0.2-0.1-0.5-0.1-0.7,0c-0.2,0.1-0.4,0.4-0.4,0.6v1.5
		c0,0.2,0.1,0.4,0.3,0.6c1.6,1.3,2.6,3.2,2.6,5.3c0,3.7-3,6.6-6.6,6.6c-3.7,0-6.6-3-6.6-6.6c0-2.1,1-4,2.6-5.3
		c0.2-0.1,0.3-0.4,0.3-0.6v-1.5c0-0.3-0.1-0.5-0.4-0.6c-0.2-0.1-0.5-0.1-0.7,0c-1.2,0.7-2.3,1.8-3.1,3c-1,1.5-1.5,3.3-1.5,5.1
		c0,2.5,1,4.9,2.7,6.6s4.1,2.7,6.6,2.7s4.9-1,6.6-2.7s2.7-4.1,2.7-6.6C309.4,298.8,308.8,297,307.9,295.5z"/>
	<path fill="#D81400" d="M299.1,301.4h1.7c0.4,0,0.7-0.3,0.7-0.7v-10c0-0.4-0.3-0.7-0.7-0.7h-1.7c-0.4,0-0.7,0.3-0.7,0.7v10
		C298.4,301.1,298.7,301.4,299.1,301.4z"/>
</g>
</svg>
