<?xml version="1.0" encoding="utf-8"?>
<!-- Generator: Adobe Illustrator 17.1.0, SVG Export Plug-In . SVG Version: 6.00 Build 0)  -->
<!DOCTYPE svg PUBLIC "-//W3C//DTD SVG 1.1//EN" "http://www.w3.org/Graphics/SVG/1.1/DTD/svg11.dtd">
<svg version="1.1" id="Capa_1" xmlns="http://www.w3.org/2000/svg" xmlns:xlink="http://www.w3.org/1999/xlink" x="0px" y="0px"
	 viewBox="0 0 18.9 23.3" enable-background="new 0 0 18.9 23.3" xml:space="preserve">
<circle fill="#F7F7F7" cx="6.4" cy="4.7" r="4.7"/>
<path fill="#F7F7F7" d="M13.3,12.1c-0.6,0-1.2,0.1-1.8,0.3c-1.2-1.5-3-2.5-5.1-2.5C2.9,9.9,0,12.7,0,16.1v3.4h8
	c0.8,2.2,2.8,3.8,5.3,3.8c3.1,0,5.6-2.5,5.6-5.6S16.4,12.1,13.3,12.1z M8.9,17.7c0-2.4,2-4.4,4.4-4.4c2.4,0,4.4,2,4.4,4.4
	c0,2.4-2,4.4-4.4,4.4C10.9,22.1,8.9,20.1,8.9,17.7z"/>
<path fill="#F7F7F7" d="M14.1,14.5h-1.4c0,0.7,0,2.4,0,2.4s-1.5,0-2.3,0v1.4c0.7,0,2.3,0,2.3,0s0,1.8,0,2.4h1.4c0-0.7,0-2.4,0-2.4
	s1.5,0,2.3,0v-1.4c-0.7,0-2.3,0-2.3,0S14.1,15.2,14.1,14.5z"/>
</svg>
