<?xml version="1.0" encoding="utf-8"?>
<!-- Generator: Adobe Illustrator 17.1.0, SVG Export Plug-In . SVG Version: 6.00 Build 0)  -->
<!DOCTYPE svg PUBLIC "-//W3C//DTD SVG 1.1//EN" "http://www.w3.org/Graphics/SVG/1.1/DTD/svg11.dtd">
<svg version="1.1" id="Capa_1" xmlns:sketch="http://www.bohemiancoding.com/sketch/ns"
	 xmlns="http://www.w3.org/2000/svg" xmlns:xlink="http://www.w3.org/1999/xlink" x="0px" y="0px" viewBox="0 0 600 600"
	 enable-background="new 0 0 600 600" xml:space="preserve">
<title>icon 24 key</title>
<desc>Created with Sketch.</desc>
<path fill="#F7F7F7" d="M403.1,56.3c-88.1,0-159.4,71.3-159.4,159.4c0,18.8,3.8,37.5,9.4,56.3L56.3,468.8v93.8H150v-56.3h56.3V450
	h56.3l84.4-84.4c16.9,5.6,35.6,9.4,56.3,9.4c88.1,0,159.4-71.3,159.4-159.4S491.3,56.3,403.1,56.3z M450,225
	c-31.9,0-56.3-24.4-56.3-56.3s24.4-56.3,56.3-56.3s56.3,24.4,56.3,56.3S481.9,225,450,225z"/>
</svg>
