<?xml version="1.0" encoding="utf-8"?>
<!-- Generator: Adobe Illustrator 17.1.0, SVG Export Plug-In . SVG Version: 6.00 Build 0)  -->
<!DOCTYPE svg PUBLIC "-//W3C//DTD SVG 1.1//EN" "http://www.w3.org/Graphics/SVG/1.1/DTD/svg11.dtd">
<svg version="1.1" id="Capa_1" xmlns:sketch="http://www.bohemiancoding.com/sketch/ns"
	 xmlns="http://www.w3.org/2000/svg" xmlns:xlink="http://www.w3.org/1999/xlink" x="0px" y="0px" viewBox="291.5 291.5 17 17"
	 enable-background="new 291.5 291.5 17 17" xml:space="preserve">
<title>icon 24 key</title>
<desc>Created with Sketch.</desc>
<path fill="#F7F7F7" d="M303.1,291.5c-3,0-5.4,2.4-5.4,5.4c0,0.6,0.1,1.3,0.3,1.9l-6.6,6.6v3.2h3.1v-1.9h1.9v-1.9h1.9l2.8-2.8
	c0.6,0.2,1.2,0.3,1.9,0.3c3,0,5.4-2.4,5.4-5.4S306.1,291.5,303.1,291.5z M304.7,297.2c-1.1,0-1.9-0.8-1.9-1.9s0.8-1.9,1.9-1.9
	c1.1,0,1.9,0.8,1.9,1.9S305.8,297.2,304.7,297.2z"/>
</svg>
