<?xml version="1.0" encoding="utf-8"?>
<!-- Generator: Adobe Illustrator 17.1.0, SVG Export Plug-In . SVG Version: 6.00 Build 0)  -->
<!DOCTYPE svg PUBLIC "-//W3C//DTD SVG 1.1//EN" "http://www.w3.org/Graphics/SVG/1.1/DTD/svg11.dtd">
<svg version="1.1" id="Layer_1" xmlns="http://www.w3.org/2000/svg" xmlns:xlink="http://www.w3.org/1999/xlink" x="0px" y="0px"
	 viewBox="292 292 16 16" enable-background="new 292 292 16 16" xml:space="preserve">
<g>
	<path fill="#F1C40F" d="M307.6,305.5l-3.7-3.7c-0.5,0.8-1.3,1.6-2.1,2.1l3.7,3.7c0.6,0.6,1.5,0.6,2.1,0
		C308.2,307,308.2,306.1,307.6,305.5z"/>
	<path fill="#F1C40F" d="M304.1,298.1c0-3.3-2.7-6-6-6c-3.3,0-6,2.7-6,6c0,3.3,2.7,6,6,6C301.4,304.1,304.1,301.4,304.1,298.1z
		 M298.1,302.6c-2.5,0-4.5-2-4.5-4.5c0-2.5,2-4.5,4.5-4.5c2.5,0,4.5,2,4.5,4.5C302.6,300.6,300.6,302.6,298.1,302.6z"/>
	<path fill="#F1C40F" d="M294.6,298.1h1c0-1.4,1.1-2.5,2.5-2.5v-1C296.2,294.6,294.6,296.2,294.6,298.1z"/>
</g>
</svg>
