<?xml version="1.0" encoding="utf-8"?>
<!-- Generator: Adobe Illustrator 17.1.0, SVG Export Plug-In . SVG Version: 6.00 Build 0)  -->
<!DOCTYPE svg PUBLIC "-//W3C//DTD SVG 1.1//EN" "http://www.w3.org/Graphics/SVG/1.1/DTD/svg11.dtd">
<svg version="1.1" id="Layer_1" xmlns="http://www.w3.org/2000/svg" xmlns:xlink="http://www.w3.org/1999/xlink" x="0px" y="0px"
	 viewBox="0 0 512 512" enable-background="new 0 0 512 512" xml:space="preserve">
<g>
	<path fill="#F1C40F" d="M497.9,430.1L380.5,312.6c-17.5,27.2-40.7,50.4-67.9,67.9l117.5,117.5c18.8,18.8,49.2,18.8,67.9,0
		C516.7,479.2,516.7,448.8,497.9,430.1z"/>
	<path fill="#F1C40F" d="M384,192C384,86,298,0,192,0S0,86,0,192s86,192,192,192S384,298,384,192z M192,336
		c-79.4,0-144-64.6-144-144S112.6,48,192,48s144,64.6,144,144S271.4,336,192,336z"/>
	<path fill="#F1C40F" d="M80,192h32c0-44.1,35.9-80,80-80V80C130.3,80,80,130.3,80,192z"/>
</g>
</svg>
