<?xml version="1.0" encoding="utf-8"?>
<!-- Generator: Adobe Illustrator 17.1.0, SVG Export Plug-In . SVG Version: 6.00 Build 0)  -->
<!DOCTYPE svg PUBLIC "-//W3C//DTD SVG 1.1//EN" "http://www.w3.org/Graphics/SVG/1.1/DTD/svg11.dtd">
<svg version="1.1" id="Layer_1" xmlns="http://www.w3.org/2000/svg" xmlns:xlink="http://www.w3.org/1999/xlink" x="0px" y="0px"
	 viewBox="0 0 512 512" enable-background="new 0 0 512 512" xml:space="preserve">
<g>
	<path fill="#D81400" d="M405.2,171c-14.6-22.7-34.6-42.1-57.8-56c-4.3-2.6-9.7-2.7-14.1-0.2c-4.4,2.5-7.1,7.2-7.1,12.2v29
		c0,4.4,2,8.5,5.5,11.2c31.1,23.7,49.7,61,49.7,99.9c0,69.1-56.2,125.3-125.3,125.3s-125.3-56.2-125.3-125.3
		c0-38.8,18.6-76.2,49.7-99.9c3.5-2.7,5.5-6.8,5.5-11.2v-29c0-5.1-2.7-9.7-7.1-12.2c-4.4-2.5-9.8-2.4-14.1,0.2
		c-23.2,13.9-43.2,33.3-57.8,56c-18.5,28.6-28.2,61.8-28.2,96c0,47.4,18.5,92,52,125.5c33.5,33.5,78.1,52,125.5,52s92-18.5,125.5-52
		s52-78.1,52-125.5C433.5,232.9,423.7,199.6,405.2,171z"/>
	<path fill="#D81400" d="M239.6,283h32.8c7.3,0,13.2-5.9,13.2-13.2V80.6c0-7.3-5.9-13.2-13.2-13.2h-32.8c-7.3,0-13.2,5.9-13.2,13.2
		v189.2C226.4,277.1,232.3,283,239.6,283z"/>
</g>
</svg>
