<?xml version="1.0" encoding="utf-8"?>
<!-- Generator: Adobe Illustrator 17.1.0, SVG Export Plug-In . SVG Version: 6.00 Build 0)  -->
<!DOCTYPE svg PUBLIC "-//W3C//DTD SVG 1.1//EN" "http://www.w3.org/Graphics/SVG/1.1/DTD/svg11.dtd">
<svg version="1.1" id="icon" xmlns="http://www.w3.org/2000/svg" xmlns:xlink="http://www.w3.org/1999/xlink" x="0px" y="0px"
	 viewBox="0 0 1024 1024" enable-background="new 0 0 1024 1024" xml:space="preserve">
<path id="settings_1_" fill="#F7F7F7" d="M927.2,446.8L838.5,432c-6.5-26.4-15.9-51.6-28.1-75.1l56.8-70.5
	c12.1-14.9,11.5-36.3-1.2-50.7L830.7,196c-12.8-14.4-34-17.4-50.2-7.2l-75.9,47.7c-33.4-23.3-71.2-40.6-112-50.5l-14.8-89.2
	C574.6,77.9,558.3,64,539.1,64h-53.2c-19.2,0-35.6,13.9-38.6,32.8L432.3,186c-33.7,8.3-65.4,21.6-94.2,39.1l-72.2-51.5
	c-15.6-11.1-36.9-9.4-50.5,4.2l-37.6,37.6c-13.5,13.6-15.3,34.9-4.1,50.5l51.6,72.3c-17.4,28.6-30.6,60.1-38.8,93.5l-89.7,15
	C77.9,449.9,64,466.2,64,485.4v53.2c0,19.2,13.9,35.5,32.8,38.7l89.7,15c6.8,27.5,16.6,53.8,29.7,78.1l-56.6,70.1
	c-12,14.9-11.5,36.3,1.2,50.7l35.3,39.7c12.8,14.4,34,17.4,50.2,7.2l77-48.4c32.6,22.3,69.4,38.7,109,48.4l14.9,89.3
	c3,18.9,19.5,32.8,38.6,32.8h53.2c19.2,0,35.5-13.9,38.7-32.8l14.9-89.3c33.3-8.1,64.5-21.2,93.1-38.5l75.2,53.7
	c15.5,11.2,36.9,9.4,50.5-4.2l37.6-37.6c13.5-13.5,15.4-34.9,4.1-50.5l-53.5-75.1c17.4-28.7,30.7-60.2,38.9-93.8l88.8-14.8
	c18.9-3.1,32.8-19.5,32.8-38.7v-53.2C960,466.2,946.2,449.9,927.2,446.8z M513.4,680c-92.8,0-168-75.3-168-168
	c0-92.8,75.2-168,168-168c92.7,0,168,75.2,168,168C681.4,604.8,606.2,680,513.4,680z"/>
</svg>
