<?xml version="1.0" encoding="utf-8"?>
<!-- Generator: Adobe Illustrator 17.1.0, SVG Export Plug-In . SVG Version: 6.00 Build 0)  -->
<!DOCTYPE svg PUBLIC "-//W3C//DTD SVG 1.1//EN" "http://www.w3.org/Graphics/SVG/1.1/DTD/svg11.dtd">
<svg version="1.1" id="icon" xmlns="http://www.w3.org/2000/svg" xmlns:xlink="http://www.w3.org/1999/xlink" x="0px" y="0px"
	 viewBox="290 290.1 20 20" enable-background="new 290 290.1 20 20" xml:space="preserve">
<path id="settings_1_" fill="#F7F7F7" d="M309.3,298.6l-2-0.3c-0.1-0.6-0.4-1.1-0.6-1.7l1.3-1.6c0.3-0.3,0.3-0.8,0-1.1l-0.8-0.9
	c-0.3-0.3-0.8-0.4-1.1-0.2l-1.7,1.1c-0.7-0.5-1.6-0.9-2.5-1.1l-0.3-2c-0.1-0.4-0.4-0.7-0.9-0.7h-1.2c-0.4,0-0.8,0.3-0.9,0.7l-0.3,2
	c-0.7,0.2-1.5,0.5-2.1,0.9l-1.6-1.1c-0.3-0.2-0.8-0.2-1.1,0.1l-0.8,0.8c-0.3,0.3-0.3,0.8-0.1,1.1l1.1,1.6c-0.4,0.6-0.7,1.3-0.9,2.1
	l-2,0.3c-0.4,0.1-0.7,0.4-0.7,0.9v1.2c0,0.4,0.3,0.8,0.7,0.9l2,0.3c0.2,0.6,0.4,1.2,0.7,1.7l-1.3,1.6c-0.3,0.3-0.3,0.8,0,1.1
	l0.8,0.9c0.3,0.3,0.8,0.4,1.1,0.2l1.7-1.1c0.7,0.5,1.5,0.9,2.4,1.1l0.3,2c0.1,0.4,0.4,0.7,0.9,0.7h1.2c0.4,0,0.8-0.3,0.9-0.7l0.3-2
	c0.7-0.2,1.4-0.5,2.1-0.9l1.7,1.2c0.3,0.2,0.8,0.2,1.1-0.1l0.8-0.8c0.3-0.3,0.3-0.8,0.1-1.1l-1.2-1.7c0.4-0.6,0.7-1.3,0.9-2.1l2-0.3
	c0.4-0.1,0.7-0.4,0.7-0.9v-1.2C310,299,309.7,298.6,309.3,298.6z M300.1,303.8c-2.1,0-3.7-1.7-3.7-3.7c0-2.1,1.7-3.7,3.7-3.7
	c2.1,0,3.7,1.7,3.7,3.7C303.8,302.1,302.1,303.8,300.1,303.8z"/>
</svg>
