<?xml version="1.0" encoding="utf-8"?>
<!-- Generator: Adobe Illustrator 17.1.0, SVG Export Plug-In . SVG Version: 6.00 Build 0)  -->
<!DOCTYPE svg PUBLIC "-//W3C//DTD SVG 1.1//EN" "http://www.w3.org/Graphics/SVG/1.1/DTD/svg11.dtd">
<svg version="1.1" id="Layer_4" xmlns="http://www.w3.org/2000/svg" xmlns:xlink="http://www.w3.org/1999/xlink" x="0px" y="0px"
	 viewBox="0 0 600 600" enable-background="new 0 0 600 600" xml:space="preserve">
<path fill="#4D7198" d="M565.2,401.4c-17.4-20.4-37.8-38.4-57-57c-17.4-16.8-18.6-26.4-4.2-46.2c15-21,31.8-42,46.8-63
	c14.4-19.8,28.8-39.6,36.6-63c4.8-15,0.6-21.6-15-24.6C570,147,567,147,564,147h-91.8c-11.4,0-17.4,4.8-21.6,15
	c-5.4,13.8-10.8,27-17.4,40.2c-14.4,29.4-30.6,58.2-53.4,82.2c-4.8,5.4-10.8,12-19.2,9.6c-10.8-3.6-13.8-21-13.2-27V161.4
	c-1.8-15-5.4-21.6-20.4-24.6h-95.4c-12.6,0-19.2,4.8-25.8,12.6c-4.2,4.8-4.8,7.8,3,9c15.6,3,24.6,13.2,27,28.8
	c3.6,25.2,3.6,51,1.2,76.2c-0.6,7.2-1.8,15-4.8,21.6c-4.8,10.8-12,13.2-21.6,6.6c-9-6-15-14.4-21-23.4
	c-22.8-32.4-40.8-67.2-55.8-103.8c-4.2-10.8-12-16.8-22.8-17.4c-27.6-0.6-55.2-0.6-82.8,0c-16.8,0.6-21.6,8.4-15,23.4
	C43.2,237,76.8,301.8,120,361.2c22.2,30.6,48,57,81,76.2c37.8,21.6,78,28.2,120.6,25.8c19.8-1.2,25.8-6,27-25.8
	c0.6-13.8,2.4-27,9-39.6c6.6-12,16.8-14.4,28.2-6.6c6,3.6,10.8,8.4,15,13.8c11.4,12,22.2,25.2,33.6,36.6c14.4,15,31.8,23.4,54,21.6
	H573c13.8-0.6,20.4-17.4,12.6-33C580.2,420,573,411,565.2,401.4z"/>
</svg>
