<?xml version="1.0" encoding="utf-8"?>
<!-- Generator: Adobe Illustrator 17.1.0, SVG Export Plug-In . SVG Version: 6.00 Build 0)  -->
<!DOCTYPE svg PUBLIC "-//W3C//DTD SVG 1.1//EN" "http://www.w3.org/Graphics/SVG/1.1/DTD/svg11.dtd">
<svg version="1.1" id="Layer_1" xmlns="http://www.w3.org/2000/svg" xmlns:xlink="http://www.w3.org/1999/xlink" x="0px" y="0px"
	 viewBox="290.5 291.4 17 16" enable-background="new 290.5 291.4 17 16" xml:space="preserve">
<path fill="#F1C40C" d="M298.4,291.7c0.1-0.2,0.3-0.4,0.6-0.4c0.3,0,0.5,0.1,0.6,0.4l2.1,4.2c0.1,0.2,0.3,0.3,0.5,0.4l4.7,0.7
	c0.3,0,0.4,0.2,0.5,0.4s0,0.5-0.2,0.6l-3.4,3.3c-0.1,0.1-0.2,0.4-0.2,0.6l0.8,4.7c0,0.3-0.1,0.5-0.3,0.6s-0.5,0.2-0.7,0l-4.2-2.2
	c-0.2-0.1-0.4-0.1-0.6,0l-4.2,2.2c-0.2,0.1-0.5,0.1-0.7,0s-0.3-0.4-0.3-0.6l0.8-4.7c0-0.2,0-0.4-0.2-0.6l-3.4-3.3
	c-0.2-0.2-0.3-0.4-0.2-0.6c0.1-0.2,0.3-0.4,0.5-0.4l4.8-0.7c0.2,0,0.4-0.2,0.5-0.4L298.4,291.7z"/>
</svg>
