<?xml version="1.0" encoding="UTF-8" standalone="no"?>
<!DOCTYPE svg  PUBLIC '-//W3C//DTD SVG 1.1//EN'  'http://www.w3.org/Graphics/SVG/1.1/DTD/svg11.dtd'>
<svg xmlns="http://www.w3.org/2000/svg">
<defs>
<font id="MuseoSansCyrl-900Italic" horiz-adv-x="600">
<font-face slope="-11" underline-position="-50" font-weight="700" descent="-200" panose-1="2 0 0 0 0 0 0 0 0 0" units-per-em="1000" unicode-range="U+0020-2265" bbox="-191 -210 1227 918" x-height="515" underline-thickness="50" font-family="MuseoSansCyrl" ascent="800" font-style="italic" cap-height="715"/>
<missing-glyph horiz-adv-x="1000"/>
<glyph glyph-name=".notdef" horiz-adv-x="1000"/>
<glyph glyph-name=".null" horiz-adv-x="0"/>
<glyph glyph-name="nonmarkingreturn" horiz-adv-x="333"/>
<glyph glyph-name="space" horiz-adv-x="250" unicode=" "/>
<glyph glyph-name="exclam" horiz-adv-x="310" unicode="!" d="M19 0l29 150h158l-29 -150h-158zM65 221l80 494h180l-112 -494h-148z"/>
<glyph glyph-name="quotedbl" horiz-adv-x="437" unicode='&quot;' d="M98 490l47 240h122l-47 -240h-122zM289 490l47 240h122l-47 -240h-122z"/>
<glyph glyph-name="numbersign" horiz-adv-x="714" unicode="#" d="M292 300h108l36 95h-108zM46 0l66 180h-97l42 120h98l36 95h-96l43 120h96l74 200h137l-74 -200h108l74 200h137l-74 -200h102l-43 -120h-102l-36 -95h100l-43 -120h-100l-66 -180h-137l66 180h-108l-66 -180h-137z"/>
<glyph glyph-name="dollar" d="M2 90l104 124q30 -30 76.5 -47.5t92.5 -17.5q32 0 59 15.5t27 47.5q0 17 -20 33.5t-49.5 30.5t-64 35t-64 45t-49.5 62.5t-20 85.5q0 92 68.5 151.5t164.5 69.5l18 90h109l-18 -94q114 -21 168 -77l-94 -129q-27 23 -70.5 37t-82.5 14q-32 0 -60 -16t-28 -46 q0 -18 20 -35t50 -30.5t64.5 -34t64.5 -44t50 -62.5t20 -86q0 -89 -69 -152.5t-176 -70.5l-16 -88h-109l18 95q-110 23 -184 94z" unicode="$"/>
<glyph glyph-name="percent" horiz-adv-x="884" unicode="%" d="M582 151q0 -19 13.5 -31t36.5 -12q24 0 43 18t19 43q0 19 -13.5 31.5t-36.5 12.5t-42.5 -19t-19.5 -43zM454 147q0 72 60.5 129t136.5 57q75 0 123 -46.5t48 -116.5q0 -72 -61.5 -127t-136.5 -55t-122.5 45t-47.5 114zM264 502q24 0 43 18t19 43q0 19 -13.5 31.5 t-36.5 12.5t-42.5 -19t-19.5 -43q0 -19 13.5 -31t36.5 -12zM36 0l674 715h159l-674 -715h-159zM256 382q-75 0 -122.5 45t-47.5 114q0 72 60.5 129t136.5 57q75 0 123 -46.5t48 -116.5q0 -72 -61.5 -127t-136.5 -55z"/>
<glyph glyph-name="ampersand" horiz-adv-x="700" unicode="&amp;" d="M209 207q0 -26 21 -43t54 -17q48 0 79 23t38 60l11 59h-98q-40 0 -72.5 -19.5t-32.5 -62.5zM25 194q0 59 45 113.5t111 73.5v2q-3 1 -7 3.5t-14.5 12t-19 21t-15 32.5t-6.5 46q0 59 24.5 105t64 72t85 39t93.5 13q53 0 108 -19l-64 -130q-13 4 -38 4q-39 0 -69 -23 t-30 -66q0 -24 15.5 -39t45.5 -15h87l17 88h172l-17 -88h89l-29 -150h-89l-13 -69q-22 -114 -97.5 -173t-195.5 -59q-118 0 -185.5 57.5t-67.5 148.5z"/>
<glyph glyph-name="quotesingle" horiz-adv-x="249" unicode="&apos;" d="M98 490l47 240h125l-47 -240h-125z"/>
<glyph glyph-name="parenleft" horiz-adv-x="335" unicode="(" d="M95 -95q-59 135 -59 276q0 333 214 569h147q-211 -260 -211 -573q0 -146 46 -272h-137z"/>
<glyph glyph-name="parenright" horiz-adv-x="334" unicode=")" d="M-51 -95q211 260 211 573q0 146 -46 272h137q59 -135 59 -276q0 -333 -214 -569h-147z"/>
<glyph glyph-name="asterisk" horiz-adv-x="500" unicode="*" d="M195 309l-110 90l93 88l-101 21l73 140l93 -45l11 112h152l-34 -112l112 46l20 -146l-122 -26l60 -81l-131 -88l-41 99z"/>
<glyph glyph-name="plus" d="M174 0l43 222h-205l25 130h205l43 223h136l-43 -223h205l-25 -130h-205l-43 -222h-136z" unicode="+"/>
<glyph glyph-name="comma" horiz-adv-x="306" unicode="," d="M-64 -111l127 277h169l-167 -277h-129z"/>
<glyph glyph-name="hyphen" horiz-adv-x="433" unicode="-" d="M42 212l29 150h314l-29 -150h-314z"/>
<glyph glyph-name="period" horiz-adv-x="284" unicode="." d="M3 0l31 164h164l-31 -164h-164z"/>
<glyph glyph-name="slash" horiz-adv-x="476" unicode="/" d="M-32 -42l408 792h154l-409 -792h-153z"/>
<glyph glyph-name="zero" horiz-adv-x="642" unicode="0" d="M231 246q0 -98 61 -98q34 0 62.5 34.5t45 85.5t25.5 104t9 97q0 98 -61 98q-34 0 -62.5 -34.5t-45 -86t-25.5 -104.5t-9 -96zM50 238q0 48 7.5 99.5t22.5 107.5t41.5 106t61.5 89.5t85.5 63t110.5 23.5q237 0 237 -248q0 -58 -10 -121t-35 -130t-61.5 -119.5t-94.5 -86.5 t-129 -34q-236 0 -236 250z"/>
<glyph glyph-name="one" horiz-adv-x="553" unicode="1" d="M3 0l27 150h152l57 285l12 55h-2q-13 -20 -36 -38l-50 -39l-87 118l236 184h151l-110 -565h152l-29 -150h-473z"/>
<glyph glyph-name="two" horiz-adv-x="603" unicode="2" d="M3 0q0 58 15.5 109t37 86t58 68.5t65.5 53.5t71 46q11 6 36 21t34 21t27.5 18t25.5 19.5t16.5 18t13 21t3.5 22.5q0 27 -18.5 42.5t-48.5 15.5q-71 0 -125 -76l-123 96q24 29 43 48t52.5 44.5t77 39t93.5 13.5q94 0 163 -54t69 -149q0 -51 -20.5 -94t-62 -79.5t-72.5 -57 t-84 -50.5q-59 -34 -86 -53.5t-33 -39.5h295l-29 -150h-494z"/>
<glyph glyph-name="three" horiz-adv-x="589" unicode="3" d="M-12 82l100 124q23 -25 62 -39t80 -14q59 0 91 24.5t32 60.5q0 65 -114 65h-59l-20 85l107 113q18 19 37 35.5t29 23.5l10 8v2q-24 -5 -69 -5h-163l29 150h451l-21 -109l-176 -177q54 -14 94.5 -61t40.5 -122q0 -103 -77.5 -180.5t-217.5 -77.5q-155 0 -246 94z"/>
<glyph glyph-name="four" horiz-adv-x="634" unicode="4" d="M216 318h130l31 160l21 80h-2q-25 -43 -49 -74l-131 -164v-2zM2 173l19 106l346 436h229l-77 -397h85l-28 -145h-85l-34 -173h-173l34 173h-316z"/>
<glyph glyph-name="five" horiz-adv-x="589" unicode="5" d="M-1 82l102 125q58 -54 134 -54q52 0 89.5 29t37.5 72q0 36 -28 56t-73 20q-24 0 -49 -6t-38 -12l-13 -6l-92 36l102 373h405l-29 -150h-248l-17 -64l-9 -28h2q25 5 54 5q92 0 153 -60.5t61 -154.5q0 -114 -89.5 -194.5t-220.5 -80.5q-66 0 -128.5 24t-105.5 70z"/>
<glyph glyph-name="six" horiz-adv-x="619" unicode="6" d="M223 258q0 -48 25.5 -79t60.5 -31q39 0 64 32t25 72q0 35 -21.5 58t-67.5 23q-41 0 -63.5 -21.5t-22.5 -53.5zM45 260q0 79 29 160.5t80 150.5t129.5 112.5t168.5 43.5q104 0 170 -33l-71 -142q-50 15 -97 15q-114 0 -177 -118h2q30 25 88 25q99 0 151 -60.5t52 -154.5 q0 -103 -74.5 -187t-189.5 -84q-111 0 -186 70.5t-75 201.5z"/>
<glyph glyph-name="seven" horiz-adv-x="569" unicode="7" d="M-2 0l349 501q15 22 30 38.5t22 21.5l7 5v2q-10 -3 -46 -3h-271l29 150h513l-24 -122l-415 -593h-194z"/>
<glyph glyph-name="eight" horiz-adv-x="627" unicode="8" d="M210 209q0 -29 20 -48t52 -19q41 0 71 22t30 58q0 18 -17.5 35.5t-34.5 27.5t-56 30q-65 -53 -65 -106zM377 416q51 54 51 104q0 25 -16.5 39t-47.5 14q-35 0 -55.5 -19.5t-20.5 -47.5t22.5 -47.5t66.5 -42.5zM26 196q0 34 16 67.5t41 59.5t43.5 41.5t35.5 26.5 q-48 51 -48 116q0 86 70 153t189 67q102 0 166.5 -50.5t64.5 -139.5q0 -39 -23.5 -83t-43.5 -66.5t-38 -39.5q64 -52 64 -126q0 -90 -79 -162t-207 -72q-121 0 -186 59t-65 149z"/>
<glyph glyph-name="nine" horiz-adv-x="620" unicode="9" d="M333 382q41 0 63.5 21.5t22.5 53.5q0 48 -25.5 79t-60.5 31q-39 0 -64 -32t-25 -72q0 -35 21.5 -58t67.5 -23zM20 21l71 142q43 -15 97 -15q114 0 177 118h-2q-40 -25 -88 -25q-99 0 -151 60.5t-52 154.5q0 65 32 126.5t95 103t140 41.5q111 0 184.5 -70.5t73.5 -201.5 q0 -79 -29 -160.5t-80 -150.5t-129.5 -112.5t-168.5 -43.5q-104 0 -170 33z"/>
<glyph glyph-name="colon" horiz-adv-x="283" unicode=":" d="M1 0l32 164h164l-32 -164h-164zM70 351l32 164h164l-32 -164h-164z"/>
<glyph glyph-name="semicolon" horiz-adv-x="317" unicode=";" d="M-64 -111l127 277h169l-167 -277h-129zM100 351l32 164h158l-32 -164h-158z"/>
<glyph glyph-name="less" d="M24 234v107l504 223v-145l-330 -131v-2l330 -130v-145z" unicode="&lt;"/>
<glyph glyph-name="equal" d="M42 107v130h506v-130h-506zM42 337v130h506v-130h-506z" unicode="="/>
<glyph glyph-name="greater" d="M67 11v145l330 130v2l-330 131v145l504 -223v-107z" unicode="&gt;"/>
<glyph glyph-name="question" horiz-adv-x="518" unicode="?" d="M90 0l29 150h158l-29 -150h-158zM128 221l9 50q9 48 43 88t69.5 62t64 49t28.5 54q0 22 -17 35.5t-43 13.5q-44 0 -103 -43l-79 127q37 29 94.5 51t115.5 22q88 0 151 -48t63 -132q0 -49 -21.5 -90t-53 -67t-63 -48t-56.5 -44t-29 -44l-7 -36h-166z"/>
<glyph glyph-name="at" horiz-adv-x="850" unicode="@" d="M464 228q0 -23 14 -37t41 -14h39l26 134h-37q-37 0 -60 -25t-23 -58zM32 177q0 179 133 308.5t320 129.5q273 0 273 -204q0 -26 -7 -61l-33 -173h74l-23 -119h-268q-101 0 -155 47.5t-54 118.5q0 75 67 133.5t181 58.5h64q1 4 1 7q0 27 -37.5 42t-85.5 15 q-113 0 -196 -92.5t-83 -199.5q0 -83 54 -136.5t156 -53.5l-25 -128q-157 0 -256.5 86.5t-99.5 220.5z"/>
<glyph glyph-name="A" horiz-adv-x="668" unicode="A" d="M270 290h141l-14 139l-6 123h-2q-29 -78 -51 -123zM-57 0l372 715h201l99 -715h-175l-15 150h-223l-72 -150h-187z"/>
<glyph glyph-name="B" horiz-adv-x="650" unicode="B" d="M222 150h105q28 0 49 12q44 28 44 80q0 25 -16 40.5t-47 15.5h-106zM278 438h90q35 0 56 24.5t21 55.5q0 47 -55 47h-87zM18 0l139 715h230q78 0 125 -16q54 -19 83.5 -59.5t29.5 -94.5q0 -50 -30 -96.5t-81 -72.5v-2q44 -16 65 -53.5t21 -83.5q0 -82 -48.5 -139 t-126.5 -82q-48 -16 -114 -16h-293z"/>
<glyph glyph-name="C" horiz-adv-x="717" unicode="C" d="M45 305q0 173 124 297.5t296 124.5q79 0 153 -25.5t123 -77.5l-99 -120q-74 63 -171 63q-111 0 -178 -78t-67 -172q0 -73 42.5 -121t123.5 -48q102 0 209 85l68 -139q-51 -46 -130.5 -76t-156.5 -30q-155 0 -246 88t-91 229z"/>
<glyph glyph-name="D" horiz-adv-x="738" unicode="D" d="M223 150h72q108 0 175 77t67 189q0 73 -42.5 111t-118.5 38h-72zM19 0l138 715h229q156 0 243.5 -74.5t87.5 -208.5q0 -182 -118 -307t-301 -125h-279z"/>
<glyph glyph-name="E" horiz-adv-x="575" unicode="E" d="M18 0l140 715h447l-29 -150h-273l-25 -130h217l-30 -150h-217l-26 -135h287l-29 -150h-462z"/>
<glyph glyph-name="F" horiz-adv-x="540" unicode="F" d="M19 0l138 715h437l-28 -150h-263l-29 -150h217l-28 -150h-218l-52 -265h-174z"/>
<glyph glyph-name="G" horiz-adv-x="773" unicode="G" d="M45 304q0 174 124.5 298.5t306.5 124.5q75 0 150.5 -23t124.5 -69l-101 -121q-28 23 -75.5 38t-94.5 15q-120 0 -186.5 -76t-66.5 -175q0 -82 48 -125t120 -43q79 0 155 52l11 55h-101l29 149h256l-79 -404h-146l4 20l7 30h-2q-62 -62 -175 -62q-125 0 -217 85.5 t-92 230.5z"/>
<glyph glyph-name="H" horiz-adv-x="762" unicode="H" d="M18 0l139 715h175l-56 -286h260l56 286h175l-139 -715h-175l54 280h-260l-54 -280h-175z"/>
<glyph glyph-name="I" horiz-adv-x="327" unicode="I" d="M18 0l139 715h175l-139 -715h-175z"/>
<glyph glyph-name="J" horiz-adv-x="563" unicode="J" d="M-3 178q0 28 5 52l8 42h175l-7 -37q-4 -24 -4 -33q0 -54 53 -54q62 0 76 75l67 342h-191l29 150h366l-98 -505q-21 -108 -91 -165t-162 -57q-94 0 -160 50t-66 140z"/>
<glyph glyph-name="K" horiz-adv-x="682" unicode="K" d="M18 0l139 715h175l-54 -276h67l205 276h203l-271 -351v-2l130 -362h-186l-95 290h-82l-56 -290h-175z"/>
<glyph glyph-name="L" horiz-adv-x="549" unicode="L" d="M18 0l139 715h175l-110 -565h292l-30 -150h-466z"/>
<glyph glyph-name="M" horiz-adv-x="878" unicode="M" d="M-7 0l191 715h191l47 -302l12 -118h2q35 71 60 118l163 302h192l-81 -715h-172l41 322l23 120h-2q-38 -76 -63 -120l-116 -207h-152l-36 207l-15 122h-2q-9 -68 -23 -122l-84 -322h-176z"/>
<glyph glyph-name="N" horiz-adv-x="749" unicode="N" d="M18 0l139 715h170l133 -334q8 -21 17 -51.5t14 -50.5l5 -20h2q7 77 16 122l65 334h175l-139 -715h-169l-134 333q-8 21 -17.5 51.5t-14.5 50.5l-5 20h-2q-6 -77 -15 -122l-65 -333h-175z"/>
<glyph glyph-name="O" horiz-adv-x="820" unicode="O" d="M224 317q0 -75 44 -122t114 -47q91 0 164 75.5t73 180.5q0 73 -44 118t-114 45q-92 0 -164.5 -73.5t-72.5 -176.5zM44 307q0 111 58.5 208.5t155.5 154.5t205 57q152 0 244.5 -87.5t92.5 -224.5q0 -113 -59.5 -212t-156.5 -157t-204 -58q-152 0 -244 89.5t-92 229.5z"/>
<glyph glyph-name="P" horiz-adv-x="631" unicode="P" d="M265 371h85q37 0 59 15q54 36 54 110q0 32 -18.5 50.5t-53.5 18.5h-88zM18 0l139 715h273q64 0 109 -22q50 -24 77 -71t27 -110q0 -88 -45.5 -160.5t-118.5 -106.5q-51 -24 -110 -24h-133l-43 -221h-175z"/>
<glyph glyph-name="Q" horiz-adv-x="820" unicode="Q" d="M224 317q0 -75 44 -122t114 -47q45 0 91 22l-62 67l110 102l59 -71q39 63 39 136t-44 118t-114 45q-92 0 -164.5 -73.5t-72.5 -176.5zM44 307q0 111 58.5 208.5t155.5 154.5t205 57q152 0 244.5 -87.5t92.5 -224.5q0 -153 -111 -274l60 -61l-110 -102l-59 70 q-88 -60 -200 -60q-152 0 -244 89.5t-92 229.5z"/>
<glyph glyph-name="R" horiz-adv-x="653" unicode="R" d="M269 391h75q48 0 79.5 29t31.5 81q0 31 -19.5 47.5t-53.5 16.5h-79zM18 0l139 715h266q63 0 105 -17q107 -43 107 -164q0 -73 -37 -142.5t-112 -99.5v-2q7 -12 18 -43l92 -247h-188l-80 241h-88l-47 -241h-175z"/>
<glyph glyph-name="S" horiz-adv-x="580" unicode="S" d="M-7 90l104 124q30 -29 76.5 -47t92.5 -18q32 0 59 15.5t27 47.5q0 17 -20 34t-49.5 31t-64 35t-64 44.5t-49.5 62t-20 85.5q0 101 80 162t186 61q154 0 244 -83l-94 -129q-26 21 -68.5 36t-84.5 15q-32 0 -60 -16t-28 -46q0 -18 20 -35t50 -31t64.5 -34.5t64.5 -44 t50 -62t20 -85.5q0 -93 -76 -158.5t-190 -65.5q-76 0 -150.5 26t-119.5 76z"/>
<glyph glyph-name="T" horiz-adv-x="630" unicode="T" d="M169 0l110 565h-216l29 150h607l-29 -150h-216l-110 -565h-175z"/>
<glyph glyph-name="U" horiz-adv-x="734" unicode="U" d="M56 210q0 28 6 58l87 447h175l-88 -452q-3 -15 -3 -28q0 -42 28 -64.5t77 -22.5q58 0 96.5 29.5t49.5 85.5l88 452h175l-89 -457q-24 -122 -111.5 -196t-214.5 -74q-118 0 -197 59t-79 163z"/>
<glyph glyph-name="V" horiz-adv-x="685" unicode="V" d="M188 0l-115 715h187l47 -407l5 -115h2q27 70 49 115l206 407h199l-392 -715h-188z"/>
<glyph glyph-name="W" horiz-adv-x="995" unicode="W" d="M134 0l-46 715h182l11 -447v-18l-2 -57h2q7 31 26 75l196 447h145l21 -447q0 -4 0.5 -10.5t0.5 -10.5l-3 -54h2q7 35 23 75l179 447h191l-314 -715h-203l-19 361q0 5 -0.5 15.5t-0.5 15.5q0 26 3 53h-2q-11 -38 -31 -84l-160 -361h-201z"/>
<glyph glyph-name="X" horiz-adv-x="655" unicode="X" d="M-49 0l286 360l-149 355h191l52 -144l28 -91h2q25 45 59 91l105 144h204l-291 -364l151 -351h-187l-56 147l-28 88h-2q-25 -43 -59 -88l-109 -147h-197z"/>
<glyph glyph-name="Y" horiz-adv-x="625" unicode="Y" d="M162 0l57 293l-149 422h189l48 -172l23 -103h2q31 53 63 103l109 172h210l-322 -429l-55 -286h-175z"/>
<glyph glyph-name="Z" horiz-adv-x="634" unicode="Z" d="M-21 0l22 110l340 391q18 20 35 36t25 23l8 6v2q-22 -3 -54 -3h-253l28 150h540l-22 -108l-343 -393q-17 -20 -34 -36t-25 -22l-9 -7v-2q23 3 55 3h273l-29 -150h-557z"/>
<glyph glyph-name="bracketleft" horiz-adv-x="354" unicode="[" d="M-6 -95l165 845h246l-24 -120h-102l-117 -605h102l-24 -120h-246z"/>
<glyph glyph-name="backslash" horiz-adv-x="447" unicode="\" d="M216 -42l-103 792h138l103 -792h-138z"/>
<glyph glyph-name="bracketright" horiz-adv-x="353" unicode="]" d="M-16 25h102l117 605h-102l24 120h246l-165 -845h-245z"/>
<glyph glyph-name="asciicircum" horiz-adv-x="630" unicode="^" d="M56 241l203 474h107l203 -474h-145l-112 300l-111 -300h-145z"/>
<glyph glyph-name="underscore" horiz-adv-x="614" unicode="_" d="M-43 0h596l-25 -130h-595z"/>
<glyph glyph-name="grave" horiz-adv-x="484" unicode="`" d="M168 761l-88 150h165l51 -150h-128z"/>
<glyph glyph-name="a" horiz-adv-x="547" unicode="a" d="M161 153q0 -36 43 -36q33 0 64.5 28.5t37.5 60.5l3 16h-18q-18 0 -36.5 -2.5t-41.5 -9t-37.5 -21.5t-14.5 -36zM-8 124q0 54 31.5 94.5t83 61.5t105 31t107.5 10h8q3 14 3 21q0 45 -66 45q-55 0 -149 -47l-37 130q34 19 97.5 38t122.5 19q36 0 69 -8t65 -25t51 -51 t19 -80q0 -20 -5 -50l-60 -313h-158l6 31l9 32h-2q-22 -28 -61.5 -51.5t-90.5 -23.5q-61 0 -104.5 36.5t-43.5 99.5z"/>
<glyph glyph-name="b" horiz-adv-x="634" unicode="b" d="M214 221q0 -39 20.5 -64.5t60.5 -25.5q48 0 88.5 44t40.5 115q0 42 -22 66.5t-59 24.5q-45 0 -87 -44.5t-42 -115.5zM1 0l138 715h173l-38 -194l-11 -46h2q54 52 135 52q93 0 146 -60.5t53 -163.5q0 -135 -86 -225t-196 -90q-100 0 -145 63h-2q-1 -13 -4 -29l-4 -22h-161 z"/>
<glyph glyph-name="c" horiz-adv-x="554" unicode="c" d="M19 224q0 117 91 210t231 93q134 0 210 -76l-87 -108q-21 18 -53.5 29t-61.5 11q-68 0 -111.5 -46.5t-43.5 -102.5q0 -43 27 -72.5t79 -29.5q67 0 154 62l44 -131q-39 -32 -101 -53.5t-121 -21.5q-123 0 -190 66.5t-67 169.5z"/>
<glyph glyph-name="d" horiz-adv-x="636" unicode="d" d="M195 222q0 -42 22 -66.5t59 -24.5q45 0 86.5 45.5t41.5 113.5q0 40 -20 65.5t-60 25.5q-48 0 -88.5 -44t-40.5 -115zM20 209q0 139 85.5 228.5t203.5 89.5q92 0 130 -46h2q1 13 3 23l41 211h173l-139 -715h-162l7 34l7 30h-2q-57 -76 -149 -76q-94 0 -147 60t-53 161z "/>
<glyph glyph-name="e" horiz-adv-x="566" unicode="e" d="M215 323h152q1 6 1 18q0 27 -14.5 43t-40.5 16q-70 0 -98 -77zM19 213q0 134 85 224t212 90q107 0 163.5 -55t56.5 -147q0 -42 -19 -101h-325v-6q0 -39 27 -62.5t74 -23.5q71 0 153 52l44 -129q-33 -26 -92.5 -46.5t-115.5 -20.5q-126 0 -194.5 64.5t-68.5 160.5z"/>
<glyph glyph-name="f" horiz-adv-x="385" unicode="f" d="M38 0l72 371h-63l27 135h63l4 22q9 48 32 84.5t50 56t62.5 31.5t62 15.5t54.5 3.5q33 0 63 -3l-30 -146q-6 2 -26 2q-88 0 -97 -50l-3 -16h95l-26 -135h-95l-72 -371h-173z"/>
<glyph glyph-name="g" horiz-adv-x="624" unicode="g" d="M198 246q0 -39 19.5 -63t59.5 -24q53 0 86 47.5t33 101.5q0 75 -83 75q-52 0 -83.5 -39.5t-31.5 -97.5zM62 -33q50 -33 141 -33q52 0 90.5 23t47.5 76l3 17l4 19h-1q-51 -54 -124 -54q-98 0 -149 60.5t-51 155.5q0 116 75.5 206t199.5 90q97 0 138 -55h3q1 10 2 16l5 27 h162l-93 -478q-26 -129 -112 -188t-196 -59q-134 0 -213 53z"/>
<glyph glyph-name="h" horiz-adv-x="627" unicode="h" d="M1 0l139 715h173l-44 -226l-10 -44h2q22 35 68 58.5t95 23.5q73 0 117.5 -35t44.5 -111q0 -20 -7 -57l-63 -324h-173l58 296q3 18 3 30q0 44 -46 44q-50 0 -89.5 -42t-50.5 -100l-44 -228h-173z"/>
<glyph glyph-name="i" horiz-adv-x="289" unicode="i" d="M1 0l99 515h173l-100 -515h-172zM115 580l26 135h169l-26 -135h-169z"/>
<glyph glyph-name="j" horiz-adv-x="290" unicode="j" d="M1 4l99 511h173l-102 -526q-12 -62 -43.5 -104t-73.5 -60.5t-76.5 -25.5t-70.5 -7q-28 0 -61 3l28 144q6 -1 22 -1q92 0 105 66zM115 580l26 135h169l-26 -135h-169z"/>
<glyph glyph-name="k" horiz-adv-x="596" unicode="k" d="M1 0l139 715h173l-72 -370h47l136 170h201l-207 -244v-2l115 -269h-183l-75 200h-62l-39 -200h-173z"/>
<glyph glyph-name="l" horiz-adv-x="324" unicode="l" d="M31 137q0 29 7 63l100 515h173l-96 -496q-5 -22 -5 -39q0 -33 39 -33q10 0 21 1l-29 -150q-30 -3 -47 -3q-163 0 -163 142z"/>
<glyph glyph-name="m" horiz-adv-x="909" unicode="m" d="M1 0l100 515h167l-8 -40l-10 -37h2q69 89 156 89q110 0 137 -87h2q27 36 74 61.5t98 25.5q147 0 147 -141q0 -29 -8 -72l-60 -314h-173l59 300q3 16 3 30q0 40 -34 40q-45 0 -78.5 -45.5t-46.5 -111.5l-42 -213h-173l59 300q3 16 3 30q0 40 -34 40q-44 0 -78 -45.5 t-47 -111.5l-42 -213h-173z"/>
<glyph glyph-name="n" horiz-adv-x="627" unicode="n" d="M1 0l100 515h167l-5 -26l-13 -51h2q23 36 72 62.5t100 26.5q73 0 117.5 -35t44.5 -111q0 -20 -7 -57l-63 -324h-173l58 296q3 18 3 30q0 44 -46 44q-50 0 -89.5 -42t-50.5 -100l-44 -228h-173z"/>
<glyph glyph-name="o" horiz-adv-x="640" unicode="o" d="M193 227q0 -44 26.5 -69.5t68.5 -25.5q55 0 99 43t44 110q0 45 -26.5 71.5t-67.5 26.5q-54 0 -99 -44.5t-45 -111.5zM18 219q0 131 97.5 219.5t223.5 88.5q117 0 192 -63.5t75 -167.5q0 -132 -98 -220t-223 -88q-118 0 -192.5 63t-74.5 168z"/>
<glyph glyph-name="p" horiz-adv-x="633" unicode="p" d="M214 222q0 -40 20 -65.5t60 -25.5q49 0 89 44t40 115q0 42 -21.5 66.5t-58.5 24.5q-45 0 -87 -44.5t-42 -114.5zM172 -2l-38 -198h-172l138 715h156l-5 -26l-9 -33h2q58 71 155 71q92 0 145.5 -60.5t53.5 -163.5q0 -135 -86 -225t-196 -90q-85 0 -135 54h-2 q-2 -18 -7 -44z"/>
<glyph glyph-name="q" horiz-adv-x="635" unicode="q" d="M195 222q0 -42 22 -66.5t59 -24.5q45 0 86.5 45.5t41.5 113.5q0 40 -20 65.5t-60 25.5q-48 0 -88.5 -44t-40.5 -115zM20 209q0 139 85.5 228.5t203.5 89.5q93 0 139 -55h2q1 11 4 28l3 15h162l-139 -715h-173l39 202l11 44h-2q-55 -58 -135 -58q-94 0 -147 60t-53 161z "/>
<glyph glyph-name="r" horiz-adv-x="428" unicode="r" d="M1 0l100 515h166l-17 -87l-8 -32h1q25 54 75.5 91t103.5 37q8 0 30 -2l-33 -170q-30 3 -34 3q-30 0 -63 -14.5t-67.5 -58t-46.5 -107.5l-34 -175h-173z"/>
<glyph glyph-name="s" horiz-adv-x="468" unicode="s" d="M-17 58l82 116q23 -21 59.5 -33.5t72.5 -12.5q55 0 55 30q0 13 -21 24t-51 22.5t-60 27.5t-51 48.5t-21 77.5q0 75 62.5 122t155.5 47q104 0 189 -57l-68 -120q-47 37 -126 37q-53 0 -53 -29q0 -13 21 -23.5t51 -21.5t60.5 -27.5t51.5 -50.5t21 -81q0 -75 -58 -120.5 t-151 -45.5q-126 0 -221 70z"/>
<glyph glyph-name="t" horiz-adv-x="407" unicode="t" d="M60 160q0 17 5 40l34 171h-65l26 135h71l29 148h166l-29 -148h109l-26 -135h-109l-28 -147q-3 -14 -3 -27q0 -50 76 -50q14 0 27 1l-29 -150q-42 -3 -46 -3q-92 0 -150 40.5t-58 124.5z"/>
<glyph glyph-name="u" horiz-adv-x="620" unicode="u" d="M25 134q0 20 7 57l63 324h173l-58 -296q-3 -18 -3 -30q0 -44 46 -44q48 0 85.5 42t48.5 100l44 228h173l-100 -515h-167l5 26l13 51h-2q-23 -37 -69 -63t-97 -26q-73 0 -117.5 35t-44.5 111z"/>
<glyph glyph-name="v" horiz-adv-x="563" unicode="v" d="M122 0l-77 515h171l26 -274l2 -89h2q19 55 36 89l133 274h183l-276 -515h-200z"/>
<glyph glyph-name="w" horiz-adv-x="825" unicode="w" d="M95 0l-44 515h172l4 -304l-4 -54h2l3 7q2 7 6.5 21t9.5 26l131 304h145l11 -304v-9l-2 -45h2q5 26 17 54l123 304h184l-245 -515h-192l-11 238v27v28h-2q-8 -27 -20 -55l-105 -238h-185z"/>
<glyph glyph-name="x" horiz-adv-x="549" unicode="x" d="M-47 0l216 260l-122 255h182l42 -110l11 -38h2q13 25 22 38l78 110h200l-220 -265l119 -250h-178l-46 111l-9 30h-2q-11 -21 -18 -30l-80 -111h-197z"/>
<glyph glyph-name="y" horiz-adv-x="567" unicode="y" d="M-4 -50q21 -16 51 -16q61 0 93 52l15 24l-121 505h180l42 -255l5 -76h2q18 45 31 73l115 258h194l-322 -570q-45 -79 -105 -117t-120 -38q-73 0 -135 40z"/>
<glyph glyph-name="z" horiz-adv-x="544" unicode="z" d="M-22 0l16 86l229 237q14 14 27.5 26t19.5 17l6 4v2q-12 -2 -44 -2h-176l29 145h459l-16 -87l-229 -237q-14 -14 -28 -25.5t-21 -16.5l-7 -5v-2q14 3 47 3h187l-29 -145h-470z"/>
<glyph glyph-name="braceleft" horiz-adv-x="395" unicode="{" d="M70 38q0 20 4 39l16 83q3 15 3 26q0 30 -18.5 49.5t-50.5 20.5l29 150q40 1 67.5 28t36.5 71l20 103q9 47 33.5 78.5t59.5 45t66 18.5t69 5q16 0 42 -2l-24 -124q-6 2 -25 2q-72 0 -83 -54l-26 -132q-9 -42 -39 -71.5t-70 -42.5v-2q29 -10 46 -39.5t17 -67.5 q0 -14 -3 -32l-22 -112q-1 -4 -1 -12q0 -42 64 -42q7 0 25 2l-24 -124q-18 -2 -44 -2q-23 0 -47.5 5t-54 18.5t-48 43t-18.5 71.5z"/>
<glyph glyph-name="bar" horiz-adv-x="356" unicode="|" d="M109 -165v967h144v-967h-144z"/>
<glyph glyph-name="braceright" horiz-adv-x="395" unicode="}" d="M8 24q72 0 83 54l28 139q9 42 38.5 71.5t70.5 42.5v2q-27 10 -45 37.5t-18 69.5q0 14 3 32l20 105q1 4 1 12q0 42 -64 42q-13 0 -25 -2l24 124q20 2 44 2q23 0 47.5 -5t54 -18.5t48 -43t18.5 -71.5q0 -11 -4 -39l-14 -76q-3 -15 -3 -26q0 -31 18.5 -49.5t50.5 -20.5 l-29 -150q-11 0 -24 -4t-29.5 -13.5t-30.5 -31t-20 -50.5l-22 -110q-30 -147 -228 -147q-12 0 -42 2l24 124q14 -2 25 -2z"/>
<glyph glyph-name="asciitilde" horiz-adv-x="622" unicode="~" d="M43 191q0 203 174 203q31 0 58.5 -12.5t43 -27.5t34.5 -27.5t36 -12.5q25 0 40 19.5t15 56.5h133q0 -203 -173 -203q-31 0 -58.5 12.5t-43 27.5t-35 27.5t-36.5 12.5q-24 0 -39 -19.5t-15 -56.5h-134z"/>
<glyph glyph-name="uni00A0" horiz-adv-x="250" unicode=" "/>
<glyph glyph-name="exclamdown" horiz-adv-x="291" unicode="¡" d="M-41 -200l112 494h148l-80 -494h-180zM78 365l29 150h158l-29 -150h-158z"/>
<glyph glyph-name="cent" d="M192 -12l18 92q-74 23 -119 85.5t-45 150.5q0 69 24.5 128.5t64.5 100t87.5 65.5t96.5 32l16 84h110l-17 -91q57 -14 100 -61t54 -107l-155 -56q-5 32 -25.5 52.5t-54.5 20.5q-45 0 -86 -47.5t-41 -115.5q0 -43 21.5 -66t56.5 -23q71 0 113 71l149 -63 q-41 -69 -103 -115.5t-139 -55.5l-16 -81h-110z" unicode="¢"/>
<glyph glyph-name="sterling" d="M-12 0l29 150h54l29 149h-43l22 112h42l22 110q18 92 91 149t173 57q55 0 106.5 -24t87.5 -66l-109 -108q-39 41 -90 41q-29 0 -53 -17.5t-30 -46.5l-19 -95h166l-22 -112h-165l-29 -149h290l-29 -150h-523z" unicode="£"/>
<glyph glyph-name="currency" horiz-adv-x="647" unicode="¤" d="M315 444h71q39 0 71.5 22t32.5 60q0 54 -74 54h-74zM54 0l28 142h-65l21 111h65l11 57h-65l26 134h65l53 271h272q102 0 153 -46.5t51 -127.5q0 -105 -79 -168.5t-194 -63.5h-107l-11 -56h244l-21 -111h-244l-28 -142h-175z"/>
<glyph glyph-name="yen" d="M151 0l33 167h-163l18 96h163l6 28l-15 49h-139l19 96h92l-83 279h191l28 -143l22 -133h2q29 68 66 133l79 143h208l-192 -279h93l-19 -96h-140l-33 -49l-6 -28h164l-18 -96h-164l-33 -167h-179z" unicode="¥"/>
<glyph glyph-name="section" horiz-adv-x="529" unicode="§" d="M-15 20l86 98q21 -19 57 -30.5t70 -11.5q60 0 89 33.5t29 92.5q0 16 -1 24l-22 260h126l22 -263q1 -10 1 -31q0 -110 -64 -182t-180 -72q-59 0 -116 21.5t-97 60.5zM125 179l-22 263q-1 10 -1 31q0 110 64 182t180 72q126 0 213 -82l-86 -98q-47 42 -127 42 q-60 0 -89 -33.5t-29 -92.5q0 -16 1 -24l22 -260h-126z"/>
<glyph glyph-name="dieresis" horiz-adv-x="485" unicode="¨" d="M8 771l28 140h126l-28 -140h-126zM217 771l28 140h126l-28 -140h-126z"/>
<glyph glyph-name="copyright" horiz-adv-x="820" unicode="©" d="M250 355q0 78 51 132.5t121 54.5q57 0 101 -30.5t61 -84.5l-100 -39q-6 20 -21.5 34.5t-36.5 14.5q-23 0 -41 -23t-18 -59q0 -39 16.5 -60.5t42.5 -21.5q20 0 35.5 13.5t22.5 35.5l100 -39q-16 -47 -57 -81t-105 -34q-70 0 -121 54.5t-51 132.5zM174 358 q0 -112 71 -189.5t175 -77.5q106 0 178.5 77.5t72.5 189.5q0 111 -72.5 188t-178.5 77q-104 0 -175 -77t-71 -188zM61 358q0 153 105 260.5t254 107.5q151 0 257 -107.5t106 -260.5t-106 -261.5t-257 -108.5q-148 0 -253.5 108.5t-105.5 261.5z"/>
<glyph glyph-name="ordfeminine" horiz-adv-x="431" unicode="ª" d="M57 268l16 85h305l-17 -85h-304zM233 472q18 0 34 14t19 31l1 5h-10q-64 0 -64 -35q0 -15 20 -15zM185 383q-38 0 -65 24t-27 63q0 34 17 58.5t39 36.5t53.5 19t50.5 8.5t39 1.5h10q3 11 3 17q0 27 -41 27q-32 0 -86 -25l-25 78q60 34 148 34q60 0 90.5 -28t30.5 -79 q0 -15 -3 -33l-38 -195h-108l7 39h-2q-13 -19 -38.5 -32.5t-54.5 -13.5z"/>
<glyph glyph-name="guillemotleft" horiz-adv-x="664" unicode="«" d="M158 77l-130 205l191 206h164l-202 -213l130 -198h-153zM418 77l-130 205l213 206h167l-227 -213l130 -198h-153z"/>
<glyph glyph-name="logicalnot" horiz-adv-x="652" unicode="¬" d="M65 337v130h506v-335h-135v205h-371z"/>
<glyph glyph-name="uni00AD" horiz-adv-x="433" unicode="­" d="M42 212l29 150h314l-29 -150h-314z"/>
<glyph glyph-name="registered" horiz-adv-x="820" unicode="®" d="M398 377h27q40 0 40 42q0 41 -38 41h-29v-83zM290 187v347h163q56 0 89 -31t33 -84q0 -37 -19.5 -60.5t-38.5 -28.5v-2q4 -3 13 -20l63 -121h-118l-49 118h-28v-118h-108zM174 358q0 -112 71 -189.5t175 -77.5q106 0 178.5 77.5t72.5 189.5q0 111 -72.5 188t-178.5 77 q-104 0 -175 -77t-71 -188zM61 358q0 153 105 260.5t254 107.5q151 0 257 -107.5t106 -260.5t-106 -261.5t-257 -108.5q-148 0 -253.5 108.5t-105.5 261.5z"/>
<glyph glyph-name="macron" horiz-adv-x="485" unicode="¯" d="M42 782l22 112h275l-22 -112h-275z"/>
<glyph glyph-name="degree" horiz-adv-x="437" unicode="°" d="M261 505q23 0 42.5 17.5t19.5 40.5q0 21 -14 34t-37 13q-24 0 -42.5 -18.5t-18.5 -41.5q0 -20 13.5 -32.5t36.5 -12.5zM253 385q-74 0 -121 44t-47 111q0 74 60.5 132t134.5 58t121.5 -44.5t47.5 -111.5q0 -75 -61 -132t-135 -57z"/>
<glyph glyph-name="plusminus" d="M1 -70h526v-130h-526v130zM196 0v222h-205v130h205v223h136v-223h205v-130h-205v-222h-136z" unicode="±"/>
<glyph glyph-name="twosuperior" horiz-adv-x="400" unicode="²" d="M63 423q0 55 18.5 98.5t47 68t61 45.5t61 33.5t47 29t18.5 34.5q0 13 -11.5 20t-27.5 7q-33 0 -80 -45l-75 78q80 82 166 82q63 0 111 -33.5t48 -95.5q0 -34 -15.5 -63.5t-38.5 -48t-50.5 -34.5t-52 -26.5t-43 -21.5t-22.5 -20h186l-21 -108h-327z"/>
<glyph glyph-name="threesuperior" horiz-adv-x="400" unicode="³" d="M223 413q-100 0 -162 68l72 83q12 -15 37 -25.5t54 -10.5q27 0 43.5 12.5t16.5 32.5q0 16 -15.5 24.5t-39.5 8.5h-37l-18 57l74 69l28 23v2q-21 -2 -34 -2h-103l21 109h294l-15 -79l-99 -92q35 -12 54.5 -44t19.5 -72q0 -64 -52 -114t-139 -50z"/>
<glyph glyph-name="acute" horiz-adv-x="484" unicode="´" d="M44 761l111 150h177l-148 -150h-140z"/>
<glyph glyph-name="mu" horiz-adv-x="633" unicode="µ" d="M139 -96l-20 -104h-147l139 715h173l-58 -296q-3 -18 -3 -30q0 -44 46 -44q48 0 85.5 42t48.5 100l44 228h173l-100 -515h-167l5 26l13 51h-2q-23 -37 -69 -63t-97 -26q-26 0 -53 5h-2q-1 -49 -9 -89z"/>
<glyph glyph-name="mu" horiz-adv-x="633" unicode="μ" d="M139 -96l-20 -104h-147l139 715h173l-58 -296q-3 -18 -3 -30q0 -44 46 -44q48 0 85.5 42t48.5 100l44 228h173l-100 -515h-167l5 26l13 51h-2q-23 -37 -69 -63t-97 -26q-26 0 -53 5h-2q-1 -49 -9 -89z"/>
<glyph glyph-name="paragraph" horiz-adv-x="678" unicode="¶" d="M384 -50l110 565h120l-110 -565h-120zM202 -50l57 291q-76 0 -134 60.5t-58 149.5q0 107 83 185.5t186 78.5h372l-29 -150h-237l-120 -615h-120z"/>
<glyph glyph-name="periodcentered" horiz-adv-x="278" unicode="·" d="M43 213l31 164h158l-31 -164h-158z"/>
<glyph glyph-name="cedilla" horiz-adv-x="484" unicode="¸" d="M106 -82l57 111l70 -17l-21 -48q24 -5 43 -21t19 -45q0 -56 -40.5 -82t-91.5 -26q-39 0 -75 9l16 85q16 -8 44 -8q43 0 43 26q0 18 -37 18q-7 0 -27 -2z"/>
<glyph glyph-name="onesuperior" horiz-adv-x="400" unicode="¹" d="M83 423l21 108h89l26 136l10 32h-2q-7 -10 -14 -15l-27 -20l-59 84l148 116h108l-64 -333h90l-21 -108h-305z"/>
<glyph glyph-name="ordmasculine" horiz-adv-x="477" unicode="º" d="M64 268l17 85h338l-17 -85h-338zM276 488q30 0 53.5 23t23.5 59q0 24 -14.5 38.5t-36.5 14.5q-29 0 -53.5 -24t-24.5 -60q0 -24 14.5 -37.5t37.5 -13.5zM266 385q-71 0 -116.5 40t-45.5 106q0 83 63 138.5t144 55.5q71 0 116.5 -40t45.5 -106q0 -83 -63 -138.5 t-144 -55.5z"/>
<glyph glyph-name="guillemotright" horiz-adv-x="664" unicode="»" d="M-10 77l227 213l-130 198h153l130 -205l-213 -206h-167zM275 77l202 213l-130 198h153l130 -205l-191 -206h-164z"/>
<glyph glyph-name="onequarter" horiz-adv-x="1020" unicode="¼" d="M51 274l21 108h89l26 136l10 32h-2q-7 -10 -14 -15l-27 -20l-59 84l148 116h108l-64 -333h90l-21 -108h-305zM344 0h-126l474 715h126zM717 194h70l18 90l14 50h-2q-14 -28 -30 -46l-70 -92v-2zM750 0l17 87h-196l15 84l216 270h157l-48 -247h53l-20 -107h-53l-17 -87 h-124z"/>
<glyph glyph-name="onehalf" horiz-adv-x="1010" unicode="½" d="M587 0q0 55 18.5 98.5t47 68t61 45.5t61 33.5t47 29t18.5 34.5q0 13 -11.5 20t-27.5 7q-33 0 -80 -45l-75 78q80 82 166 82q63 0 111 -33.5t48 -95.5q0 -34 -15.5 -63.5t-38.5 -48t-50.5 -34.5t-52 -26.5t-43 -21.5t-22.5 -20h186l-21 -108h-327zM49 274l21 108h89 l26 136l10 32h-2q-7 -10 -14 -15l-27 -20l-59 84l148 116h108l-64 -333h90l-21 -108h-305zM346 0h-126l474 715h126z"/>
<glyph glyph-name="threequarters" horiz-adv-x="1023" unicode="¾" d="M719 194h70l18 90l14 50h-2q-14 -28 -30 -46l-70 -92v-2zM752 0l17 87h-196l15 84l216 270h157l-48 -247h53l-20 -107h-53l-17 -87h-124zM346 0h-126l474 715h126zM203 264q-100 0 -162 68l72 83q12 -15 37 -25.5t54 -10.5q27 0 43.5 12.5t16.5 32.5q0 16 -15.5 24.5 t-39.5 8.5h-37l-18 57l74 69l28 23v2q-21 -2 -34 -2h-103l21 109h294l-15 -79l-99 -92q35 -12 54.5 -44t19.5 -72q0 -64 -52 -114t-139 -50z"/>
<glyph glyph-name="questiondown" horiz-adv-x="512" unicode="¿" d="M-23 -30q0 49 21.5 90t53 67t63 48t56.5 44t29 44l6 31h166l-8 -45q-9 -48 -43 -88t-69.5 -62t-64 -49t-28.5 -54q0 -22 17 -35.5t43 -13.5q44 0 103 43l79 -127q-37 -29 -95.5 -51t-114.5 -22q-88 0 -151 48t-63 132zM223 365l29 150h158l-29 -150h-158z"/>
<glyph glyph-name="Agrave" horiz-adv-x="668" unicode="À" d="M354 761l-88 150h165l51 -150h-128zM270 290h141l-14 139l-6 123h-2q-29 -78 -51 -123zM-57 0l372 715h201l99 -715h-175l-15 150h-223l-72 -150h-187z"/>
<glyph glyph-name="Aacute" horiz-adv-x="668" unicode="Á" d="M351 761l111 150h177l-148 -150h-140zM270 290h141l-14 139l-6 123h-2q-29 -78 -51 -123zM-57 0l372 715h201l99 -715h-175l-15 150h-223l-72 -150h-187z"/>
<glyph glyph-name="Acircumflex" horiz-adv-x="668" unicode="Â" d="M238 761l129 150h168l69 -150h-130l-31 82h-2l-63 -82h-140zM270 290h141l-14 139l-6 123h-2q-29 -78 -51 -123zM-57 0l372 715h201l99 -715h-175l-15 150h-223l-72 -150h-187z"/>
<glyph glyph-name="Atilde" horiz-adv-x="668" unicode="Ã" d="M233 761q31 153 149 153q21 0 38 -9.5t26.5 -20.5t21 -20.5t22.5 -9.5q34 0 44 57h113q-30 -153 -148 -153q-25 0 -45 15t-35.5 30t-28.5 15q-32 0 -44 -57h-113zM270 290h141l-14 139l-6 123h-2q-29 -78 -51 -123zM-57 0l372 715h201l99 -715h-175l-15 150h-223 l-72 -150h-187z"/>
<glyph glyph-name="Adieresis" horiz-adv-x="668" unicode="Ä" d="M261 771l28 140h126l-28 -140h-126zM470 771l28 140h126l-28 -140h-126zM270 290h141l-14 139l-6 123h-2q-29 -78 -51 -123zM-57 0l372 715h201l99 -715h-175l-15 150h-223l-72 -150h-187z"/>
<glyph glyph-name="Aring" horiz-adv-x="668" unicode="Å" d="M433 797q18 0 30.5 12.5t12.5 30.5q0 28 -29 28q-17 0 -29.5 -12.5t-12.5 -32.5q0 -26 28 -26zM428 747q-41 0 -70 19t-29 54q0 47 37.5 72.5t84.5 25.5q42 0 71 -19.5t29 -56.5q0 -46 -38.5 -70.5t-84.5 -24.5zM270 290h141l-14 139l-6 123h-2q-29 -78 -51 -123zM-57 0 l372 715h201l99 -715h-175l-15 150h-223l-72 -150h-187z"/>
<glyph glyph-name="AE" horiz-adv-x="963" unicode="Æ" d="M378 428h112l26 137h-58zM-64 0l432 715h626l-29 -150h-273l-25 -130h218l-30 -150h-218l-26 -135h286l-29 -150h-461l56 288h-166l-167 -288h-194z"/>
<glyph glyph-name="Ccedilla" horiz-adv-x="717" unicode="Ç" d="M261 -82l39 77q-119 22 -187 105.5t-68 204.5q0 173 124 297.5t296 124.5q79 0 153 -25.5t123 -77.5l-99 -120q-74 63 -171 63q-111 0 -178 -78t-67 -172q0 -73 42.5 -121t123.5 -48q102 0 209 85l68 -139q-51 -46 -130.5 -76t-156.5 -30h-5l-10 -24q24 -5 43 -21t19 -45 q0 -56 -40.5 -82t-91.5 -26q-39 0 -75 9l16 85q16 -8 44 -8q43 0 43 26q0 18 -37 18q-7 0 -27 -2z"/>
<glyph glyph-name="Egrave" horiz-adv-x="575" unicode="È" d="M326 761l-88 150h165l51 -150h-128zM18 0l140 715h447l-29 -150h-273l-25 -130h217l-30 -150h-217l-26 -135h287l-29 -150h-462z"/>
<glyph glyph-name="Eacute" horiz-adv-x="575" unicode="É" d="M323 761l111 150h177l-148 -150h-140zM18 0l140 715h447l-29 -150h-273l-25 -130h217l-30 -150h-217l-26 -135h287l-29 -150h-462z"/>
<glyph glyph-name="Ecircumflex" horiz-adv-x="575" unicode="Ê" d="M210 761l129 150h168l69 -150h-130l-31 82h-2l-63 -82h-140zM18 0l140 715h447l-29 -150h-273l-25 -130h217l-30 -150h-217l-26 -135h287l-29 -150h-462z"/>
<glyph glyph-name="Edieresis" horiz-adv-x="575" unicode="Ë" d="M233 771l28 140h126l-28 -140h-126zM442 771l28 140h126l-28 -140h-126zM18 0l140 715h447l-29 -150h-273l-25 -130h217l-30 -150h-217l-26 -135h287l-29 -150h-462z"/>
<glyph glyph-name="Igrave" horiz-adv-x="327" unicode="Ì" d="M182 761l-88 150h165l51 -150h-128zM18 0l139 715h175l-139 -715h-175z"/>
<glyph glyph-name="Iacute" horiz-adv-x="327" unicode="Í" d="M178 761l111 150h177l-148 -150h-140zM18 0l139 715h175l-139 -715h-175z"/>
<glyph glyph-name="Icircumflex" horiz-adv-x="327" unicode="Î" d="M65 761l129 150h168l69 -150h-130l-31 82h-2l-63 -82h-140zM18 0l139 715h175l-139 -715h-175z"/>
<glyph glyph-name="Idieresis" horiz-adv-x="327" unicode="Ï" d="M88 771l28 140h126l-28 -140h-126zM297 771l28 140h126l-28 -140h-126zM18 0l139 715h175l-139 -715h-175z"/>
<glyph glyph-name="Eth" horiz-adv-x="742" unicode="Ð" d="M227 150h72q108 0 175 77t67 189q0 73 -42.5 111t-118.5 38h-72l-28 -141h104l-27 -140h-104zM23 0l55 284h-57l27 140h57l56 291h229q156 0 243.5 -74.5t87.5 -208.5q0 -182 -118 -307t-301 -125h-279z"/>
<glyph glyph-name="Ntilde" horiz-adv-x="749" unicode="Ñ" d="M270 761q31 153 149 153q21 0 38 -9.5t26.5 -20.5t21 -20.5t22.5 -9.5q33 0 44 57h113q-30 -153 -148 -153q-25 0 -45 15t-35.5 30t-28.5 15q-32 0 -44 -57h-113zM18 0l139 715h170l133 -334q8 -21 17 -51.5t14 -50.5l5 -20h2q7 77 16 122l65 334h175l-139 -715h-169 l-134 333q-8 21 -17.5 51.5t-14.5 50.5l-5 20h-2q-6 -77 -15 -122l-65 -333h-175z"/>
<glyph glyph-name="Ograve" horiz-adv-x="820" unicode="Ò" d="M427 761l-88 150h165l51 -150h-128zM224 317q0 -75 44 -122t114 -47q91 0 164 75.5t73 180.5q0 73 -44 118t-114 45q-92 0 -164.5 -73.5t-72.5 -176.5zM44 307q0 111 58.5 208.5t155.5 154.5t205 57q152 0 244.5 -87.5t92.5 -224.5q0 -113 -59.5 -212t-156.5 -157 t-204 -58q-152 0 -244 89.5t-92 229.5z"/>
<glyph glyph-name="Oacute" horiz-adv-x="820" unicode="Ó" d="M424 761l111 150h177l-148 -150h-140zM224 317q0 -75 44 -122t114 -47q91 0 164 75.5t73 180.5q0 73 -44 118t-114 45q-92 0 -164.5 -73.5t-72.5 -176.5zM44 307q0 111 58.5 208.5t155.5 154.5t205 57q152 0 244.5 -87.5t92.5 -224.5q0 -113 -59.5 -212t-156.5 -157 t-204 -58q-152 0 -244 89.5t-92 229.5z"/>
<glyph glyph-name="Ocircumflex" horiz-adv-x="820" unicode="Ô" d="M311 761l129 150h168l69 -150h-130l-31 82h-2l-63 -82h-140zM224 317q0 -75 44 -122t114 -47q91 0 164 75.5t73 180.5q0 73 -44 118t-114 45q-92 0 -164.5 -73.5t-72.5 -176.5zM44 307q0 111 58.5 208.5t155.5 154.5t205 57q152 0 244.5 -87.5t92.5 -224.5 q0 -113 -59.5 -212t-156.5 -157t-204 -58q-152 0 -244 89.5t-92 229.5z"/>
<glyph glyph-name="Otilde" horiz-adv-x="820" unicode="Õ" d="M306 761q31 153 149 153q21 0 38 -9.5t26.5 -20.5t21 -20.5t22.5 -9.5q33 0 44 57h113q-30 -153 -148 -153q-25 0 -45 15t-35.5 30t-28.5 15q-32 0 -44 -57h-113zM224 317q0 -75 44 -122t114 -47q91 0 164 75.5t73 180.5q0 73 -44 118t-114 45q-92 0 -164.5 -73.5 t-72.5 -176.5zM44 307q0 111 58.5 208.5t155.5 154.5t205 57q152 0 244.5 -87.5t92.5 -224.5q0 -113 -59.5 -212t-156.5 -157t-204 -58q-152 0 -244 89.5t-92 229.5z"/>
<glyph glyph-name="Odieresis" horiz-adv-x="820" unicode="Ö" d="M334 771l28 140h126l-28 -140h-126zM543 771l28 140h126l-28 -140h-126zM224 317q0 -75 44 -122t114 -47q91 0 164 75.5t73 180.5q0 73 -44 118t-114 45q-92 0 -164.5 -73.5t-72.5 -176.5zM44 307q0 111 58.5 208.5t155.5 154.5t205 57q152 0 244.5 -87.5t92.5 -224.5 q0 -113 -59.5 -212t-156.5 -157t-204 -58q-152 0 -244 89.5t-92 229.5z"/>
<glyph glyph-name="multiply" d="M26 92l182 195l-182 196l92 92l179 -192l180 192l92 -92l-183 -196l183 -195l-92 -92l-180 192l-179 -192z" unicode="×"/>
<glyph glyph-name="Oslash" horiz-adv-x="820" unicode="Ø" d="M296 171q37 -23 86 -23q91 0 164 75.5t73 180.5q0 49 -23 90zM241 235l293 316q-34 16 -73 16q-92 0 -164.5 -73.5t-72.5 -176.5q0 -46 17 -82zM46 25l69 74q-71 85 -71 208q0 111 58.5 208.5t155.5 154.5t205 57q109 0 191 -48l59 64l65 -52l-59 -64q81 -84 81 -212 q0 -113 -59.5 -212t-156.5 -157t-204 -58q-119 0 -203 56l-66 -72z"/>
<glyph glyph-name="Ugrave" horiz-adv-x="734" unicode="Ù" d="M385 761l-88 150h165l51 -150h-128zM56 210q0 28 6 58l87 447h175l-88 -452q-3 -15 -3 -28q0 -42 28 -64.5t77 -22.5q58 0 96.5 29.5t49.5 85.5l88 452h175l-89 -457q-24 -122 -111.5 -196t-214.5 -74q-118 0 -197 59t-79 163z"/>
<glyph glyph-name="Uacute" horiz-adv-x="734" unicode="Ú" d="M382 761l111 150h177l-148 -150h-140zM56 210q0 28 6 58l87 447h175l-88 -452q-3 -15 -3 -28q0 -42 28 -64.5t77 -22.5q58 0 96.5 29.5t49.5 85.5l88 452h175l-89 -457q-24 -122 -111.5 -196t-214.5 -74q-118 0 -197 59t-79 163z"/>
<glyph glyph-name="Ucircumflex" horiz-adv-x="734" unicode="Û" d="M269 761l129 150h168l69 -150h-130l-31 82h-2l-63 -82h-140zM56 210q0 28 6 58l87 447h175l-88 -452q-3 -15 -3 -28q0 -42 28 -64.5t77 -22.5q58 0 96.5 29.5t49.5 85.5l88 452h175l-89 -457q-24 -122 -111.5 -196t-214.5 -74q-118 0 -197 59t-79 163z"/>
<glyph glyph-name="Udieresis" horiz-adv-x="734" unicode="Ü" d="M292 771l28 140h126l-28 -140h-126zM501 771l28 140h126l-28 -140h-126zM56 210q0 28 6 58l87 447h175l-88 -452q-3 -15 -3 -28q0 -42 28 -64.5t77 -22.5q58 0 96.5 29.5t49.5 85.5l88 452h175l-89 -457q-24 -122 -111.5 -196t-214.5 -74q-118 0 -197 59t-79 163z"/>
<glyph glyph-name="Yacute" horiz-adv-x="625" unicode="Ý" d="M321 761l111 150h177l-148 -150h-140zM162 0l57 293l-149 422h189l48 -172l23 -103h2q31 53 63 103l109 172h210l-322 -429l-55 -286h-175z"/>
<glyph glyph-name="Thorn" horiz-adv-x="631" unicode="Þ" d="M245 265h85q51 0 82 35.5t31 89.5q0 32 -18.5 50.5t-53.5 18.5h-89zM18 0l139 715h175l-21 -106h99q100 0 156.5 -55t56.5 -148q0 -122 -80.5 -206.5t-193.5 -84.5h-134l-22 -115h-175z"/>
<glyph glyph-name="germandbls" horiz-adv-x="626" unicode="ß" d="M1 0l104 537q17 90 94 140t173 50q94 0 156.5 -46.5t62.5 -122.5q0 -39 -16.5 -71t-36 -48t-36 -35t-16.5 -35q0 -18 15 -39t33.5 -38t33.5 -46t15 -61q0 -80 -65 -136t-150 -56q-82 0 -135 21l28 139q38 -16 91 -16q22 0 40 11t18 36q0 18 -15.5 38.5t-34.5 37 t-34.5 42.5t-15.5 54t11 53t27 42t31.5 32t26.5 30t11 28q0 19 -14 30.5t-39 11.5q-77 0 -90 -68l-100 -515h-173z"/>
<glyph glyph-name="agrave" horiz-adv-x="547" unicode="à" d="M249 565l-88 150h165l51 -150h-128zM161 153q0 -36 43 -36q33 0 64.5 28.5t37.5 60.5l3 16h-18q-18 0 -36.5 -2.5t-41.5 -9t-37.5 -21.5t-14.5 -36zM-8 124q0 54 31.5 94.5t83 61.5t105 31t107.5 10h8q3 14 3 21q0 45 -66 45q-55 0 -149 -47l-37 130q34 19 97.5 38 t122.5 19q36 0 69 -8t65 -25t51 -51t19 -80q0 -20 -5 -50l-60 -313h-158l6 31l9 32h-2q-22 -28 -61.5 -51.5t-90.5 -23.5q-61 0 -104.5 36.5t-43.5 99.5z"/>
<glyph glyph-name="aacute" horiz-adv-x="547" unicode="á" d="M246 565l111 150h177l-148 -150h-140zM161 153q0 -36 43 -36q33 0 64.5 28.5t37.5 60.5l3 16h-18q-18 0 -36.5 -2.5t-41.5 -9t-37.5 -21.5t-14.5 -36zM-8 124q0 54 31.5 94.5t83 61.5t105 31t107.5 10h8q3 14 3 21q0 45 -66 45q-55 0 -149 -47l-37 130q34 19 97.5 38 t122.5 19q36 0 69 -8t65 -25t51 -51t19 -80q0 -20 -5 -50l-60 -313h-158l6 31l9 32h-2q-22 -28 -61.5 -51.5t-90.5 -23.5q-61 0 -104.5 36.5t-43.5 99.5z"/>
<glyph glyph-name="acircumflex" horiz-adv-x="547" unicode="â" d="M133 565l129 150h168l69 -150h-130l-31 82h-2l-63 -82h-140zM161 153q0 -36 43 -36q33 0 64.5 28.5t37.5 60.5l3 16h-18q-18 0 -36.5 -2.5t-41.5 -9t-37.5 -21.5t-14.5 -36zM-8 124q0 54 31.5 94.5t83 61.5t105 31t107.5 10h8q3 14 3 21q0 45 -66 45q-55 0 -149 -47 l-37 130q34 19 97.5 38t122.5 19q36 0 69 -8t65 -25t51 -51t19 -80q0 -20 -5 -50l-60 -313h-158l6 31l9 32h-2q-22 -28 -61.5 -51.5t-90.5 -23.5q-61 0 -104.5 36.5t-43.5 99.5z"/>
<glyph glyph-name="atilde" horiz-adv-x="547" unicode="ã" d="M128 565q31 153 149 153q21 0 38 -9.5t26.5 -20.5t21 -20.5t22.5 -9.5q33 0 44 57h113q-30 -153 -148 -153q-25 0 -45 15t-35.5 30t-28.5 15q-32 0 -44 -57h-113zM161 153q0 -36 43 -36q33 0 64.5 28.5t37.5 60.5l3 16h-18q-18 0 -36.5 -2.5t-41.5 -9t-37.5 -21.5 t-14.5 -36zM-8 124q0 54 31.5 94.5t83 61.5t105 31t107.5 10h8q3 14 3 21q0 45 -66 45q-55 0 -149 -47l-37 130q34 19 97.5 38t122.5 19q36 0 69 -8t65 -25t51 -51t19 -80q0 -20 -5 -50l-60 -313h-158l6 31l9 32h-2q-22 -28 -61.5 -51.5t-90.5 -23.5q-61 0 -104.5 36.5 t-43.5 99.5z"/>
<glyph glyph-name="adieresis" horiz-adv-x="547" unicode="ä" d="M156 575l28 140h126l-28 -140h-126zM365 575l28 140h126l-28 -140h-126zM161 153q0 -36 43 -36q33 0 64.5 28.5t37.5 60.5l3 16h-18q-18 0 -36.5 -2.5t-41.5 -9t-37.5 -21.5t-14.5 -36zM-8 124q0 54 31.5 94.5t83 61.5t105 31t107.5 10h8q3 14 3 21q0 45 -66 45 q-55 0 -149 -47l-37 130q34 19 97.5 38t122.5 19q36 0 69 -8t65 -25t51 -51t19 -80q0 -20 -5 -50l-60 -313h-158l6 31l9 32h-2q-22 -28 -61.5 -51.5t-90.5 -23.5q-61 0 -104.5 36.5t-43.5 99.5z"/>
<glyph glyph-name="aring" horiz-adv-x="547" unicode="å" d="M328 601q18 0 30.5 12.5t12.5 30.5q0 28 -29 28q-17 0 -29.5 -12.5t-12.5 -32.5q0 -26 28 -26zM323 551q-41 0 -70 19t-29 54q0 47 37.5 72.5t84.5 25.5q42 0 71 -19.5t29 -56.5q0 -46 -38.5 -70.5t-84.5 -24.5zM161 153q0 -36 43 -36q33 0 64.5 28.5t37.5 60.5l3 16h-18 q-18 0 -36.5 -2.5t-41.5 -9t-37.5 -21.5t-14.5 -36zM-8 124q0 54 31.5 94.5t83 61.5t105 31t107.5 10h8q3 14 3 21q0 45 -66 45q-55 0 -149 -47l-37 130q34 19 97.5 38t122.5 19q36 0 69 -8t65 -25t51 -51t19 -80q0 -20 -5 -50l-60 -313h-158l6 31l9 32h-2 q-22 -28 -61.5 -51.5t-90.5 -23.5q-61 0 -104.5 36.5t-43.5 99.5z"/>
<glyph glyph-name="ae" horiz-adv-x="852" unicode="æ" d="M165 153q0 -33 42 -33q33 0 64.5 29t37.5 62l2 13h-16q-17 0 -36.5 -3t-42 -9.5t-37 -22t-14.5 -36.5zM500 323h152q1 12 1 18q0 25 -14.5 40.5t-40.5 15.5q-69 0 -98 -74zM-9 121q0 55 32.5 96.5t84.5 63.5t106 32t108 10h7q2 10 2 18q0 46 -65 46t-149 -47l-37 130 q112 57 220 57q87 0 146 -53h2q72 53 153 53q107 0 163.5 -55t56.5 -147q0 -47 -19 -101h-325q0 -12 4 -30q17 -62 97 -62q74 0 153 52l44 -129q-32 -25 -92 -46t-116 -21q-143 0 -214 91h-2q-7 -11 -17.5 -22.5t-32.5 -29t-58.5 -28.5t-80.5 -11q-71 0 -121 35.5t-50 97.5z "/>
<glyph glyph-name="ccedilla" horiz-adv-x="555" unicode="ç" d="M162 -82l40 78q-88 18 -135.5 80t-47.5 148q0 117 91 210t231 93q134 0 210 -76l-87 -108q-21 18 -53.5 29t-61.5 11q-68 0 -111.5 -46.5t-43.5 -102.5q0 -43 27 -72.5t79 -29.5q67 0 154 62l44 -131q-39 -32 -100 -53t-120 -22l-10 -24q24 -5 43 -21t19 -45 q0 -56 -40.5 -82t-91.5 -26q-39 0 -75 9l16 85q16 -8 44 -8q43 0 43 26q0 18 -37 18q-7 0 -27 -2z"/>
<glyph glyph-name="egrave" horiz-adv-x="566" unicode="è" d="M215 323h152q1 6 1 18q0 27 -14.5 43t-40.5 16q-70 0 -98 -77zM272 565l-88 150h165l51 -150h-128zM19 213q0 134 85 224t212 90q107 0 163.5 -55t56.5 -147q0 -42 -19 -101h-325v-6q0 -39 27 -62.5t74 -23.5q71 0 153 52l44 -129q-33 -26 -92.5 -46.5t-115.5 -20.5 q-126 0 -194.5 64.5t-68.5 160.5z"/>
<glyph glyph-name="eacute" horiz-adv-x="566" unicode="é" d="M215 323h152q1 6 1 18q0 27 -14.5 43t-40.5 16q-70 0 -98 -77zM269 565l111 150h177l-148 -150h-140zM19 213q0 134 85 224t212 90q107 0 163.5 -55t56.5 -147q0 -42 -19 -101h-325v-6q0 -39 27 -62.5t74 -23.5q71 0 153 52l44 -129q-33 -26 -92.5 -46.5t-115.5 -20.5 q-126 0 -194.5 64.5t-68.5 160.5z"/>
<glyph glyph-name="ecircumflex" horiz-adv-x="566" unicode="ê" d="M215 323h152q1 6 1 18q0 27 -14.5 43t-40.5 16q-70 0 -98 -77zM156 565l129 150h168l69 -150h-130l-31 82h-2l-63 -82h-140zM19 213q0 134 85 224t212 90q107 0 163.5 -55t56.5 -147q0 -42 -19 -101h-325v-6q0 -39 27 -62.5t74 -23.5q71 0 153 52l44 -129 q-33 -26 -92.5 -46.5t-115.5 -20.5q-126 0 -194.5 64.5t-68.5 160.5z"/>
<glyph glyph-name="edieresis" horiz-adv-x="566" unicode="ë" d="M215 323h152q1 6 1 18q0 27 -14.5 43t-40.5 16q-70 0 -98 -77zM388 575l28 140h126l-28 -140h-126zM179 575l28 140h126l-28 -140h-126zM19 213q0 134 85 224t212 90q107 0 163.5 -55t56.5 -147q0 -42 -19 -101h-325v-6q0 -39 27 -62.5t74 -23.5q71 0 153 52l44 -129 q-33 -26 -92.5 -46.5t-115.5 -20.5q-126 0 -194.5 64.5t-68.5 160.5z"/>
<glyph glyph-name="igrave" horiz-adv-x="289" unicode="ì" d="M124 565l-88 150h165l51 -150h-128zM1 0l99 515h173l-100 -515h-172z"/>
<glyph glyph-name="iacute" horiz-adv-x="289" unicode="í" d="M120 565l111 150h177l-148 -150h-140zM1 0l99 515h173l-100 -515h-172z"/>
<glyph glyph-name="icircumflex" horiz-adv-x="289" unicode="î" d="M8 565l129 150h168l69 -150h-130l-31 82h-2l-63 -82h-140zM1 0l99 515h173l-100 -515h-172z"/>
<glyph glyph-name="idieresis" horiz-adv-x="289" unicode="ï" d="M31 575l28 140h126l-28 -140h-126zM240 575l28 140h126l-28 -140h-126zM1 0l99 515h173l-100 -515h-172z"/>
<glyph glyph-name="eth" horiz-adv-x="589" unicode="ð" d="M190 204q0 -72 66 -72q51 0 84.5 43.5t33.5 93.5q0 29 -18 46t-52 17q-54 0 -84 -38t-30 -90zM15 202q0 102 79 182t200 80q17 0 36 -4t30 -8l10 -4h2q-15 37 -62 76l-213 -80l20 98l104 39q-49 25 -90 33l70 124q120 -31 201 -89l188 70l-19 -98l-98 -37q85 -98 85 -237 q0 -44 -10 -90.5t-33.5 -95t-57.5 -87t-86.5 -62.5t-115.5 -24q-114 0 -177 61t-63 153z"/>
<glyph glyph-name="ntilde" horiz-adv-x="627" unicode="ñ" d="M178 565q31 153 149 153q21 0 38 -9.5t26.5 -20.5t21 -20.5t22.5 -9.5q33 0 44 57h113q-30 -153 -148 -153q-25 0 -45 15t-35.5 30t-28.5 15q-32 0 -44 -57h-113zM1 0l100 515h167l-5 -26l-13 -51h2q23 36 72 62.5t100 26.5q73 0 117.5 -35t44.5 -111q0 -20 -7 -57 l-63 -324h-173l58 296q3 18 3 30q0 44 -46 44q-50 0 -89.5 -42t-50.5 -100l-44 -228h-173z"/>
<glyph glyph-name="ograve" horiz-adv-x="640" unicode="ò" d="M300 565l-88 150h165l51 -150h-128zM193 227q0 -44 26.5 -69.5t68.5 -25.5q55 0 99 43t44 110q0 45 -26.5 71.5t-67.5 26.5q-54 0 -99 -44.5t-45 -111.5zM18 219q0 131 97.5 219.5t223.5 88.5q117 0 192 -63.5t75 -167.5q0 -132 -98 -220t-223 -88q-118 0 -192.5 63 t-74.5 168z"/>
<glyph glyph-name="oacute" horiz-adv-x="640" unicode="ó" d="M297 565l111 150h177l-148 -150h-140zM193 227q0 -44 26.5 -69.5t68.5 -25.5q55 0 99 43t44 110q0 45 -26.5 71.5t-67.5 26.5q-54 0 -99 -44.5t-45 -111.5zM18 219q0 131 97.5 219.5t223.5 88.5q117 0 192 -63.5t75 -167.5q0 -132 -98 -220t-223 -88q-118 0 -192.5 63 t-74.5 168z"/>
<glyph glyph-name="ocircumflex" horiz-adv-x="640" unicode="ô" d="M184 565l129 150h168l69 -150h-130l-31 82h-2l-63 -82h-140zM193 227q0 -44 26.5 -69.5t68.5 -25.5q55 0 99 43t44 110q0 45 -26.5 71.5t-67.5 26.5q-54 0 -99 -44.5t-45 -111.5zM18 219q0 131 97.5 219.5t223.5 88.5q117 0 192 -63.5t75 -167.5q0 -132 -98 -220 t-223 -88q-118 0 -192.5 63t-74.5 168z"/>
<glyph glyph-name="otilde" horiz-adv-x="640" unicode="õ" d="M179 565q31 153 149 153q21 0 38 -9.5t26.5 -20.5t21 -20.5t22.5 -9.5q34 0 44 57h113q-30 -153 -148 -153q-25 0 -45 15t-35.5 30t-28.5 15q-32 0 -44 -57h-113zM193 227q0 -44 26.5 -69.5t68.5 -25.5q55 0 99 43t44 110q0 45 -26.5 71.5t-67.5 26.5q-54 0 -99 -44.5 t-45 -111.5zM18 219q0 131 97.5 219.5t223.5 88.5q117 0 192 -63.5t75 -167.5q0 -132 -98 -220t-223 -88q-118 0 -192.5 63t-74.5 168z"/>
<glyph glyph-name="odieresis" horiz-adv-x="640" unicode="ö" d="M207 575l28 140h126l-28 -140h-126zM416 575l28 140h126l-28 -140h-126zM193 227q0 -44 26.5 -69.5t68.5 -25.5q55 0 99 43t44 110q0 45 -26.5 71.5t-67.5 26.5q-54 0 -99 -44.5t-45 -111.5zM18 219q0 131 97.5 219.5t223.5 88.5q117 0 192 -63.5t75 -167.5 q0 -132 -98 -220t-223 -88q-118 0 -192.5 63t-74.5 168z"/>
<glyph glyph-name="divide" d="M225 0v135h146v-135h-146zM25 222v130h546v-130h-546zM225 440v135h146v-135h-146z" unicode="÷"/>
<glyph glyph-name="oslash" horiz-adv-x="640" unicode="ø" d="M258 135q14 -3 30 -3q55 0 99 43t44 110q0 12 -4 32zM199 189l175 187q-15 7 -37 7q-54 0 -99 -44.5t-45 -111.5q0 -22 6 -38zM23 1l57 61q-62 64 -62 157q0 131 97.5 219.5t223.5 88.5q83 0 145 -32l60 64l62 -50l-58 -62q58 -63 58 -151q0 -132 -98 -220t-223 -88 q-77 0 -138 28l-62 -66z"/>
<glyph glyph-name="ugrave" horiz-adv-x="620" unicode="ù" d="M287 565l-88 150h165l51 -150h-128zM25 134q0 20 7 57l63 324h173l-58 -296q-3 -18 -3 -30q0 -44 46 -44q48 0 85.5 42t48.5 100l44 228h173l-100 -515h-167l5 26l13 51h-2q-23 -37 -69 -63t-97 -26q-73 0 -117.5 35t-44.5 111z"/>
<glyph glyph-name="uacute" horiz-adv-x="620" unicode="ú" d="M284 565l111 150h177l-148 -150h-140zM25 134q0 20 7 57l63 324h173l-58 -296q-3 -18 -3 -30q0 -44 46 -44q48 0 85.5 42t48.5 100l44 228h173l-100 -515h-167l5 26l13 51h-2q-23 -37 -69 -63t-97 -26q-73 0 -117.5 35t-44.5 111z"/>
<glyph glyph-name="ucircumflex" horiz-adv-x="620" unicode="û" d="M171 565l129 150h168l69 -150h-130l-31 82h-2l-63 -82h-140zM25 134q0 20 7 57l63 324h173l-58 -296q-3 -18 -3 -30q0 -44 46 -44q48 0 85.5 42t48.5 100l44 228h173l-100 -515h-167l5 26l13 51h-2q-23 -37 -69 -63t-97 -26q-73 0 -117.5 35t-44.5 111z"/>
<glyph glyph-name="udieresis" horiz-adv-x="620" unicode="ü" d="M194 575l28 140h126l-28 -140h-126zM403 575l28 140h126l-28 -140h-126zM25 134q0 20 7 57l63 324h173l-58 -296q-3 -18 -3 -30q0 -44 46 -44q48 0 85.5 42t48.5 100l44 228h173l-100 -515h-167l5 26l13 51h-2q-23 -37 -69 -63t-97 -26q-73 0 -117.5 35t-44.5 111z"/>
<glyph glyph-name="yacute" horiz-adv-x="567" unicode="ý" d="M260 565l111 150h177l-148 -150h-140zM-4 -50q21 -16 51 -16q61 0 93 52l15 24l-121 505h180l42 -255l5 -76h2q18 45 31 73l115 258h194l-322 -570q-45 -79 -105 -117t-120 -38q-73 0 -135 40z"/>
<glyph glyph-name="thorn" horiz-adv-x="633" unicode="þ" d="M214 222q0 -40 20 -65.5t60 -25.5q49 0 89 44t40 115q0 42 -21.5 66.5t-58.5 24.5q-45 0 -87 -44.5t-42 -114.5zM172 -2l-38 -198h-172l177 915h170l-40 -208l-9 -33h2q55 53 137 53q92 0 145.5 -60.5t53.5 -163.5q0 -135 -86 -225t-196 -90q-37 0 -74.5 14t-60.5 40h-2 q-2 -18 -7 -44z"/>
<glyph glyph-name="OE" horiz-adv-x="989" unicode="Œ" d="M222 313q0 -73 46 -120t120 -47q39 0 74 7l79 409q-37 7 -70 7q-97 0 -173 -76t-76 -180zM43 306q0 111 61.5 208t159 153t202.5 56q48 0 94 -4t71 -4h388l-29 -150h-273l-25 -130h218l-30 -150h-218l-26 -135h288l-29 -150h-388q-19 0 -58 -4t-76 -4q-144 0 -237 89 t-93 225z"/>
<glyph glyph-name="oe" horiz-adv-x="974" unicode="œ" d="M193 227q0 -44 26.5 -69.5t68.5 -25.5q55 0 99 43t44 110q0 45 -26.5 71.5t-67.5 26.5q-54 0 -99 -44.5t-45 -111.5zM623 323h152q1 6 1 18q0 25 -14.5 40.5t-40.5 15.5q-69 0 -98 -74zM18 219q0 131 97.5 219.5t223.5 88.5q119 0 193 -80h2q80 80 190 80 q107 0 163.5 -55t56.5 -147q0 -47 -19 -101h-325q0 -12 4 -30q17 -62 97 -62q66 0 153 52l44 -129q-35 -26 -93.5 -46.5t-114.5 -20.5q-129 0 -199 83h-2q-89 -83 -204 -83q-118 0 -192.5 63t-74.5 168z"/>
<glyph glyph-name="Scaron" horiz-adv-x="580" unicode="Š" d="M303 761l-69 150h130l31 -82h2l63 82h140l-129 -150h-168zM-7 90l104 124q30 -29 76.5 -47t92.5 -18q32 0 59 15.5t27 47.5q0 17 -20 34t-49.5 31t-64 35t-64 44.5t-49.5 62t-20 85.5q0 101 80 162t186 61q154 0 244 -83l-94 -129q-26 21 -68.5 36t-84.5 15 q-32 0 -60 -16t-28 -46q0 -18 20 -35t50 -31t64.5 -34.5t64.5 -44t50 -62t20 -85.5q0 -93 -76 -158.5t-190 -65.5q-76 0 -150.5 26t-119.5 76z"/>
<glyph glyph-name="scaron" horiz-adv-x="468" unicode="š" d="M205 565l-69 150h130l31 -82h2l63 82h140l-129 -150h-168zM-17 58l82 116q23 -21 59.5 -33.5t72.5 -12.5q55 0 55 30q0 13 -21 24t-51 22.5t-60 27.5t-51 48.5t-21 77.5q0 75 62.5 122t155.5 47q104 0 189 -57l-68 -120q-47 37 -126 37q-53 0 -53 -29q0 -13 21 -23.5 t51 -21.5t60.5 -27.5t51.5 -50.5t21 -81q0 -75 -58 -120.5t-151 -45.5q-126 0 -221 70z"/>
<glyph glyph-name="Ydieresis" horiz-adv-x="625" unicode="Ÿ" d="M231 771l28 140h126l-28 -140h-126zM440 771l28 140h126l-28 -140h-126zM162 0l57 293l-149 422h189l48 -172l23 -103h2q31 53 63 103l109 172h210l-322 -429l-55 -286h-175z"/>
<glyph glyph-name="circumflex" horiz-adv-x="486" unicode="ˆ" d="M-14 761l129 150h168l69 -150h-130l-31 82h-2l-63 -82h-140z"/>
<glyph glyph-name="tilde" horiz-adv-x="485" unicode="˜" d="M-23 761q31 153 149 153q21 0 38 -9.5t26.5 -20.5t21 -20.5t22.5 -9.5q34 0 44 57h113q-30 -153 -148 -153q-25 0 -45 15t-35.5 30t-28.5 15q-32 0 -44 -57h-113z"/>
<glyph glyph-name="uni0400" horiz-adv-x="577" unicode="Ѐ" d="M354 761l-88 150h165l51 -150h-128zM18 0l140 715h447l-29 -150h-273l-25 -130h217l-30 -150h-217l-26 -135h287l-29 -150h-462z"/>
<glyph glyph-name="uni0401" horiz-adv-x="577" unicode="Ё" d="M229 771l28 140h126l-28 -140h-126zM438 771l28 140h126l-28 -140h-126zM18 0l140 715h447l-29 -150h-273l-25 -130h217l-30 -150h-217l-26 -135h287l-29 -150h-462z"/>
<glyph glyph-name="uni0402" horiz-adv-x="761" unicode="Ђ" d="M127 0l110 565h-176l29 150h567l-29 -150h-216l-21 -108l-9 -32h2q62 31 153 31q90 0 143 -55t53 -141q0 -107 -77 -189.5t-196 -82.5q-24 0 -56 3l29 145q7 -2 19 -2q44 0 74.5 28.5t30.5 68.5q0 33 -22.5 52t-63.5 19q-59 0 -117 -33l-52 -269h-175z"/>
<glyph glyph-name="uni0403" horiz-adv-x="526" unicode="Ѓ" d="M284 761l111 150h177l-148 -150h-140zM18 0l139 715h438l-29 -150h-263l-110 -565h-175z"/>
<glyph glyph-name="uni0404" horiz-adv-x="721" unicode="Є" d="M43 300q0 110 57.5 208t159.5 158.5t222 60.5q73 0 144 -25t116 -74l-95 -131q-31 32 -78 52t-94 20q-74 0 -131 -38.5t-89 -102.5h291l-27 -140h-294q3 -142 167 -142q103 0 207 81l75 -130q-54 -48 -139 -78.5t-166 -30.5q-151 0 -238.5 86.5t-87.5 225.5z"/>
<glyph glyph-name="uni0405" horiz-adv-x="580" unicode="Ѕ" d="M-7 90l104 124q30 -29 76.5 -47t92.5 -18q32 0 59 15.5t27 47.5q0 17 -20 34t-49.5 31t-64 35t-64 44.5t-49.5 62t-20 85.5q0 101 80 162t186 61q154 0 244 -83l-94 -129q-26 21 -68.5 36t-84.5 15q-32 0 -60 -16t-28 -46q0 -18 20 -35t50 -31t64.5 -34.5t64.5 -44 t50 -62t20 -85.5q0 -93 -76 -158.5t-190 -65.5q-76 0 -150.5 26t-119.5 76z"/>
<glyph glyph-name="uni0406" horiz-adv-x="327" unicode="І" d="M18 0l139 715h175l-139 -715h-175z"/>
<glyph glyph-name="uni0407" horiz-adv-x="327" unicode="Ї" d="M89 771l28 140h126l-28 -140h-126zM298 771l28 140h126l-28 -140h-126zM18 0l139 715h175l-139 -715h-175z"/>
<glyph glyph-name="uni0408" horiz-adv-x="563" unicode="Ј" d="M-3 178q0 28 5 52l8 42h175l-7 -37q-4 -24 -4 -33q0 -54 53 -54q62 0 76 75l67 342h-191l29 150h366l-98 -505q-21 -108 -91 -165t-162 -57q-94 0 -160 50t-66 140z"/>
<glyph glyph-name="uni0409" horiz-adv-x="1000" unicode="Љ" d="M597 150h89q42 0 75 25.5t33 67.5q0 28 -21 44.5t-60 16.5h-86zM-39 -5l30 159q71 5 114.5 63t74.5 219l54 279h473l-51 -261h109q94 0 150.5 -58.5t56.5 -147.5q0 -102 -78 -175t-191 -73h-310l110 565h-120l-25 -129q-21 -110 -50 -187t-74.5 -136.5t-113 -88.5 t-159.5 -29z"/>
<glyph glyph-name="uni040A" horiz-adv-x="1040" unicode="Њ" d="M637 150h89q41 0 74 23.5t33 62.5q0 63 -80 63h-86zM18 0l139 715h175l-52 -266h241l52 266h174l-51 -266h112q90 0 147 -58.5t57 -145.5q0 -102 -78 -173.5t-194 -71.5h-307l58 299h-240l-58 -299h-175z"/>
<glyph glyph-name="uni040B" horiz-adv-x="761" unicode="Ћ" d="M127 0l110 565h-176l29 150h567l-29 -150h-216l-21 -106l-9 -34h2q78 31 158 31q90 0 134.5 -47t44.5 -127q0 -35 -7 -69l-42 -213h-179l38 197q4 26 4 37q0 64 -77 64q-55 0 -103 -26l-53 -272h-175z"/>
<glyph glyph-name="uni040C" horiz-adv-x="682" unicode="Ќ" d="M18 0l139 715h175l-54 -276h67l205 276h203l-271 -351v-2l130 -362h-186l-95 290h-82l-56 -290h-175zM372 761l111 150h177l-148 -150h-140z"/>
<glyph glyph-name="uni040D" horiz-adv-x="756" unicode="Ѝ" d="M415 761l-88 150h165l51 -150h-128zM18 0l139 715h175l-65 -334l-32 -122h2q47 75 84 122l263 334h177l-139 -715h-175l65 333q4 20 11.5 50.5t13.5 50.5l6 21h-2q-46 -75 -83 -122l-264 -333h-176z"/>
<glyph glyph-name="uni040E" horiz-adv-x="630" unicode="Ў" d="M415 747q-79 0 -126.5 35.5t-47.5 90.5q0 14 5 38h130q-3 -10 -3 -22q0 -21 13 -35t38 -14q64 0 75 71h126q-13 -84 -71.5 -124t-138.5 -40zM4 42l85 125q32 -30 83 -30q41 0 66 40l-171 538h180l71 -257l22 -97h2q18 46 45 96l135 258h195l-311 -536 q-23 -41 -43.5 -69.5t-50 -59t-66.5 -46.5t-80 -16q-93 0 -162 54z"/>
<glyph glyph-name="uni040F" horiz-adv-x="750" unicode="Џ" d="M18 0l139 715h175l-110 -566h248l110 566h175l-139 -715h-221l-28 -140h-155l28 140h-222z"/>
<glyph glyph-name="uni0410" horiz-adv-x="668" unicode="А" d="M270 290h141l-14 139l-6 123h-2q-29 -78 -51 -123zM-57 0l372 715h201l99 -715h-175l-15 150h-223l-72 -150h-187z"/>
<glyph glyph-name="uni0411" horiz-adv-x="635" unicode="Б" d="M222 150h89q42 0 73.5 25.5t31.5 67.5q0 28 -19.5 44.5t-58.5 16.5h-86zM18 0l139 715h465l-29 -150h-290l-22 -111h112q94 0 149 -54.5t55 -143.5q0 -102 -80 -179t-192 -77h-307z"/>
<glyph glyph-name="uni0412" horiz-adv-x="650" unicode="В" d="M222 150h105q28 0 49 12q44 28 44 80q0 25 -16 40.5t-47 15.5h-106zM278 438h90q35 0 56 24.5t21 55.5q0 47 -55 47h-87zM18 0l139 715h230q78 0 125 -16q54 -19 83.5 -59.5t29.5 -94.5q0 -50 -30 -96.5t-81 -72.5v-2q44 -16 65 -53.5t21 -83.5q0 -82 -48.5 -139 t-126.5 -82q-48 -16 -114 -16h-293z"/>
<glyph glyph-name="uni0413" horiz-adv-x="526" unicode="Г" d="M18 0l139 715h438l-29 -150h-263l-110 -565h-175z"/>
<glyph glyph-name="uni0414" horiz-adv-x="775" unicode="Д" d="M-75 -140l57 289h74q121 163 166 397l33 169h485l-110 -566h80l-57 -289h-155l28 140h-413l-28 -140h-160zM242 149h213l80 416h-143l-6 -33q-17 -93 -56 -203t-88 -180z"/>
<glyph glyph-name="uni0415" horiz-adv-x="577" unicode="Е" d="M18 0l140 715h447l-29 -150h-273l-25 -130h217l-30 -150h-217l-26 -135h287l-29 -150h-462z"/>
<glyph glyph-name="uni0416" horiz-adv-x="1018" unicode="Ж" d="M-46 0l271 387v2l-132 326h178l109 -276h67l54 276h175l-54 -276h67l177 276h208l-247 -357v-2l119 -356h-180l-90 290h-83l-56 -290h-175l56 290h-67l-192 -290h-205z"/>
<glyph glyph-name="uni0417" horiz-adv-x="572" unicode="З" d="M-18 97l100 112q27 -32 65 -50t77 -18q47 0 81 25t34 68q0 54 -73 54h-103l27 140h87q39 0 69 25t30 63q0 59 -70 59q-67 0 -151 -59l-62 127q107 84 242 84q98 0 162 -46.5t64 -132.5q0 -60 -34.5 -107.5t-92.5 -71.5l-1 -2q38 -18 61.5 -55t23.5 -85q0 -106 -89 -172.5 t-204 -66.5q-73 0 -138 29t-105 80z"/>
<glyph glyph-name="uni0418" horiz-adv-x="756" unicode="И" d="M18 0l139 715h175l-65 -334l-32 -122h2q47 75 84 122l263 334h177l-139 -715h-175l65 333q4 20 11.5 50.5t13.5 50.5l6 21h-2q-46 -75 -83 -122l-264 -333h-176z"/>
<glyph glyph-name="uni0419" horiz-adv-x="756" unicode="Й" d="M18 0l139 715h175l-65 -334l-32 -122h2q47 75 84 122l263 334h177l-139 -715h-175l65 333q4 20 11.5 50.5t13.5 50.5l6 21h-2q-46 -75 -83 -122l-264 -333h-176zM476 747q-79 0 -126.5 35.5t-47.5 90.5q0 14 5 38h130q-3 -10 -3 -22q0 -21 13 -35t38 -14q64 0 75 71h126 q-13 -84 -71.5 -124t-138.5 -40z"/>
<glyph glyph-name="uni041A" horiz-adv-x="682" unicode="К" d="M18 0l139 715h175l-54 -276h67l205 276h203l-271 -351v-2l130 -362h-186l-95 290h-82l-56 -290h-175z"/>
<glyph glyph-name="uni041B" horiz-adv-x="714" unicode="Л" d="M580 0h-175l110 565h-139l-17 -87q-51 -260 -147.5 -373t-255.5 -113l31 159q71 9 121.5 80.5t84.5 248.5l46 235h480z"/>
<glyph glyph-name="uni041C" horiz-adv-x="878" unicode="М" d="M-7 0l191 715h191l47 -302l12 -118h2q35 71 60 118l163 302h192l-81 -715h-172l41 322l23 120h-2q-38 -76 -63 -120l-116 -207h-152l-36 207l-15 122h-2q-9 -68 -23 -122l-84 -322h-176z"/>
<glyph glyph-name="uni041D" horiz-adv-x="762" unicode="Н" d="M18 0l139 715h175l-56 -286h260l56 286h175l-139 -715h-175l54 280h-260l-54 -280h-175z"/>
<glyph glyph-name="uni041E" horiz-adv-x="820" unicode="О" d="M224 317q0 -75 44 -122t114 -47q91 0 164 75.5t73 180.5q0 73 -44 118t-114 45q-92 0 -164.5 -73.5t-72.5 -176.5zM44 307q0 111 58.5 208.5t155.5 154.5t205 57q152 0 244.5 -87.5t92.5 -224.5q0 -113 -59.5 -212t-156.5 -157t-204 -58q-152 0 -244 89.5t-92 229.5z"/>
<glyph glyph-name="uni041F" horiz-adv-x="756" unicode="П" d="M18 0l139 715h604l-139 -715h-175l110 566h-254l-110 -566h-175z"/>
<glyph glyph-name="uni0420" horiz-adv-x="627" unicode="Р" d="M265 371h85q37 0 59 15q54 36 54 110q0 32 -18.5 50.5t-53.5 18.5h-88zM18 0l139 715h273q64 0 109 -22q50 -24 77 -71t27 -110q0 -88 -45.5 -160.5t-118.5 -106.5q-51 -24 -110 -24h-133l-43 -221h-175z"/>
<glyph glyph-name="uni0421" horiz-adv-x="717" unicode="С" d="M45 305q0 173 124 297.5t296 124.5q79 0 153 -25.5t123 -77.5l-99 -120q-74 63 -171 63q-111 0 -178 -78t-67 -172q0 -73 42.5 -121t123.5 -48q102 0 209 85l68 -139q-51 -46 -130.5 -76t-156.5 -30q-155 0 -246 88t-91 229z"/>
<glyph glyph-name="uni0422" horiz-adv-x="632" unicode="Т" d="M170 0l110 565h-216l29 150h607l-29 -150h-216l-110 -565h-175z"/>
<glyph glyph-name="uni0423" horiz-adv-x="630" unicode="У" d="M4 42l85 125q32 -30 83 -30q41 0 66 40l-171 538h180l71 -257l22 -97h2q18 46 45 96l135 258h195l-311 -536q-23 -41 -43.5 -69.5t-50 -59t-66.5 -46.5t-80 -16q-93 0 -162 54z"/>
<glyph glyph-name="uni0424" horiz-adv-x="863" unicode="Ф" d="M215 348q0 -54 32 -89t85 -35l60 307q-72 -1 -124.5 -56t-52.5 -127zM507 224q70 1 124 58.5t54 128.5q0 53 -32.5 86.5t-85.5 33.5zM37 342q0 140 107 235t276 100l15 73h175l-15 -73q118 0 193 -72.5t75 -185.5q0 -141 -112 -240.5t-272 -100.5l-18 -90h-175l18 90 q-118 0 -192.5 73.5t-74.5 190.5z"/>
<glyph glyph-name="uni0425" horiz-adv-x="655" unicode="Х" d="M-49 0l286 360l-149 355h191l52 -144l28 -91h2q25 45 59 91l105 144h204l-291 -364l151 -351h-187l-56 147l-28 88h-2q-25 -43 -59 -88l-109 -147h-197z"/>
<glyph glyph-name="uni0426" horiz-adv-x="795" unicode="Ц" d="M18 0l139 715h175l-110 -566h248l110 566h175l-110 -566h89l-57 -289h-155l28 140h-532z"/>
<glyph glyph-name="uni0427" horiz-adv-x="689" unicode="Ч" d="M270 253q-98 0 -152 45t-54 126q0 28 8 68l43 223h179l-38 -197q-4 -17 -4 -36q0 -70 79 -70q70 0 133 38l51 265h179l-139 -715h-179l49 254l9 32h-2q-88 -33 -162 -33z"/>
<glyph glyph-name="uni0428" horiz-adv-x="1037" unicode="Ш" d="M18 0l139 715h175l-110 -566h180l110 566h175l-110 -566h180l110 566h175l-139 -715h-885z"/>
<glyph glyph-name="uni0429" horiz-adv-x="1082" unicode="Щ" d="M18 0l139 715h175l-110 -566h180l110 566h175l-110 -566h180l110 566h175l-110 -566h89l-57 -289h-155l28 140h-819z"/>
<glyph glyph-name="uni042A" horiz-adv-x="734" unicode="Ъ" d="M328 150h89q49 0 81 36t32 87q0 32 -20.5 51.5t-57.5 19.5h-86zM124 0l110 565h-180l29 150h355l-43 -221h117q91 0 143.5 -57.5t52.5 -152.5q0 -111 -80 -197.5t-202 -86.5h-302z"/>
<glyph glyph-name="uni042B" horiz-adv-x="927" unicode="Ы" d="M222 150h79q49 0 80.5 36t31.5 87q0 32 -20 51.5t-57 19.5h-76zM18 0l139 715h175l-43 -221h107q91 0 143.5 -57.5t52.5 -152.5q0 -111 -80.5 -197.5t-201.5 -86.5h-292zM618 0l139 715h175l-139 -715h-175z"/>
<glyph glyph-name="uni042C" horiz-adv-x="628" unicode="Ь" d="M222 150h89q49 0 81 36t32 87q0 32 -20.5 51.5t-57.5 19.5h-86zM18 0l139 715h175l-43 -221h117q91 0 143.5 -57.5t52.5 -152.5q0 -111 -80 -197.5t-202 -86.5h-302z"/>
<glyph glyph-name="uni042D" horiz-adv-x="719" unicode="Э" d="M196 288l27 140h296q-5 72 -48 106.5t-112 34.5q-101 0 -201 -78l-74 130q65 52 130 79t153 27q159 0 246 -87t87 -222q0 -171 -128 -300.5t-308 -129.5q-77 0 -150.5 28t-126.5 82l96 120q70 -72 183 -72q79 0 137.5 39t89.5 103h-297z"/>
<glyph glyph-name="uni042E" horiz-adv-x="1112" unicode="Ю" d="M526 317q0 -75 42.5 -122t110.5 -47q89 0 160.5 75.5t71.5 180.5q0 73 -42.5 118t-110.5 45q-90 0 -161 -73.5t-71 -176.5zM18 0l139 715h175l-56 -286h89q42 129 153 213.5t242 84.5q149 0 240.5 -87.5t91.5 -224.5q0 -113 -59 -212t-155 -157t-201 -58 q-142 0 -231.5 81t-98.5 211h-100l-54 -280h-175z"/>
<glyph glyph-name="uni042F" horiz-adv-x="661" unicode="Я" d="M351 386h76l35 179h-59q-63 0 -96 -27q-34 -28 -34 -79q0 -73 78 -73zM-46 0l181 230l42 47v2q-81 54 -81 163q0 147 107 222q74 51 179 51h284l-139 -715h-175l47 241h-60l-182 -241h-203z"/>
<glyph glyph-name="uni0430" horiz-adv-x="546" unicode="а" d="M160 153q0 -36 43 -36q33 0 64.5 28.5t37.5 60.5l3 16h-18q-18 0 -36.5 -2.5t-41.5 -9t-37.5 -21.5t-14.5 -36zM-9 124q0 54 31.5 94.5t83 61.5t105 31t107.5 10h8q3 14 3 21q0 45 -66 45q-55 0 -149 -47l-37 130q34 19 97.5 38t122.5 19q36 0 69 -8t65 -25t51 -51 t19 -80q0 -20 -5 -50l-60 -313h-158l6 31l9 32h-2q-22 -28 -61.5 -51.5t-90.5 -23.5q-61 0 -104.5 36.5t-43.5 99.5z"/>
<glyph glyph-name="uni0431" horiz-adv-x="619" unicode="б" d="M201 213q0 -38 23 -61t59 -23q48 0 84.5 38t36.5 90q0 39 -23.5 60.5t-60.5 21.5q-51 0 -85 -38.5t-34 -87.5zM31 244q0 112 52 218q43 86 117.5 141t192.5 91l182 56l33 -139l-212 -62q-73 -21 -110.5 -46.5t-50.5 -73.5h2q57 45 143 45q92 0 145 -55t53 -144 q0 -118 -88 -202.5t-219 -84.5q-115 0 -177.5 69t-62.5 187z"/>
<glyph glyph-name="uni0432" horiz-adv-x="569" unicode="в" d="M194 108h76q26 0 46.5 18t20.5 45q0 40 -46 40h-77zM234 312h65q25 0 43.5 17.5t18.5 40.5q0 38 -45 38h-63zM0 0l101 515h276q72 0 114 -31.5t42 -87.5q0 -38 -21.5 -73t-63.5 -55v-1q31 -12 46.5 -41t15.5 -63q0 -76 -67.5 -119.5t-156.5 -43.5h-286z"/>
<glyph glyph-name="uni0433" horiz-adv-x="438" unicode="г" d="M0 0l101 515h363l-29 -145h-190l-72 -370h-173z"/>
<glyph glyph-name="uni0434" horiz-adv-x="652" unicode="д" d="M-66 -120l49 257h60q77 101 103 236l27 142h425l-73 -378h74l-50 -257h-154l23 120h-302l-23 -120h-159zM221 137h132l46 241h-90l-4 -19q-29 -140 -84 -222z"/>
<glyph glyph-name="uni0435" horiz-adv-x="566" unicode="е" d="M215 323h152q1 6 1 18q0 27 -14.5 43t-40.5 16q-70 0 -98 -77zM19 213q0 134 85 224t212 90q107 0 163.5 -55t56.5 -147q0 -42 -19 -101h-325v-6q0 -39 27 -62.5t74 -23.5q71 0 153 52l44 -129q-33 -26 -92.5 -46.5t-115.5 -20.5q-126 0 -194.5 64.5t-68.5 160.5z"/>
<glyph glyph-name="uni0436" horiz-adv-x="828" unicode="ж" d="M-46 0l186 274v2l-79 239h168l58 -183h47l36 183h161l-36 -183h45l125 183h187l-189 -264v-1l96 -250h-177l-62 187h-53l-37 -187h-161l37 187h-48l-118 -187h-186z"/>
<glyph glyph-name="uni0437" horiz-adv-x="473" unicode="з" d="M-26 61l75 108q59 -51 121 -51q28 0 50 14t22 42q0 32 -49 32h-63l23 114h52q26 0 46 12.5t20 36.5q0 32 -52 32q-54 0 -125 -39l-41 109q85 56 206 56q86 0 135 -37.5t49 -97.5q0 -85 -91 -126v-2q62 -38 62 -107q0 -80 -68.5 -124.5t-162.5 -44.5q-124 0 -209 73z"/>
<glyph glyph-name="uni0438" horiz-adv-x="619" unicode="и" d="M0 0l101 515h160l-43 -217l-13 -53h2q14 23 40 53l186 217h170l-101 -515h-160l42 215l13 54h-2q-16 -25 -40 -53l-185 -216h-170z"/>
<glyph glyph-name="uni0439" horiz-adv-x="619" unicode="й" d="M0 0l101 515h160l-43 -217l-13 -53h2q14 23 40 53l186 217h170l-101 -515h-160l42 215l13 54h-2q-16 -25 -40 -53l-185 -216h-170zM381 549q-79 0 -126.5 35.5t-47.5 90.5q0 14 5 38h130q-3 -11 -3 -22q0 -21 13 -35t38 -14q64 0 75 71h126q-13 -84 -71.5 -124 t-138.5 -40z"/>
<glyph glyph-name="uni043A" horiz-adv-x="591" unicode="к" d="M0 0l101 515h173l-36 -181h52l125 181h198l-199 -266v-2l119 -247h-187l-82 189h-54l-37 -189h-173z"/>
<glyph glyph-name="uni043B" horiz-adv-x="597" unicode="л" d="M-38 -5l29 151q20 3 36.5 11t36 28t35.5 62t28 103l32 165h422l-100 -515h-173l73 378h-86l-5 -29q-34 -172 -109 -263t-219 -91z"/>
<glyph glyph-name="uni043C" horiz-adv-x="762" unicode="м" d="M-22 0l149 515h196l36 -226l6 -62h2q16 36 30 62l124 226h199l-52 -515h-164l35 237l16 88h-2q-22 -44 -41 -76l-103 -180h-140l-33 180l-13 78h-2q-9 -50 -18 -90l-59 -237h-166z"/>
<glyph glyph-name="uni043D" horiz-adv-x="622" unicode="н" d="M0 0l101 515h173l-36 -182h159l36 182h173l-101 -515h-173l37 188h-159l-37 -188h-173z"/>
<glyph glyph-name="uni043E" horiz-adv-x="640" unicode="о" d="M193 227q0 -44 26.5 -69.5t68.5 -25.5q55 0 99 43t44 110q0 45 -26.5 71.5t-67.5 26.5q-54 0 -99 -44.5t-45 -111.5zM18 219q0 131 97.5 219.5t223.5 88.5q117 0 192 -63.5t75 -167.5q0 -132 -98 -220t-223 -88q-118 0 -192.5 63t-74.5 168z"/>
<glyph glyph-name="uni043F" horiz-adv-x="616" unicode="п" d="M0 0l101 515h499l-101 -515h-173l72 370h-153l-72 -370h-173z"/>
<glyph glyph-name="uni0440" horiz-adv-x="633" unicode="р" d="M214 222q0 -40 20 -65.5t60 -25.5q49 0 89 44t40 115q0 42 -21.5 66.5t-58.5 24.5q-45 0 -87 -44.5t-42 -114.5zM172 -2l-38 -198h-172l138 715h156l-5 -26l-9 -33h2q58 71 155 71q92 0 145.5 -60.5t53.5 -163.5q0 -135 -86 -225t-196 -90q-85 0 -135 54h-2 q-2 -18 -7 -44z"/>
<glyph glyph-name="uni0441" horiz-adv-x="554" unicode="с" d="M19 224q0 117 91 210t231 93q134 0 210 -76l-87 -108q-21 18 -53.5 29t-61.5 11q-68 0 -111.5 -46.5t-43.5 -102.5q0 -43 27 -72.5t79 -29.5q67 0 154 62l44 -131q-39 -32 -101 -53.5t-121 -21.5q-123 0 -190 66.5t-67 169.5z"/>
<glyph glyph-name="uni0442" horiz-adv-x="516" unicode="т" d="M113 0l72 370h-156l29 145h486l-29 -145h-157l-72 -370h-173z"/>
<glyph glyph-name="uni0443" horiz-adv-x="565" unicode="у" d="M-6 -50q21 -16 51 -16q61 0 93 52l15 24l-121 505h180l42 -255l5 -76h2q18 45 31 73l115 258h194l-322 -570q-45 -79 -105 -117t-120 -38q-73 0 -135 40z"/>
<glyph glyph-name="uni0444" horiz-adv-x="791" unicode="ф" d="M186 230q0 -45 25.5 -73.5t68.5 -32.5l52 267q-61 -6 -103.5 -53t-42.5 -108zM443 124q60 6 101.5 52.5t41.5 107.5q0 47 -25 75.5t-66 31.5zM20 225q0 123 96.5 207t241.5 95l34 173h163l-34 -173q99 -3 166.5 -69t67.5 -169q0 -123 -96 -206.5t-242 -94.5l-37 -188 h-163l37 188q-99 3 -166.5 68.5t-67.5 168.5z"/>
<glyph glyph-name="uni0445" horiz-adv-x="549" unicode="х" d="M-47 0l216 260l-122 255h182l42 -110l11 -38h2q13 25 22 38l78 110h200l-220 -265l119 -250h-178l-46 111l-9 30h-2q-11 -21 -18 -30l-80 -111h-197z"/>
<glyph glyph-name="uni0446" horiz-adv-x="647" unicode="ц" d="M1 0l100 515h173l-72 -370h146l72 370h173l-72 -370h73l-51 -265h-154l23 120h-411z"/>
<glyph glyph-name="uni0447" horiz-adv-x="574" unicode="ч" d="M196 162q-75 0 -119.5 34.5t-44.5 99.5q0 20 4 39l35 180h170l-25 -126q-6 -34 -6 -38q0 -23 15 -37.5t41 -14.5q41 0 81 25l38 191h173l-101 -515h-173l33 166l6 23h-2q-52 -27 -125 -27z"/>
<glyph glyph-name="uni0448" horiz-adv-x="838" unicode="ш" d="M0 0l101 515h163l-72 -370h116l72 370h163l-72 -370h116l72 370h163l-101 -515h-721z"/>
<glyph glyph-name="uni0449" horiz-adv-x="876" unicode="щ" d="M1 0l100 515h163l-72 -370h116l72 370h163l-72 -370h116l72 370h163l-72 -370h73l-51 -265h-154l23 120h-640z"/>
<glyph glyph-name="uni044A" horiz-adv-x="617" unicode="ъ" d="M272 113h53q31 0 54 22.5t23 55.5q0 51 -55 51h-50zM77 0l72 370h-130l29 145h303l-32 -161h85q89 0 131.5 -41t42.5 -113q0 -92 -63 -146t-170 -54h-268z"/>
<glyph glyph-name="uni044B" horiz-adv-x="804" unicode="ы" d="M195 113h48q31 0 54 22.5t23 55.5q0 51 -55 51h-45zM0 0l101 515h173l-32 -161h80q89 0 131.5 -41t42.5 -113q0 -92 -63 -146t-170 -54h-263zM514 0l101 515h173l-101 -515h-173z"/>
<glyph glyph-name="uni044C" horiz-adv-x="540" unicode="ь" d="M195 113h53q31 0 54 22.5t23 55.5q0 51 -55 51h-50zM0 0l101 515h173l-32 -161h85q89 0 131.5 -41t42.5 -113q0 -92 -63 -146t-170 -54h-268z"/>
<glyph glyph-name="uni044D" horiz-adv-x="551" unicode="э" d="M142 202l22 114h194q-14 77 -110 77q-81 0 -138 -51l-60 114q38 34 98 52.5t119 18.5q121 0 186 -66.5t65 -164.5q0 -126 -98 -217t-237 -91q-56 0 -115 19.5t-93 55.5l70 111q25 -24 64 -38t77 -14q48 0 87 21.5t62 58.5h-193z"/>
<glyph glyph-name="uni044E" horiz-adv-x="889" unicode="ю" d="M456 231q0 -48 23.5 -73.5t62.5 -25.5q53 0 95 42.5t42 106.5q0 49 -25.5 75.5t-65.5 26.5q-53 0 -92.5 -43.5t-39.5 -108.5zM0 0l101 515h173l-37 -186h63q35 89 119 143.5t183 54.5q107 0 179.5 -64t72.5 -173q0 -127 -94.5 -214.5t-223.5 -87.5q-100 0 -170.5 54.5 t-82.5 149.5h-72l-38 -192h-173z"/>
<glyph glyph-name="uni044F" horiz-adv-x="564" unicode="я" d="M226 323q0 -51 60 -51h41l27 136h-42q-37 0 -61.5 -23t-24.5 -62zM-43 0l132 160l31 31v2q-66 41 -66 131q0 80 61 135.5t149 55.5h284l-101 -515h-173l31 157h-36l-121 -157h-191z"/>
<glyph glyph-name="uni0450" horiz-adv-x="566" unicode="ѐ" d="M215 323h152q1 6 1 18q0 27 -14.5 43t-40.5 16q-70 0 -98 -77zM296 565l-88 150h165l51 -150h-128zM19 213q0 134 85 224t212 90q107 0 163.5 -55t56.5 -147q0 -42 -19 -101h-325v-6q0 -39 27 -62.5t74 -23.5q71 0 153 52l44 -129q-33 -26 -92.5 -46.5t-115.5 -20.5 q-126 0 -194.5 64.5t-68.5 160.5z"/>
<glyph glyph-name="uni0451" horiz-adv-x="566" unicode="ё" d="M215 323h152q1 6 1 18q0 27 -14.5 43t-40.5 16q-70 0 -98 -77zM389 575l28 140h126l-28 -140h-126zM180 575l28 140h126l-28 -140h-126zM19 213q0 134 85 224t212 90q107 0 163.5 -55t56.5 -147q0 -42 -19 -101h-325v-6q0 -39 27 -62.5t74 -23.5q71 0 153 52l44 -129 q-33 -26 -92.5 -46.5t-115.5 -20.5q-126 0 -194.5 64.5t-68.5 160.5z"/>
<glyph glyph-name="uni0452" horiz-adv-x="627" unicode="ђ" d="M44 522l22 115h59l15 78h173l-15 -78h163l-22 -115h-164l-19 -100l-12 -42h2q22 34 69 57t97 23q72 0 116 -35t44 -111q0 -20 -7 -57l-47 -250q-10 -52 -33.5 -92t-51 -63t-62.5 -37t-62.5 -18.5t-54.5 -4.5l-66 3l29 145q16 -2 36 -2q79 0 96 91l39 200q3 18 3 30 q0 44 -45 44q-50 0 -89.5 -42t-50.5 -100l-32 -161h-173l101 522h-58z"/>
<glyph glyph-name="uni0453" horiz-adv-x="438" unicode="ѓ" d="M196 565l111 150h177l-148 -150h-140zM0 0l101 515h363l-29 -145h-190l-72 -370h-173z"/>
<glyph glyph-name="uni0454" horiz-adv-x="558" unicode="є" d="M18 224q0 121 99.5 212t234.5 91q136 0 200 -71l-78 -112q-22 21 -59 33.5t-72 12.5q-45 0 -82.5 -19.5t-60.5 -54.5h194l-22 -114h-196q15 -80 122 -80q77 0 156 64l49 -124q-36 -31 -106 -52.5t-130 -21.5q-120 0 -184.5 66.5t-64.5 169.5z"/>
<glyph glyph-name="uni0455" horiz-adv-x="468" unicode="ѕ" d="M-17 58l82 116q23 -21 59.5 -33.5t72.5 -12.5q55 0 55 30q0 13 -21 24t-51 22.5t-60 27.5t-51 48.5t-21 77.5q0 75 62.5 122t155.5 47q104 0 189 -57l-68 -120q-47 37 -126 37q-53 0 -53 -29q0 -13 21 -23.5t51 -21.5t60.5 -27.5t51.5 -50.5t21 -81q0 -75 -58 -120.5 t-151 -45.5q-126 0 -221 70z"/>
<glyph glyph-name="uni0456" horiz-adv-x="289" unicode="і" d="M1 0l99 515h173l-100 -515h-172zM115 580l26 135h169l-26 -135h-169z"/>
<glyph glyph-name="uni0457" horiz-adv-x="289" unicode="ї" d="M32 575l28 140h126l-28 -140h-126zM241 575l28 140h126l-28 -140h-126zM1 0l99 515h173l-100 -515h-172z"/>
<glyph glyph-name="uni0458" horiz-adv-x="290" unicode="ј" d="M1 4l99 511h173l-102 -526q-12 -62 -43.5 -104t-73.5 -60.5t-76.5 -25.5t-70.5 -7q-28 0 -61 3l28 144q6 -1 22 -1q92 0 105 66zM115 580l26 135h169l-26 -135h-169z"/>
<glyph glyph-name="uni0459" horiz-adv-x="825" unicode="љ" d="M486 113h56q30 0 54 17t24 47q0 47 -59 47h-53zM-36 -5l28 151q23 3 39 10t35.5 25.5t35.5 58.5t28 100l34 175h401l-35 -177h75q180 0 180 -149q0 -91 -65.5 -140t-170.5 -49h-258l73 378h-65l-6 -31q-35 -180 -106.5 -266t-210.5 -86h-12z"/>
<glyph glyph-name="uni045A" horiz-adv-x="871" unicode="њ" d="M533 113h56q30 0 54 17t24 47q0 47 -59 47h-53zM0 0l101 515h173l-34 -175h165l34 175h173l-35 -177h75q180 0 180 -149q0 -91 -65.5 -140t-170.5 -49h-258l41 207h-165l-41 -207h-173z"/>
<glyph glyph-name="uni045B" horiz-adv-x="628" unicode="ћ" d="M43 522l23 115h59l15 78h173l-16 -78h164l-23 -115h-163l-19 -98l-10 -44h2q22 35 68 58.5t95 23.5q73 0 117.5 -35t44.5 -111q0 -20 -7 -57l-50 -259h-173l45 231q3 18 3 30q0 44 -46 44q-50 0 -89.5 -42t-50.5 -100l-31 -163h-173l101 522h-59z"/>
<glyph glyph-name="uni045C" horiz-adv-x="591" unicode="ќ" d="M272 565l111 150h177l-148 -150h-140zM0 0l101 515h173l-36 -181h52l125 181h198l-199 -266v-2l119 -247h-187l-82 189h-54l-37 -189h-173z"/>
<glyph glyph-name="uni045D" horiz-adv-x="619" unicode="ѝ" d="M0 0l101 515h160l-43 -217l-13 -53h2q14 23 40 53l186 217h170l-101 -515h-160l42 215l13 54h-2q-16 -25 -40 -53l-185 -216h-170zM312 565l-88 150h165l51 -150h-128z"/>
<glyph glyph-name="uni045E" horiz-adv-x="565" unicode="ў" d="M340 551q-79 0 -126.5 35.5t-47.5 90.5q0 14 5 38h130q-3 -11 -3 -22q0 -21 13 -35t38 -14q64 0 75 71h126q-13 -84 -71.5 -124t-138.5 -40zM-6 -50q21 -16 51 -16q61 0 93 52l15 24l-121 505h180l42 -255l5 -76h2q18 45 31 73l115 258h194l-322 -570q-45 -79 -105 -117 t-120 -38q-73 0 -135 40z"/>
<glyph glyph-name="uni045F" horiz-adv-x="609" unicode="џ" d="M1 0l100 515h173l-72 -370h146l72 370h173l-100 -515h-169l-23 -120h-154l23 120h-169z"/>
<glyph glyph-name="uni0462" horiz-adv-x="715" unicode="Ѣ" d="M310 150h89q41 0 72.5 24.5t31.5 66.5q0 63 -77 63h-86zM106 0l104 539h-160l26 130h164l15 81h171l-15 -81h204l-26 -130h-204l-16 -85h112q93 0 148.5 -54.5t55.5 -139.5q0 -106 -80 -183t-192 -77h-307z"/>
<glyph glyph-name="uni0463" horiz-adv-x="596" unicode="ѣ" d="M252 113h58q33 0 56 22.5t23 57.5q0 22 -15 35.5t-42 13.5h-55zM57 0l89 456h-122l23 121h121l27 138h173l-27 -138h161l-23 -121h-160l-20 -102h85q178 0 178 -154q0 -91 -65.5 -145.5t-171.5 -54.5h-268z"/>
<glyph glyph-name="uni0472" horiz-adv-x="820" unicode="Ѳ" d="M382 143q65 0 125 41t91 108h-378q8 -68 52 -108.5t110 -40.5zM461 572q-67 0 -127.5 -41t-91.5 -107h381q-7 67 -51 107.5t-111 40.5zM44 307q0 111 58.5 208.5t155.5 154.5t205 57q152 0 244.5 -87.5t92.5 -224.5q0 -113 -59.5 -212t-156.5 -157t-204 -58 q-152 0 -244 89.5t-92 229.5z"/>
<glyph glyph-name="uni0473" horiz-adv-x="641" unicode="ѳ" d="M341 403q-45 0 -87.5 -26t-63.5 -70h260q-7 47 -36 71.5t-73 24.5zM286 112q48 0 90.5 27t62.5 74h-264q4 -50 34 -75.5t77 -25.5zM19 224q0 128 98.5 215.5t230.5 87.5q110 0 184.5 -63.5t74.5 -172.5q0 -128 -98.5 -215.5t-230.5 -87.5q-110 0 -184.5 63.5t-74.5 172.5 z"/>
<glyph glyph-name="uni0474" horiz-adv-x="695" unicode="Ѵ" d="M188 0l-114 715h182l47 -407l5 -115h2q26 70 49 115l178 349q17 33 37.5 45.5t57.5 12.5h133l-29 -150h-25q-20 0 -31.5 -8.5t-23.5 -30.5l-286 -526h-182z"/>
<glyph glyph-name="uni0475" horiz-adv-x="598" unicode="ѵ" d="M121 0l-77 515h174l26 -274q2 -16 2 -57v-32h2q20 55 36 89l87 177q25 54 56 75.5t83 21.5h115l-29 -145h-24q-26 0 -39 -9.5t-28 -37.5l-173 -323h-211z"/>
<glyph glyph-name="uni048A" horiz-adv-x="822" unicode="Ҋ" d="M469 747q-79 0 -126.5 35.5t-47.5 90.5q0 14 5 38h130q-3 -10 -3 -22q0 -21 13 -35t38 -14q64 0 75 71h126q-13 -84 -71.5 -124t-138.5 -40zM18 0l139 715h175l-65 -334l-32 -122h2q47 75 84 122l263 334h177l-110 -565h137l-18 -91l-128 -199h-117l61 140h-139l65 333 q4 20 11.5 50.5t13.5 50.5l6 21h-2q-46 -75 -83 -122l-264 -333h-176z"/>
<glyph glyph-name="uni048B" horiz-adv-x="696" unicode="ҋ" d="M361 551q-79 0 -126.5 35.5t-47.5 90.5q0 14 5 38h130q-3 -11 -3 -22q0 -21 13 -35t38 -14q64 0 75 71h126q-13 -84 -71.5 -124t-138.5 -40zM0 0l101 515h160l-43 -217l-13 -53h2q14 23 40 53l186 217h170l-73 -370h125l-16 -86l-114 -179h-111l51 120h-123l42 215l13 54 h-2q-16 -25 -40 -53l-185 -216h-170z"/>
<glyph glyph-name="uni048C" horiz-adv-x="715" unicode="Ҍ" d="M309 150h89q41 0 74 24.5t33 66.5q0 63 -80 63h-86zM105 0l106 547h-160l25 130h164l14 73h171l-14 -73h204l-25 -130h-204l-18 -93h112q90 0 147 -59t57 -146q0 -103 -78 -176t-194 -73h-307z"/>
<glyph glyph-name="uni048D" horiz-adv-x="596" unicode="ҍ" d="M252 113h58q33 0 56 22.5t23 57.5q0 22 -15 35.5t-42 13.5h-55zM57 0l89 456h-122l23 121h121l27 138h173l-27 -138h161l-23 -121h-160l-20 -102h85q178 0 178 -154q0 -91 -65.5 -145.5t-171.5 -54.5h-268z"/>
<glyph glyph-name="uni048E" horiz-adv-x="646" unicode="Ҏ" d="M328 408l74 64l57 -69q24 42 24 93q0 32 -18.5 50.5t-53.5 18.5h-108l-40 -214h105h7zM18 0l139 715h273q64 0 109 -22q50 -24 77 -71t27 -110q0 -131 -93 -219l50 -60l-74 -64l-59 71q-45 -19 -98 -19h-133l-43 -221h-175z"/>
<glyph glyph-name="uni048F" horiz-adv-x="648" unicode="ҏ" d="M284 198l77 63l56 -71q26 41 26 89q0 46 -23.5 74t-65.5 28q-56 0 -98 -45t-42 -112q0 -46 22 -74.5t64 -28.5q20 0 40 6zM172 -2l-38 -198h-172l138 715h156l-5 -26l-9 -33h2q59 71 158 71q90 0 143 -61t53 -164q0 -135 -89 -227l58 -71l-77 -63l-60 75 q-56 -28 -114 -28q-85 0 -135 54h-2q-2 -18 -7 -44z"/>
<glyph glyph-name="uni0490" horiz-adv-x="542" unicode="Ґ" d="M18 0l139 715h314l24 120h140l-53 -270h-279l-110 -565h-175z"/>
<glyph glyph-name="uni0491" horiz-adv-x="454" unicode="ґ" d="M1 0l100 515h248l23 120h131l-51 -265h-206l-72 -370h-173z"/>
<glyph glyph-name="uni0492" horiz-adv-x="536" unicode="Ғ" d="M22 0l54 281h-55l23 120h56l61 314h438l-29 -150h-263l-32 -164h155l-23 -120h-156l-54 -281h-175z"/>
<glyph glyph-name="uni0493" horiz-adv-x="451" unicode="ғ" d="M8 0l34 177h-59l20 105h60l46 233h363l-29 -145h-190l-17 -88h121l-20 -105h-122l-34 -177h-173z"/>
<glyph glyph-name="uni0494" horiz-adv-x="653" unicode="Ҕ" d="M18 0l139 715h439l-29 -150h-264l-30 -154q50 16 110 16q108 0 164.5 -64t56.5 -179q0 -99 -39.5 -184t-116 -138.5t-173.5 -53.5q-12 0 -36 2l27 140q65 0 108.5 64t43.5 149q0 54 -22.5 82t-76.5 28q-33 0 -75 -13l-51 -260h-175z"/>
<glyph glyph-name="uni0495" horiz-adv-x="544" unicode="ҕ" d="M1 0l100 515h381l-26 -136h-208l-19 -96q40 16 87 16q80 0 126.5 -48.5t46.5 -134.5q0 -100 -58 -184.5t-160 -141.5l-76 120q55 30 92 82.5t37 103.5q0 31 -17.5 49t-51.5 18q-23 0 -51 -13l-30 -150h-173z"/>
<glyph glyph-name="uni0496" horiz-adv-x="1070" unicode="Җ" d="M-46 0l271 387v2l-132 326h178l109 -276h67l54 276h175l-54 -276h67l177 276h208l-247 -357v-2l69 -207h131l-57 -289h-155l28 140h-77l-90 290h-83l-56 -290h-175l56 290h-67l-192 -290h-205z"/>
<glyph glyph-name="uni0497" horiz-adv-x="881" unicode="җ" d="M-46 0l186 274v2l-79 239h168l58 -183h47l36 183h161l-36 -183h45l125 183h187l-189 -264v-1l40 -105h129l-51 -265h-153l23 120h-69l-62 187h-53l-37 -187h-161l37 187h-48l-118 -187h-186z"/>
<glyph glyph-name="uni0498" horiz-adv-x="573" unicode="Ҙ" d="M-18 97l100 112q27 -32 65 -50t77 -18q47 0 81 25t34 68q0 54 -73 54h-103l27 140h87q39 0 69 25t30 63q0 59 -70 59q-67 0 -151 -59l-62 127q107 84 242 84q98 0 162 -46.5t64 -132.5q0 -60 -34.5 -107.5t-92.5 -71.5l-1 -2q38 -18 61.5 -55t23.5 -85 q0 -85 -59.5 -146.5t-149.5 -82.5l-27 -138h-155l27 136q-110 22 -172 101z"/>
<glyph glyph-name="uni0499" horiz-adv-x="474" unicode="ҙ" d="M-26 61l75 108q59 -51 121 -51q28 0 50 14t22 42q0 32 -49 32h-63l23 114h52q26 0 46 12.5t20 36.5q0 32 -52 32q-54 0 -125 -39l-41 109q85 56 206 56q86 0 135 -37.5t49 -97.5q0 -85 -91 -126v-2q62 -38 62 -107q0 -63 -44.5 -105t-113.5 -56l-22 -116h-150l22 117 q-76 16 -132 64z"/>
<glyph glyph-name="uni049A" horiz-adv-x="724" unicode="Қ" d="M18 0l139 715h175l-54 -276h67l205 276h203l-271 -351v-2l76 -213h116l-57 -289h-155l28 140h-64l-95 290h-82l-56 -290h-175z"/>
<glyph glyph-name="uni049B" horiz-adv-x="642" unicode="қ" d="M0 0l101 515h173l-36 -181h52l125 181h198l-199 -266v-2l49 -102h130l-51 -265h-153l23 120h-66l-82 189h-54l-37 -189h-173z"/>
<glyph glyph-name="uni049C" horiz-adv-x="804" unicode="Ҝ" d="M18 0l139 715h175l-54 -276h51l21 106h120l-21 -106h30l182 276h204l-260 -367v-2l136 -346h-181l-110 290h-30l-21 -109h-120l21 109h-51l-56 -290h-175z"/>
<glyph glyph-name="uni049D" horiz-adv-x="691" unicode="ҝ" d="M0 0l101 515h173l-36 -181h31l18 93h100l-18 -93h18l128 181h198l-201 -259v-2l121 -254h-187l-82 189h-23l-18 -94h-100l18 94h-31l-37 -189h-173z"/>
<glyph glyph-name="uni049E" horiz-adv-x="689" unicode="Ҟ" d="M60 515l22 112h65l17 88h175l-17 -88h69l-22 -112h-69l-15 -76h67l205 276h203l-271 -351v-2l130 -362h-186l-95 290h-82l-56 -290h-175l100 515h-65z"/>
<glyph glyph-name="uni049F" horiz-adv-x="596" unicode="ҟ" d="M35 527l22 110h68l15 78h173l-15 -78h82l-22 -110h-82l-35 -182h47l136 170h201l-207 -244v-2l115 -269h-183l-75 200h-62l-39 -200h-173l102 527h-68z"/>
<glyph glyph-name="uni04A0" horiz-adv-x="804" unicode="Ҡ" d="M140 0l110 565h-184l29 150h359l-54 -276h67l205 276h203l-271 -351v-2l130 -362h-186l-95 290h-82l-56 -290h-175z"/>
<glyph glyph-name="uni04A1" horiz-adv-x="668" unicode="ҡ" d="M77 0l72 370h-129l28 145h303l-36 -181h52l125 181h198l-199 -266v-2l119 -247h-187l-82 189h-54l-37 -189h-173z"/>
<glyph glyph-name="uni04A2" horiz-adv-x="811" unicode="Ң" d="M18 0l139 715h175l-56 -286h260l56 286h175l-110 -566h114l-57 -289h-155l28 140h-134l54 280h-260l-54 -280h-175z"/>
<glyph glyph-name="uni04A3" horiz-adv-x="678" unicode="ң" d="M0 0l101 515h173l-36 -182h159l36 182h173l-73 -370h99l-51 -265h-153l23 120h-119l37 188h-159l-37 -188h-173z"/>
<glyph glyph-name="uni04A4" horiz-adv-x="961" unicode="Ҥ" d="M18 0l139 715h175l-56 -286h260l56 286h438l-29 -150h-263l-110 -565h-175l54 280h-260l-54 -280h-175z"/>
<glyph glyph-name="uni04A5" horiz-adv-x="762" unicode="ҥ" d="M0 0l101 515h173l-36 -182h159l36 182h355l-29 -145h-182l-72 -370h-173l37 188h-159l-37 -188h-173z"/>
<glyph glyph-name="uni04A6" horiz-adv-x="1006" unicode="Ҧ" d="M18 0l139 715h534l-57 -294q50 16 110 16q108 0 163.5 -65t55.5 -183q0 -155 -92 -268t-240 -113q-11 0 -33 2l27 140q65 0 108.5 65.5t43.5 152.5q0 56 -22 85.5t-75 29.5q-33 0 -75 -13l-53 -270h-175l110 567h-183l-111 -567h-175z"/>
<glyph glyph-name="uni04A7" horiz-adv-x="866" unicode="ҧ" d="M1 0l100 515h475l-38 -190q51 18 96 18q80 0 129.5 -60.5t49.5 -164.5q0 -128 -76 -216t-175 -112l-44 129q120 50 120 185q0 43 -20 70t-57 27q-21 0 -48 -12l-37 -189h-173l72 370h-129l-72 -370h-173z"/>
<glyph glyph-name="uni04A8" horiz-adv-x="955" unicode="Ҩ" d="M555 355q0 -85 48 -139q68 46 109.5 112t41.5 138q0 90 -71 90q-45 0 -75.5 -35.5t-41.5 -78.5t-11 -87zM46 312q0 130 75 242t194 174l71 -158q-69 -40 -115.5 -107t-46.5 -145q0 -74 43 -122t131 -48q28 0 51 4q-71 89 -71 206q0 88 37.5 168.5t112.5 134.5t171 54 q111 0 172.5 -69t61.5 -172q0 -88 -45.5 -175t-123.5 -157q13 -2 41 -2h65l-27 -140h-68q-89 0 -172 37q-107 -49 -215 -49q-147 0 -244.5 88t-97.5 236z"/>
<glyph glyph-name="uni04A9" horiz-adv-x="833" unicode="ҩ" d="M464 275q0 -60 42 -97q115 66 115 157q0 63 -59 63q-48 0 -73 -37.5t-25 -85.5zM21 234q0 94 58.5 174t154.5 119l58 -137q-46 -22 -79.5 -62.5t-33.5 -88.5t33.5 -83t99.5 -35q24 0 45 4q-53 63 -53 145q0 105 78 181t194 76q95 0 150 -52.5t55 -130.5q0 -115 -118 -218 h23h90l-25 -126h-80q-90 0 -168 29q-101 -41 -194 -41q-117 0 -202.5 65t-85.5 181z"/>
<glyph glyph-name="uni04AA" horiz-adv-x="717" unicode="Ҫ" d="M45 305q0 173 124 297.5t296 124.5q79 0 153 -25.5t123 -77.5l-99 -120q-74 63 -171 63q-111 0 -178 -78t-67 -172q0 -73 42.5 -121t123.5 -48q102 0 209 85l68 -139q-45 -40 -112 -68.5t-137 -35.5l-26 -130h-155l28 143q-105 29 -163.5 109.5t-58.5 192.5z"/>
<glyph glyph-name="uni04AB" horiz-adv-x="556" unicode="ҫ" d="M20 224q0 117 91 210t231 93q134 0 210 -76l-87 -108q-21 18 -53.5 29t-61.5 11q-68 0 -111.5 -46.5t-43.5 -102.5q0 -43 27 -72.5t79 -29.5q67 0 154 62l44 -131q-69 -58 -178 -72l-21 -111h-150l24 123q-75 25 -114.5 84t-39.5 137z"/>
<glyph glyph-name="uni04AC" horiz-adv-x="636" unicode="Ҭ" d="M168 0l110 565h-216l29 150h607l-29 -150h-216l-81 -416h115l-57 -289h-155l28 140h-135z"/>
<glyph glyph-name="uni04AD" horiz-adv-x="525" unicode="ҭ" d="M113 0l72 370h-156l29 145h486l-29 -145h-157l-44 -225h98l-51 -265h-153l23 120h-118z"/>
<glyph glyph-name="uni04AE" horiz-adv-x="610" unicode="Ү" d="M158 0l57 293l-149 422h189l48 -172l23 -103h2q31 53 63 103l109 172h210l-322 -429l-55 -286h-175z"/>
<glyph glyph-name="uni04AF" horiz-adv-x="564" unicode="ү" d="M139 0l-97 515h175l31 -254q2 -20 2 -66v-21h2q19 53 36 87l128 254h190l-295 -515l-39 -200h-172z"/>
<glyph glyph-name="uni04B0" horiz-adv-x="608" unicode="Ұ" d="M92 189l23 120h95l-148 406h191l48 -172l23 -103h2q30 54 63 103l113 172h207l-306 -406h107l-23 -120h-116l-37 -189h-175l37 189h-104z"/>
<glyph glyph-name="uni04B1" horiz-adv-x="565" unicode="ұ" d="M20 0l21 110h78l-76 405h176l31 -254q2 -20 2 -66v-21h2q19 53 36 87l128 254h189l-232 -405h78l-21 -110h-120l-39 -200h-172l39 200h-120z"/>
<glyph glyph-name="uni04B2" horiz-adv-x="701" unicode="Ҳ" d="M-49 0l286 360l-149 355h191l52 -144l28 -91h2q25 45 59 91l105 144h204l-291 -364l87 -202h128l-57 -289h-155l28 140h-67l-56 147l-28 88h-2q-25 -43 -59 -88l-109 -147h-197z"/>
<glyph glyph-name="uni04B3" horiz-adv-x="590" unicode="ҳ" d="M-47 0l216 260l-122 255h182l42 -110l11 -38h2q13 25 22 38l78 110h200l-220 -265l50 -105h123l-51 -265h-153l23 120h-51l-46 111l-9 30h-2q-11 -21 -18 -30l-80 -111h-197z"/>
<glyph glyph-name="uni04B4" horiz-adv-x="933" unicode="Ҵ" d="M141 0l109 565h-185l30 150h545l-30 -150h-185l-80 -416h264l110 566h175l-110 -566h98l-57 -289h-155l28 140h-557z"/>
<glyph glyph-name="uni04B5" horiz-adv-x="764" unicode="ҵ" d="M74 0l72 370h-114l28 145h402l-28 -145h-115l-44 -225h186l72 370h173l-72 -370h82l-51 -264h-154l23 119h-460z"/>
<glyph glyph-name="uni04B6" horiz-adv-x="739" unicode="Ҷ" d="M270 253q-98 0 -152 45t-54 126q0 28 8 68l43 223h179l-38 -197q-4 -17 -4 -36q0 -70 79 -70q70 0 133 38l51 265h179l-110 -566h115l-57 -289h-155l28 140h-139l49 254l9 32h-2q-88 -33 -162 -33z"/>
<glyph glyph-name="uni04B7" horiz-adv-x="628" unicode="ҷ" d="M196 162q-75 0 -119.5 34.5t-44.5 99.5q0 20 4 39l35 180h170l-25 -126q-6 -34 -6 -38q0 -23 15 -37.5t41 -14.5q41 0 81 25l38 191h173l-73 -370h97l-51 -265h-153l23 120h-117l33 166l6 23h-2q-52 -27 -125 -27z"/>
<glyph glyph-name="uni04B8" horiz-adv-x="728" unicode="Ҹ" d="M256 166l18 92q-101 2 -156 45.5t-55 120.5q0 28 8 68l43 223h179l-38 -197q-4 -17 -4 -36q0 -54 53 -67l26 130h120l-24 -123q50 13 77 28l51 265h179l-139 -715h-179l52 264l9 32h-2q-52 -19 -78 -25l-20 -105h-120z"/>
<glyph glyph-name="uni04B9" horiz-adv-x="634" unicode="ҹ" d="M206 85l15 77q-86 0 -136 36.5t-50 112.5q0 23 6 52l30 152h170l-25 -122q-4 -24 -4 -33q0 -44 37 -55l22 112h100l-22 -113q28 6 58 20l38 191h173l-101 -515h-173l33 166l6 23h-1q-26 -11 -59 -17l-17 -87h-100z"/>
<glyph glyph-name="uni04BA" horiz-adv-x="656" unicode="Һ" d="M19 0l138 715h175l-49 -256l-9 -34h2q77 31 158 31q90 0 134.5 -47t44.5 -127q0 -35 -7 -69l-42 -213h-179l38 197q4 26 4 37q0 64 -77 64q-55 0 -103 -26l-53 -272h-175z"/>
<glyph glyph-name="uni04BB" horiz-adv-x="627" unicode="һ" d="M1 0l139 715h173l-44 -226l-10 -44h2q22 35 68 58.5t95 23.5q73 0 117.5 -35t44.5 -111q0 -20 -7 -57l-63 -324h-173l58 296q3 18 3 30q0 44 -46 44q-50 0 -89.5 -42t-50.5 -100l-44 -228h-173z"/>
<glyph glyph-name="uni04BC" horiz-adv-x="915" unicode="Ҽ" d="M438 443h292q3 17 3 31q0 45 -30 72.5t-84 27.5q-68 0 -118 -42t-63 -89zM57 481q0 68 46 167h160q-49 -91 -49 -143q0 -54 42 -61q44 122 146.5 202.5t236.5 80.5q126 0 194.5 -72.5t68.5 -190.5q0 -75 -29 -154h-461q0 -71 41.5 -116.5t117.5 -45.5q55 0 109 22.5 t88 50.5l69 -138q-21 -17 -50.5 -34.5t-97.5 -39t-138 -21.5q-149 0 -235 85.5t-86 223.5v14q-76 2 -124.5 44t-48.5 126z"/>
<glyph glyph-name="uni04BD" horiz-adv-x="718" unicode="ҽ" d="M367 323h152q1 6 1 18q0 27 -15 43t-43 16q-32 0 -57 -20.5t-38 -56.5zM31 365q0 54 30 111h134q-33 -59 -33 -97q0 -39 28 -46q33 86 108 140t175 54q101 0 158 -55t57 -145q0 -44 -19 -103h-325v-6q0 -39 27 -62.5t74 -23.5q71 0 153 52l44 -129q-35 -26 -92.5 -46.5 t-124.5 -20.5q-111 0 -182.5 62t-71.5 174v2q-68 4 -104 40t-36 99z"/>
<glyph glyph-name="uni04BE" horiz-adv-x="917" unicode="Ҿ" d="M439 443h292q3 17 3 31q0 45 -30 72.5t-84 27.5q-68 0 -118 -42t-63 -89zM58 481q0 68 46 167h160q-49 -91 -49 -143q0 -54 42 -61q44 122 146.5 202.5t236.5 80.5q126 0 194.5 -72.5t68.5 -190.5q0 -75 -29 -154h-461q0 -71 41.5 -116.5t117.5 -45.5q55 0 109 22.5 t88 50.5l69 -138q-108 -84 -256 -94l-25 -129h-155l28 146q-95 31 -147 108t-52 183v14q-76 2 -124.5 44t-48.5 126z"/>
<glyph glyph-name="uni04BF" horiz-adv-x="720" unicode="ҿ" d="M368 323h152q1 6 1 18q0 27 -15 43t-43 16q-32 0 -57 -20.5t-38 -56.5zM32 365q0 54 30 111h134q-33 -59 -33 -97q0 -39 28 -46q33 86 108 140t175 54q101 0 158 -55t57 -145q0 -44 -19 -103h-325v-6q0 -39 27 -62.5t74 -23.5q71 0 153 52l44 -129q-75 -56 -182 -65 l-21 -110h-150l24 127q-66 25 -104 80.5t-38 136.5v2q-68 4 -104 40t-36 99z"/>
<glyph glyph-name="uni04C0" horiz-adv-x="327" unicode="Ӏ" d="M18 0l139 715h175l-139 -715h-175z"/>
<glyph glyph-name="uni04C1" horiz-adv-x="1018" unicode="Ӂ" d="M602 747q-79 0 -126.5 35.5t-47.5 90.5q0 14 5 38h130q-3 -10 -3 -22q0 -21 13 -35t38 -14q64 0 75 71h126q-13 -84 -71.5 -124t-138.5 -40zM-46 0l271 387v2l-132 326h178l109 -276h67l54 276h175l-54 -276h67l177 276h208l-247 -357v-2l119 -356h-180l-90 290h-83 l-56 -290h-175l56 290h-67l-192 -290h-205z"/>
<glyph glyph-name="uni04C2" horiz-adv-x="828" unicode="ӂ" d="M467 551q-79 0 -126.5 35.5t-47.5 90.5q0 14 5 38h130q-3 -11 -3 -22q0 -21 13 -35t38 -14q64 0 75 71h126q-13 -84 -71.5 -124t-138.5 -40zM-46 0l186 274v2l-79 239h168l58 -183h47l36 183h161l-36 -183h45l125 183h187l-189 -264v-1l96 -250h-177l-62 187h-53 l-37 -187h-161l37 187h-48l-118 -187h-186z"/>
<glyph glyph-name="uni04C3" horiz-adv-x="695" unicode="Ӄ" d="M18 0l139 715h175l-53 -276q52 0 71 -1l192 277h202l-232 -320q111 -68 111 -224q0 -48 -11 -97t-35.5 -97t-59.5 -85t-87.5 -60t-114.5 -23q-20 0 -31 1l28 145q37 0 63.5 23.5t39 60t18 69.5t5.5 63q0 60 -27.5 91.5t-98.5 31.5h-61l-58 -294h-175z"/>
<glyph glyph-name="uni04C4" horiz-adv-x="596" unicode="ӄ" d="M1 0l100 515h173l-35 -181q30 0 52 -2l124 183h201l-179 -235q84 -64 84 -179q0 -98 -63 -181t-159 -130l-69 118q55 27 91.5 78.5t36.5 107.5q0 95 -103 95h-44l-37 -189h-173z"/>
<glyph glyph-name="uni04C5" horiz-adv-x="781" unicode="Ӆ" d="M405 0l110 565h-139l-17 -87q-51 -260 -147.5 -373t-255.5 -113l31 159q71 9 121.5 80.5t84.5 248.5l46 235h480l-110 -565h138l-18 -91l-128 -199h-117l61 140h-140z"/>
<glyph glyph-name="uni04C6" horiz-adv-x="666" unicode="ӆ" d="M-38 -5l29 151q20 3 36.5 11t36 28t35.5 62t28 103l32 165h422l-72 -370h115l-16 -86l-114 -179h-111l51 120h-126l73 378h-86l-5 -29q-34 -172 -109 -263t-219 -91z"/>
<glyph glyph-name="uni04C7" horiz-adv-x="762" unicode="Ӈ" d="M18 0l139 715h175l-56 -286h260l56 286h175l-120 -625q-30 -156 -100 -219.5t-179 -63.5q-13 0 -45 2l30 152h9q45 0 68.5 26t40.5 109l36 184h-260l-54 -280h-175z"/>
<glyph glyph-name="uni04C8" horiz-adv-x="622" unicode="ӈ" d="M1 0l100 515h173l-35 -182h159l35 182h173l-90 -462q-18 -96 -69 -155.5t-147 -107.5l-75 121q32 18 44.5 26t31.5 26t28.5 42.5t16.5 61.5l23 121h-159l-36 -188h-173z"/>
<glyph glyph-name="uni04C9" horiz-adv-x="828" unicode="Ӊ" d="M18 0l139 715h175l-56 -286h260l56 286h175l-110 -565h137l-18 -91l-128 -199h-117l61 140h-139l54 280h-260l-54 -280h-175z"/>
<glyph glyph-name="uni04CA" horiz-adv-x="701" unicode="ӊ" d="M0 0l101 515h173l-36 -182h159l36 182h173l-73 -370h127l-16 -86l-114 -179h-111l51 120h-138l37 188h-159l-37 -188h-173z"/>
<glyph glyph-name="uni04CB" horiz-adv-x="689" unicode="Ӌ" d="M270 253q-98 0 -152 45t-54 126q0 28 8 68l43 223h179l-38 -197q-4 -17 -4 -36q0 -70 79 -70q70 0 133 38l51 265h179l-139 -715h-138l-28 -140h-155l57 289h113l21 105l9 32h-2q-88 -33 -162 -33z"/>
<glyph glyph-name="uni04CC" horiz-adv-x="571" unicode="ӌ" d="M161 -120l44 225h97l16 81l6 23h-1q-52 -27 -126 -27q-75 0 -119.5 34.5t-44.5 99.5q0 20 4 39l31 160h170l-21 -106q-6 -34 -6 -38q0 -23 15 -37.5t41 -14.5q41 0 81 25l34 171h173l-100 -515h-118l-23 -120h-153z"/>
<glyph glyph-name="uni04CD" horiz-adv-x="948" unicode="Ӎ" d="M-7 0l191 715h191l47 -302l12 -118h2q35 71 60 118l163 302h192l-64 -565h133l-18 -91l-128 -199h-117l61 140h-120l41 322l23 120h-2q-38 -76 -63 -120l-116 -207h-152l-36 207l-15 122h-2q-9 -68 -23 -122l-84 -322h-176z"/>
<glyph glyph-name="uni04CE" horiz-adv-x="840" unicode="ӎ" d="M-22 0l149 515h196l36 -226l6 -62h2q16 36 30 62l124 226h199l-38 -370h121l-16 -86l-114 -179h-111l51 120h-109l35 237l16 88h-2q-22 -44 -41 -76l-103 -180h-140l-33 180l-13 78h-2q-9 -50 -18 -90l-59 -237h-166z"/>
<glyph glyph-name="uni04CF" horiz-adv-x="293" unicode="ӏ" d="M1 0l139 715h175l-139 -715h-175z"/>
<glyph glyph-name="uni04D0" horiz-adv-x="668" unicode="Ӑ" d="M431 747q-79 0 -126.5 35.5t-47.5 90.5q0 14 5 38h130q-3 -10 -3 -22q0 -21 13 -35t38 -14q64 0 75 71h126q-13 -84 -71.5 -124t-138.5 -40zM270 290h141l-14 139l-6 123h-2q-29 -78 -51 -123zM-57 0l372 715h201l99 -715h-175l-15 150h-223l-72 -150h-187z"/>
<glyph glyph-name="uni04D1" horiz-adv-x="547" unicode="ӑ" d="M340 551q-79 0 -126.5 35.5t-47.5 90.5q0 14 5 38h130q-3 -11 -3 -22q0 -21 13 -35t38 -14q64 0 75 71h126q-13 -84 -71.5 -124t-138.5 -40zM161 153q0 -36 43 -36q33 0 64.5 28.5t37.5 60.5l3 16h-18q-18 0 -36.5 -2.5t-41.5 -9t-37.5 -21.5t-14.5 -36zM-8 124 q0 54 31.5 94.5t83 61.5t105 31t107.5 10h8q3 14 3 21q0 45 -66 45q-55 0 -149 -47l-37 130q34 19 97.5 38t122.5 19q36 0 69 -8t65 -25t51 -51t19 -80q0 -20 -5 -50l-60 -313h-158l6 31l9 32h-2q-22 -28 -61.5 -51.5t-90.5 -23.5q-61 0 -104.5 36.5t-43.5 99.5z"/>
<glyph glyph-name="uni04D2" horiz-adv-x="668" unicode="Ӓ" d="M260 771l28 140h126l-28 -140h-126zM469 771l28 140h126l-28 -140h-126zM270 290h141l-14 139l-6 123h-2q-29 -78 -51 -123zM-57 0l372 715h201l99 -715h-175l-15 150h-223l-72 -150h-187z"/>
<glyph glyph-name="uni04D3" horiz-adv-x="547" unicode="ӓ" d="M155 575l28 140h126l-28 -140h-126zM364 575l28 140h126l-28 -140h-126zM161 153q0 -36 43 -36q33 0 64.5 28.5t37.5 60.5l3 16h-18q-18 0 -36.5 -2.5t-41.5 -9t-37.5 -21.5t-14.5 -36zM-8 124q0 54 31.5 94.5t83 61.5t105 31t107.5 10h8q3 14 3 21q0 45 -66 45 q-55 0 -149 -47l-37 130q34 19 97.5 38t122.5 19q36 0 69 -8t65 -25t51 -51t19 -80q0 -20 -5 -50l-60 -313h-158l6 31l9 32h-2q-22 -28 -61.5 -51.5t-90.5 -23.5q-61 0 -104.5 36.5t-43.5 99.5z"/>
<glyph glyph-name="uni04D4" horiz-adv-x="963" unicode="Ӕ" d="M376 428h112l26 137h-58zM-66 0l432 715h626l-29 -150h-273l-25 -130h218l-30 -150h-218l-26 -135h286l-29 -150h-461l56 288h-166l-167 -288h-194z"/>
<glyph glyph-name="uni04D5" horiz-adv-x="852" unicode="ӕ" d="M165 153q0 -33 42 -33q33 0 64.5 29t37.5 62l2 13h-16q-17 0 -36.5 -3t-42 -9.5t-37 -22t-14.5 -36.5zM500 323h152q1 12 1 18q0 25 -14.5 40.5t-40.5 15.5q-69 0 -98 -74zM-9 121q0 55 32.5 96.5t84.5 63.5t106 32t108 10h7q2 10 2 18q0 46 -65 46t-149 -47l-37 130 q112 57 220 57q87 0 146 -53h2q72 53 153 53q107 0 163.5 -55t56.5 -147q0 -47 -19 -101h-325q0 -12 4 -30q17 -62 97 -62q74 0 153 52l44 -129q-32 -25 -92 -46t-116 -21q-143 0 -214 91h-2q-7 -11 -17.5 -22.5t-32.5 -29t-58.5 -28.5t-80.5 -11q-71 0 -121 35.5t-50 97.5z "/>
<glyph glyph-name="uni04D6" horiz-adv-x="577" unicode="Ӗ" d="M400 747q-79 0 -126.5 35.5t-47.5 90.5q0 14 5 38h130q-3 -10 -3 -22q0 -21 13 -35t38 -14q64 0 75 71h126q-13 -84 -71.5 -124t-138.5 -40zM18 0l140 715h447l-29 -150h-273l-25 -130h217l-30 -150h-217l-26 -135h287l-29 -150h-462z"/>
<glyph glyph-name="uni04D7" horiz-adv-x="566" unicode="ӗ" d="M215 323h152q1 6 1 18q0 27 -14.5 43t-40.5 16q-70 0 -98 -77zM352 551q-79 0 -126.5 35.5t-47.5 90.5q0 14 5 38h130q-3 -11 -3 -22q0 -21 13 -35t38 -14q64 0 75 71h126q-13 -84 -71.5 -124t-138.5 -40zM19 213q0 134 85 224t212 90q107 0 163.5 -55t56.5 -147 q0 -42 -19 -101h-325v-6q0 -39 27 -62.5t74 -23.5q71 0 153 52l44 -129q-33 -26 -92.5 -46.5t-115.5 -20.5q-126 0 -194.5 64.5t-68.5 160.5z"/>
<glyph glyph-name="uni04D8" horiz-adv-x="733" unicode="Ә" d="M207 246q0 -49 29.5 -77t87.5 -28q69 0 116.5 39.5t62.5 101.5h-292q-4 -17 -4 -36zM37 264q0 72 31 151h461v2q0 69 -39.5 109.5t-112.5 40.5q-57 0 -113.5 -22.5t-92.5 -50.5l-69 136q18 15 52 34t104 41t139 22q150 0 231.5 -91t81.5 -226q0 -77 -28 -152.5 t-77.5 -135.5t-124.5 -97t-162 -37q-129 0 -205 77t-76 199z"/>
<glyph glyph-name="uni04D9" horiz-adv-x="572" unicode="ә" d="M177 181q0 -29 17.5 -46t47.5 -17q37 0 68.5 25t42.5 62h-173q-3 -15 -3 -24zM19 186q0 57 21 114h323q1 4 1 12q0 38 -28.5 58.5t-76.5 20.5q-36 0 -75.5 -11.5t-61.5 -23.5l-21 -11l-45 125q11 6 30 15.5t77 25.5t114 16q120 0 189.5 -63t69.5 -172 q0 -125 -85.5 -214.5t-216.5 -89.5q-101 0 -158 55t-57 143z"/>
<glyph glyph-name="uni04DA" horiz-adv-x="733" unicode="Ӛ" d="M274 771l28 140h126l-28 -140h-126zM483 771l28 140h126l-28 -140h-126zM207 246q0 -49 29.5 -77t87.5 -28q69 0 116.5 39.5t62.5 101.5h-292q-4 -17 -4 -36zM37 254q0 71 31 161h461q0 25 -6 46q-12 48 -50 77t-96 29q-57 0 -113.5 -22.5t-92.5 -50.5l-67 137 q33 28 116.5 62t179.5 34q149 0 229.5 -92.5t80.5 -227.5q0 -79 -29 -154.5t-79 -134t-125 -94.5t-160 -36q-130 0 -205 76t-75 190z"/>
<glyph glyph-name="uni04DB" horiz-adv-x="572" unicode="ӛ" d="M177 181q0 -29 17.5 -46t47.5 -17q37 0 68.5 25t42.5 62h-173q-3 -15 -3 -24zM19 186q0 57 21 114h323q1 4 1 12q0 38 -28.5 58.5t-76.5 20.5q-36 0 -75.5 -11.5t-61.5 -23.5l-21 -11l-45 125q11 6 30 15.5t77 25.5t114 16q120 0 189.5 -63t69.5 -172 q0 -125 -85.5 -214.5t-216.5 -89.5q-101 0 -158 55t-57 143zM153 575l28 140h126l-28 -140h-126zM362 575l28 140h126l-28 -140h-126z"/>
<glyph glyph-name="uni04DC" horiz-adv-x="1018" unicode="Ӝ" d="M-46 0l271 387v2l-132 326h178l109 -276h67l54 276h175l-54 -276h67l177 276h208l-247 -357v-2l119 -356h-180l-90 290h-83l-56 -290h-175l56 290h-67l-192 -290h-205zM430 771l28 140h126l-28 -140h-126zM639 771l28 140h126l-28 -140h-126z"/>
<glyph glyph-name="uni04DD" horiz-adv-x="828" unicode="ӝ" d="M-46 0l186 274v2l-79 239h168l58 -183h47l36 183h161l-36 -183h45l125 183h187l-189 -264v-1l96 -250h-177l-62 187h-53l-37 -187h-161l37 187h-48l-118 -187h-186zM295 575l28 140h126l-28 -140h-126zM504 575l28 140h126l-28 -140h-126z"/>
<glyph glyph-name="uni04DE" horiz-adv-x="572" unicode="Ӟ" d="M-18 97l100 112q27 -32 65 -50t77 -18q47 0 81 25t34 68q0 54 -73 54h-103l27 140h87q39 0 69 25t30 63q0 59 -70 59q-67 0 -151 -59l-62 127q107 84 242 84q98 0 162 -46.5t64 -132.5q0 -60 -34.5 -107.5t-92.5 -71.5l-1 -2q38 -18 61.5 -55t23.5 -85q0 -106 -89 -172.5 t-204 -66.5q-73 0 -138 29t-105 80zM200 771l28 140h126l-28 -140h-126zM409 771l28 140h126l-28 -140h-126z"/>
<glyph glyph-name="uni04DF" horiz-adv-x="473" unicode="ӟ" d="M-26 61l75 108q59 -51 121 -51q28 0 50 14t22 42q0 32 -49 32h-63l23 114h52q26 0 46 12.5t20 36.5q0 32 -52 32q-54 0 -125 -39l-41 109q85 56 206 56q86 0 135 -37.5t49 -97.5q0 -85 -91 -126v-2q62 -38 62 -107q0 -80 -68.5 -124.5t-162.5 -44.5q-124 0 -209 73z M107 575l28 140h126l-28 -140h-126zM316 575l28 140h126l-28 -140h-126z"/>
<glyph glyph-name="uni04E0" horiz-adv-x="544" unicode="Ӡ" d="M46 171q23 -16 64.5 -28.5t79.5 -12.5q54 0 94 27t40 70q0 31 -26 43t-87 12h-112l21 110l158 147q9 8 21 16.5t19 12.5l7 4v2q-25 -4 -57 -4h-174l28 145h436l-27 -137l-161 -138l-41 -29v-2q82 -4 123 -52.5t41 -118.5q0 -111 -90.5 -179.5t-214.5 -68.5 q-114 0 -205 57z"/>
<glyph glyph-name="uni04E1" horiz-adv-x="504" unicode="ӡ" d="M-16 -29q23 -16 64.5 -28.5t79.5 -12.5q54 0 94 27t40 70q0 31 -26 43t-87 12h-112l21 110l158 147q9 8 21 16.5t19 12.5l7 4v2q-25 -4 -57 -4h-174l28 145h436l-27 -137l-161 -138l-41 -29v-2q82 -4 123 -52.5t41 -118.5q0 -111 -90.5 -179.5t-214.5 -68.5 q-114 0 -205 57z"/>
<glyph glyph-name="uni04E2" horiz-adv-x="756" unicode="Ӣ" d="M18 0l139 715h175l-65 -334l-32 -122h2q47 75 84 122l263 334h177l-139 -715h-175l65 333q4 20 11.5 50.5t13.5 50.5l6 21h-2q-46 -75 -83 -122l-264 -333h-176zM352 783l22 112h275l-22 -112h-275z"/>
<glyph glyph-name="uni04E3" horiz-adv-x="619" unicode="ӣ" d="M0 0l101 515h160l-43 -217l-13 -53h2q14 23 40 53l186 217h170l-101 -515h-160l42 215l13 54h-2q-16 -25 -40 -53l-185 -216h-170zM234 586l22 112h275l-22 -112h-275z"/>
<glyph glyph-name="uni04E4" horiz-adv-x="756" unicode="Ӥ" d="M18 0l139 715h175l-65 -334l-32 -122h2q47 75 84 122l263 334h177l-139 -715h-175l65 333q4 20 11.5 50.5t13.5 50.5l6 21h-2q-46 -75 -83 -122l-264 -333h-176zM303 771l28 140h126l-28 -140h-126zM512 771l28 140h126l-28 -140h-126z"/>
<glyph glyph-name="uni04E5" horiz-adv-x="619" unicode="ӥ" d="M0 0l101 515h160l-43 -217l-13 -53h2q14 23 40 53l186 217h170l-101 -515h-160l42 215l13 54h-2q-16 -25 -40 -53l-185 -216h-170zM197 575l28 140h126l-28 -140h-126zM406 575l28 140h126l-28 -140h-126z"/>
<glyph glyph-name="uni04E6" horiz-adv-x="820" unicode="Ӧ" d="M333 771l28 140h126l-28 -140h-126zM542 771l28 140h126l-28 -140h-126zM224 317q0 -75 44 -122t114 -47q91 0 164 75.5t73 180.5q0 73 -44 118t-114 45q-92 0 -164.5 -73.5t-72.5 -176.5zM44 307q0 111 58.5 208.5t155.5 154.5t205 57q152 0 244.5 -87.5t92.5 -224.5 q0 -113 -59.5 -212t-156.5 -157t-204 -58q-152 0 -244 89.5t-92 229.5z"/>
<glyph glyph-name="uni04E7" horiz-adv-x="640" unicode="ӧ" d="M204 575l28 140h126l-28 -140h-126zM413 575l28 140h126l-28 -140h-126zM193 227q0 -44 26.5 -69.5t68.5 -25.5q55 0 99 43t44 110q0 45 -26.5 71.5t-67.5 26.5q-54 0 -99 -44.5t-45 -111.5zM18 219q0 131 97.5 219.5t223.5 88.5q117 0 192 -63.5t75 -167.5 q0 -132 -98 -220t-223 -88q-118 0 -192.5 63t-74.5 168z"/>
<glyph glyph-name="uni04E8" horiz-adv-x="820" unicode="Ө" d="M382 143q65 0 125 41t91 108h-378q8 -68 52 -108.5t110 -40.5zM461 572q-67 0 -127.5 -41t-91.5 -107h381q-7 67 -51 107.5t-111 40.5zM44 307q0 111 58.5 208.5t155.5 154.5t205 57q152 0 244.5 -87.5t92.5 -224.5q0 -113 -59.5 -212t-156.5 -157t-204 -58 q-152 0 -244 89.5t-92 229.5z"/>
<glyph glyph-name="uni04E9" horiz-adv-x="641" unicode="ө" d="M341 403q-45 0 -87.5 -26t-63.5 -70h260q-7 47 -36 71.5t-73 24.5zM286 112q48 0 90.5 27t62.5 74h-264q4 -50 34 -75.5t77 -25.5zM19 224q0 128 98.5 215.5t230.5 87.5q110 0 184.5 -63.5t74.5 -172.5q0 -128 -98.5 -215.5t-230.5 -87.5q-110 0 -184.5 63.5t-74.5 172.5 z"/>
<glyph glyph-name="uni04EA" horiz-adv-x="820" unicode="Ӫ" d="M333 771l28 140h126l-28 -140h-126zM542 771l28 140h126l-28 -140h-126zM382 143q65 0 125 41t91 108h-378q8 -68 52 -108.5t110 -40.5zM461 572q-67 0 -127.5 -41t-91.5 -107h381q-7 67 -51 107.5t-111 40.5zM44 307q0 111 58.5 208.5t155.5 154.5t205 57 q152 0 244.5 -87.5t92.5 -224.5q0 -113 -59.5 -212t-156.5 -157t-204 -58q-152 0 -244 89.5t-92 229.5z"/>
<glyph glyph-name="uni04EB" horiz-adv-x="641" unicode="ӫ" d="M418 575l28 140h126l-28 -140h-126zM209 575l28 140h126l-28 -140h-126zM341 403q-45 0 -87.5 -26t-63.5 -70h260q-7 47 -36 71.5t-73 24.5zM286 112q48 0 90.5 27t62.5 74h-264q4 -50 34 -75.5t77 -25.5zM19 224q0 128 98.5 215.5t230.5 87.5q110 0 184.5 -63.5 t74.5 -172.5q0 -128 -98.5 -215.5t-230.5 -87.5q-110 0 -184.5 63.5t-74.5 172.5z"/>
<glyph glyph-name="uni04EC" horiz-adv-x="719" unicode="Ӭ" d="M456 771l28 140h126l-28 -140h-126zM247 771l28 140h126l-28 -140h-126zM196 288l27 140h296q-5 72 -48 106.5t-112 34.5q-101 0 -201 -78l-74 130q65 52 130 79t153 27q159 0 246 -87t87 -222q0 -171 -128 -300.5t-308 -129.5q-77 0 -150.5 28t-126.5 82l96 120 q70 -72 183 -72q79 0 137.5 39t89.5 103h-297z"/>
<glyph glyph-name="uni04ED" horiz-adv-x="551" unicode="ӭ" d="M350 575l28 140h126l-28 -140h-126zM141 575l28 140h126l-28 -140h-126zM142 202l22 114h194q-14 77 -110 77q-81 0 -138 -51l-60 114q38 34 98 52.5t119 18.5q121 0 186 -66.5t65 -164.5q0 -126 -98 -217t-237 -91q-56 0 -115 19.5t-93 55.5l70 111q25 -24 64 -38 t77 -14q48 0 87 21.5t62 58.5h-193z"/>
<glyph glyph-name="uni04EE" horiz-adv-x="630" unicode="Ӯ" d="M4 42l85 125q32 -30 83 -30q41 0 66 40l-171 538h180l71 -257l22 -97h2q18 46 45 96l135 258h195l-311 -536q-23 -41 -43.5 -69.5t-50 -59t-66.5 -46.5t-80 -16q-93 0 -162 54zM271 782l22 112h275l-22 -112h-275z"/>
<glyph glyph-name="uni04EF" horiz-adv-x="565" unicode="ӯ" d="M202 586l22 112h275l-22 -112h-275zM-6 -50q21 -16 51 -16q61 0 93 52l15 24l-121 505h180l42 -255l5 -76h2q18 45 31 73l115 258h194l-322 -570q-45 -79 -105 -117t-120 -38q-73 0 -135 40z"/>
<glyph glyph-name="uni04F0" horiz-adv-x="630" unicode="Ӱ" d="M4 42l85 125q32 -30 83 -30q41 0 66 40l-171 538h180l71 -257l22 -97h2q18 46 45 96l135 258h195l-311 -536q-23 -41 -43.5 -69.5t-50 -59t-66.5 -46.5t-80 -16q-93 0 -162 54zM245 771l28 140h126l-28 -140h-126zM454 771l28 140h126l-28 -140h-126z"/>
<glyph glyph-name="uni04F1" horiz-adv-x="565" unicode="ӱ" d="M165 575l28 140h126l-28 -140h-126zM374 575l28 140h126l-28 -140h-126zM-6 -50q21 -16 51 -16q61 0 93 52l15 24l-121 505h180l42 -255l5 -76h2q18 45 31 73l115 258h194l-322 -570q-45 -79 -105 -117t-120 -38q-73 0 -135 40z"/>
<glyph glyph-name="uni04F2" horiz-adv-x="630" unicode="Ӳ" d="M231 761l106 150h145l-109 -150h-142zM439 761l111 150h169l-148 -150h-132zM4 42l85 125q32 -30 83 -30q41 0 66 40l-171 538h180l71 -257l22 -97h2q18 46 45 96l135 258h195l-311 -536q-23 -41 -43.5 -69.5t-50 -59t-66.5 -46.5t-80 -16q-93 0 -162 54z"/>
<glyph glyph-name="uni04F3" horiz-adv-x="565" unicode="ӳ" d="M149 565l106 150h145l-109 -150h-142zM357 565l111 150h169l-148 -150h-132zM-6 -50q21 -16 51 -16q61 0 93 52l15 24l-121 505h180l42 -255l5 -76h2q18 45 31 73l115 258h194l-322 -570q-45 -79 -105 -117t-120 -38q-73 0 -135 40z"/>
<glyph glyph-name="uni04F4" horiz-adv-x="689" unicode="Ӵ" d="M270 253q-98 0 -152 45t-54 126q0 28 8 68l43 223h179l-38 -197q-4 -17 -4 -36q0 -70 79 -70q70 0 133 38l51 265h179l-139 -715h-179l49 254l9 32h-2q-88 -33 -162 -33zM256 771l28 140h126l-28 -140h-126zM465 771l28 140h126l-28 -140h-126z"/>
<glyph glyph-name="uni04F5" horiz-adv-x="574" unicode="ӵ" d="M196 162q-75 0 -119.5 34.5t-44.5 99.5q0 20 4 39l35 180h170l-25 -126q-6 -34 -6 -38q0 -23 15 -37.5t41 -14.5q41 0 81 25l38 191h173l-101 -515h-173l33 166l6 23h-2q-52 -27 -125 -27zM159 575l28 140h126l-28 -140h-126zM368 575l28 140h126l-28 -140h-126z"/>
<glyph glyph-name="uni04F6" horiz-adv-x="531" unicode="Ӷ" d="M18 0l139 715h438l-29 -150h-263l-81 -416h115l-57 -289h-155l28 140h-135z"/>
<glyph glyph-name="uni04F7" horiz-adv-x="443" unicode="ӷ" d="M0 0l101 515h363l-29 -145h-190l-44 -225h99l-51 -265h-153l23 120h-119z"/>
<glyph glyph-name="uni04F8" horiz-adv-x="927" unicode="Ӹ" d="M222 150h79q49 0 80.5 36t31.5 87q0 32 -20 51.5t-57 19.5h-76zM18 0l139 715h175l-43 -221h107q91 0 143.5 -57.5t52.5 -152.5q0 -111 -80.5 -197.5t-201.5 -86.5h-292zM618 0l139 715h175l-139 -715h-175zM388 771l28 140h126l-28 -140h-126zM597 771l28 140h126 l-28 -140h-126z"/>
<glyph glyph-name="uni04F9" horiz-adv-x="804" unicode="ӹ" d="M195 113h48q31 0 54 22.5t23 55.5q0 51 -55 51h-45zM0 0l101 515h173l-32 -161h80q89 0 131.5 -41t42.5 -113q0 -92 -63 -146t-170 -54h-263zM514 0l101 515h173l-101 -515h-173zM288 575l28 140h126l-28 -140h-126zM497 575l28 140h126l-28 -140h-126z"/>
<glyph glyph-name="uni0524" horiz-adv-x="805" unicode="Ԥ" d="M18 0l139 715h604l-110 -566h114l-57 -289h-155l28 140h-134l110 566h-254l-110 -566h-175z"/>
<glyph glyph-name="uni0525" horiz-adv-x="672" unicode="ԥ" d="M1 0l100 515h499l-72 -370h98l-51 -265h-154l23 120h-117l72 370h-153l-72 -370h-173z"/>
<glyph glyph-name="thinspace" horiz-adv-x="20" unicode=" "/>
<glyph glyph-name="endash" horiz-adv-x="720" unicode="–" d="M47 222l25 130h596l-25 -130h-596z"/>
<glyph glyph-name="emdash" horiz-adv-x="914" unicode="—" d="M44 222l25 130h796l-25 -130h-796z"/>
<glyph glyph-name="quoteleft" horiz-adv-x="289" unicode="‘" d="M75 475l138 255h123l-103 -255h-158z"/>
<glyph glyph-name="quotesinglbase" horiz-adv-x="290" unicode="‚" d="M57 166h158l-138 -255h-123z"/>
<glyph glyph-name="quotedblleft" horiz-adv-x="487" unicode="“" d="M75 475l138 255h123l-103 -255h-158zM273 475l138 255h123l-103 -255h-158z"/>
<glyph glyph-name="quotedblright" horiz-adv-x="480" unicode="”" d="M81 475l103 255h158l-138 -255h-123zM279 475l103 255h158l-138 -255h-123z"/>
<glyph glyph-name="dagger" horiz-adv-x="496" unicode="†" d="M97 -50l85 435h-130l25 130h130l39 200h165l-39 -200h131l-25 -130h-131l-85 -435h-165z"/>
<glyph glyph-name="daggerdbl" horiz-adv-x="522" unicode="‡" d="M110 -50l39 200h-129l24 130h130l21 105h-130l25 130h130l39 200h165l-39 -200h131l-25 -130h-131l-21 -105h131l-25 -130h-131l-39 -200h-165z"/>
<glyph glyph-name="ellipsis" horiz-adv-x="926" unicode="…" d="M3 0l31 164h158l-31 -164h-158zM327 0l31 164h158l-31 -164h-158zM651 0l31 164h158l-31 -164h-158z"/>
<glyph glyph-name="perthousand" horiz-adv-x="1286" unicode="‰" d="M583 151q0 -19 13.5 -31t36.5 -12q24 0 43 18t19 43q0 19 -13.5 31.5t-36.5 12.5t-42.5 -19t-19.5 -43zM987 151q0 -19 13.5 -31t36.5 -12q24 0 43 18t19 43q0 19 -13.5 31.5t-36.5 12.5t-42.5 -19t-19.5 -43zM455 142q0 74 62 132.5t140 58.5q73 0 119.5 -45t46.5 -113 q0 -74 -63 -130.5t-140 -56.5q-73 0 -119 43.5t-46 110.5zM859 142q0 74 62 132.5t140 58.5q73 0 119.5 -45t46.5 -113q0 -74 -63 -130.5t-140 -56.5q-73 0 -119 43.5t-46 110.5zM265 502q24 0 43 18t19 43q0 19 -13.5 31.5t-36.5 12.5t-42.5 -19t-19.5 -43q0 -19 13.5 -31 t36.5 -12zM37 0l674 715h159l-674 -715h-159zM252 382q-73 0 -119 43.5t-46 110.5q0 74 62 132.5t140 58.5q73 0 119.5 -45t46.5 -113q0 -74 -63 -130.5t-140 -56.5z"/>
<glyph glyph-name="guilsinglleft" horiz-adv-x="390" unicode="‹" d="M158 77l-130 205l191 206h164l-202 -213l130 -198h-153z"/>
<glyph glyph-name="guilsinglright" horiz-adv-x="388" unicode="›" d="M-1 77l202 213l-130 198h153l130 -205l-191 -206h-164z"/>
<glyph glyph-name="fraction" horiz-adv-x="196" unicode="⁄" d="M-65 0h-126l474 715h126z"/>
<glyph glyph-name="Euro" d="M14 237l19 96h55q2 24 6 48h-52l19 96h63q52 111 149.5 180.5t219.5 69.5q77 0 146 -22l-70 -150q-48 10 -77 10q-106 0 -172 -88h217l-39 -96h-221q-6 -32 -7 -48h209l-39 -96h-154q37 -84 134 -84q45 0 98 15v-163q-49 -17 -108 -17q-125 0 -208.5 67.5t-106.5 181.5 h-81z" unicode="€"/>
<glyph glyph-name="trademark" horiz-adv-x="1089" unicode="™" d="M272 268v338h-142v109h408v-109h-140v-338h-126zM557 268l35 447h118l73 -175l13 -44h2q7 29 13 44l73 175h118l33 -447h-127l-10 174v9l1 23h-2l-51 -125h-98l-51 125h-2q1 -11 1 -23v-9l-12 -174h-127z"/>
<glyph glyph-name="minus" d="M24 222v130h546v-130h-546z" unicode="−"/>
<glyph glyph-name="infinity" horiz-adv-x="519" unicode="∞" d="M270 143q-85 0 -145.5 60.5t-60.5 145.5t60.5 145t145.5 60q86 0 145.5 -60t59.5 -145t-60 -145.5t-145 -60.5z"/>
<glyph glyph-name="approxequal" d="M96 93l-63 99q81 81 165 81q50 0 107.5 -35t90.5 -35q55 0 102 54l63 -99q-81 -81 -165 -81q-50 0 -107.5 35t-90.5 35q-52 0 -102 -54zM96 322l-63 99q81 81 165 81q50 0 107.5 -35t90.5 -35q55 0 102 54l63 -99q-81 -81 -165 -81q-50 0 -107.5 35t-90.5 35 q-52 0 -102 -54z" unicode="≈"/>
<glyph glyph-name="notequal" d="M92 47l38 60h-88v130h171l64 100h-235v130h319l69 108l76 -49l-38 -59h80v-130h-163l-64 -100h227v-130h-310l-68 -107z" unicode="≠"/>
<glyph glyph-name="lessequal" d="M8 -70h501v-130h-501v130zM5 234v107l504 223v-145l-330 -131v-2l330 -130v-145z" unicode="≤"/>
<glyph glyph-name="greaterequal" d="M29 -70h501v-130h-501v130zM28 11v145l330 130v2l-330 131v145l504 -223v-107z" unicode="≥"/>
</font>
</defs>
</svg>
