<?xml version="1.0" encoding="utf-8"?>
<!-- Generator: Adobe Illustrator 17.1.0, SVG Export Plug-In . SVG Version: 6.00 Build 0)  -->
<!DOCTYPE svg PUBLIC "-//W3C//DTD SVG 1.1//EN" "http://www.w3.org/Graphics/SVG/1.1/DTD/svg11.dtd">
<svg version="1.1" id="Icons" xmlns="http://www.w3.org/2000/svg" xmlns:xlink="http://www.w3.org/1999/xlink" x="0px" y="0px"
	 viewBox="0 0 260 260" enable-background="new 0 0 260 260" xml:space="preserve">
<rect fill="#005CFF" width="260" height="260"/>
<path id="Behance" fill="#F7F7F7" d="M195.2,94.4h-41v-9.9h41V94.4L195.2,94.4z M127.4,135.4c2.8,4.2,4.2,9.2,4.2,14.8
	c0,5.7-1.4,11.3-4.2,16.3c-2.1,2.8-4.2,5.7-7.1,7.8c-3.5,2.8-7.1,4.2-11.3,4.9c-4.2,0.7-9.2,1.4-14.1,1.4H49.6v-101h48.8
	c12,0,21.2,3.5,26.1,10.6c2.8,4.2,4.9,9.2,4.9,15.5s-1.4,11.3-4.9,14.8c-2.1,2.1-4.2,4.2-7.8,5.7C121,128.3,125.2,131.9,127.4,135.4
	z M72.2,119.9h21.2c4.2,0,7.8-0.7,10.6-2.8c2.8-1.4,4.2-4.9,4.2-8.5c0-4.9-2.1-7.8-5.7-9.2c-2.8-1.4-7.1-1.4-12-1.4H71.5v21.9H72.2z
	 M110.4,148.8c0-4.9-2.1-8.5-6.4-10.6c-2.1-1.4-5.7-1.4-9.9-1.4H72.2v26.9h21.2c4.2,0,7.8-0.7,10.6-2.1
	C108.3,159.4,110.4,155.2,110.4,148.8z M210,132.6c0.7,3.5,0.7,7.8,0.7,14.1h-52.3c0.7,7.1,2.8,12.7,7.8,15.5
	c2.8,2.1,6.4,2.8,10.6,2.8c4.2,0,7.8-1.4,10.6-3.5c1.4-1.4,2.8-2.8,4.2-4.9h19.1c-0.7,4.2-2.8,8.5-7.1,13.4
	c-6.4,7.1-15.5,10.6-26.9,10.6c-9.9,0-17.7-2.8-25.4-8.5c-7.1-5.7-11.3-15.5-11.3-29c0-12.7,3.5-21.9,9.9-29
	c6.4-7.1,15.5-9.9,26.1-9.9c6.4,0,12,1.4,17,3.5c4.9,2.1,9.2,5.7,12.7,10.6C207.9,122,209.3,126.9,210,132.6z M191.7,134.7
	c-0.7-4.9-2.1-8.5-4.9-11.3s-6.4-4.2-11.3-4.2s-8.5,1.4-11.3,4.2c-2.8,2.8-4.2,6.4-4.9,11.3C159.2,134.7,191.7,134.7,191.7,134.7z"
	/>
</svg>
