<?xml version="1.0" encoding="utf-8"?>
<!-- Generator: Adobe Illustrator 17.1.0, SVG Export Plug-In . SVG Version: 6.00 Build 0)  -->
<!DOCTYPE svg PUBLIC "-//W3C//DTD SVG 1.1//EN" "http://www.w3.org/Graphics/SVG/1.1/DTD/svg11.dtd">
<svg version="1.1" id="Layer_1" xmlns="http://www.w3.org/2000/svg" xmlns:xlink="http://www.w3.org/1999/xlink" x="0px" y="0px"
	 viewBox="0 0 260 260" enable-background="new 0 0 260 260" xml:space="preserve">
<rect y="-1" fill="#EA4C89" width="260" height="260"/>
<path fill="#F7F7F7" d="M130,78.3c-28.4,0-51.2,23.3-51.2,51.7s22.8,51.7,51.2,51.7s51.2-23.3,51.2-51.7S158.4,78.3,130,78.3z
	 M163.6,102.6c5.7,7.2,9.3,16.5,9.3,26.4c-2.1-0.5-10.3-2.1-20.2-2.1c-3.1,0-6.7,0-9.8,0.5c-0.5-0.5-0.5-1.6-1-2.1
	c-1-2.1-1.6-4.1-2.6-6.2C154.8,113.5,162.6,104.7,163.6,102.6z M130,86.6c10.9,0,20.7,4.1,28.4,10.9c-1,1.6-7.8,9.8-22.2,15.5
	c-6.7-12.4-14-22.8-16-25.3C123.3,86.6,126.9,86.6,130,86.6z M111.4,90.7c1.6,2.1,8.8,12.4,16,24.8c-18.6,5.2-35.2,5.2-39.3,5.2
	h-0.5C90.7,107.2,99.5,96.4,111.4,90.7z M86.6,130c0-0.5,0-0.5,0-1c0,0,0.5,0,1,0c5.2,0,23.8-0.5,43.4-6.2c1,2.6,2.1,4.7,3.1,6.7
	c-0.5,0-1,0.5-1.6,0.5c-21.7,7.2-33.6,25.9-35.7,29C90.7,151.2,86.6,140.9,86.6,130z M130,174c-9.8,0-19.1-3.6-26.4-9.3
	c1-2.6,10.3-18.6,34.1-26.9l0,0c5.7,15.5,8.3,29,9.3,32.6C141.9,172.4,136.2,174,130,174z M154.8,166.2c-0.5-3.6-3.1-15.5-8.3-30.5
	c3.1-0.5,5.7-0.5,8.8-0.5c9.3,0,16,2.1,17.6,2.6C170.9,149.1,164.1,159.5,154.8,166.2z"/>
</svg>
