<?xml version="1.0" encoding="utf-8"?>
<!-- Generator: Adobe Illustrator 17.1.0, SVG Export Plug-In . SVG Version: 6.00 Build 0)  -->
<!DOCTYPE svg PUBLIC "-//W3C//DTD SVG 1.1//EN" "http://www.w3.org/Graphics/SVG/1.1/DTD/svg11.dtd">
<svg version="1.1" id="Layer_4" xmlns="http://www.w3.org/2000/svg" xmlns:xlink="http://www.w3.org/1999/xlink" x="0px" y="0px"
	 viewBox="0 0 260 260" enable-background="new 0 0 260 260" xml:space="preserve">
<rect y="-1" fill="#4D7198" width="260" height="260"/>
<path fill="#F7F7F7" d="M212.3,159.3c-5.4-6.1-11.5-12.2-17.6-17.6c-5.4-5.4-5.4-8.1-1.4-14.2c4.7-6.8,10.1-12.8,14.2-19.6
	c4.7-6.1,8.8-12.2,11.5-19.6c1.4-4.7,0-6.8-4.7-7.4c-0.7,0-1.4,0-2.7,0h-28.4c-3.4,0-5.4,1.4-6.8,4.7c-1.4,4.1-3.4,8.1-5.4,12.2
	c-4.7,8.8-9.5,18.2-16.2,25.7c-1.4,1.4-3.4,3.4-6.1,2.7c-3.4-1.4-4.1-6.8-4.1-8.1V85.7c-0.7-4.7-1.4-6.8-6.1-7.4h-29.7
	c-4.1,0-6.1,1.4-8.1,4.1c-1.4,1.4-1.4,2.7,0.7,2.7c4.7,0.7,7.4,4.1,8.1,8.8c1.4,8.1,1.4,15.5,0.7,23.7c0,2-0.7,4.7-1.4,6.8
	c-1.4,3.4-3.4,4.1-6.8,2c-2.7-2-4.7-4.7-6.8-7.4C88.6,108.6,82.6,97.8,78.5,87c-1.4-3.4-3.4-5.4-6.8-5.4c-8.8,0-16.9,0-25.7,0
	c-5.4,0-6.8,2.7-4.7,7.4c9.5,20.3,19.6,40.5,33.1,58.8c6.8,9.5,14.9,17.6,25,23.7c11.5,6.8,24.3,8.8,37.2,8.1c6.1-0.7,8.1-2,8.1-8.1
	c0-4.1,0.7-8.1,2.7-12.2c2-3.4,5.4-4.7,8.8-2c2,1.4,3.4,2.7,4.7,4.1c3.4,3.4,6.8,8.1,10.1,11.5c4.7,4.7,10.1,7.4,16.9,6.8h26.4
	c4.1,0,6.1-5.4,4.1-10.1C217,164.7,215,162,212.3,159.3z"/>
</svg>
