<?xml version="1.0" encoding="utf-8"?>
<!-- Generator: Adobe Illustrator 17.1.0, SVG Export Plug-In . SVG Version: 6.00 Build 0)  -->
<!DOCTYPE svg PUBLIC "-//W3C//DTD SVG 1.1//EN" "http://www.w3.org/Graphics/SVG/1.1/DTD/svg11.dtd">
<svg version="1.1" id="Layer_1" xmlns="http://www.w3.org/2000/svg" xmlns:xlink="http://www.w3.org/1999/xlink" x="0px" y="0px"
	 viewBox="287 290 26 20" enable-background="new 287 290 26 20" xml:space="preserve">
<path fill="#78CCF0" d="M312.3,292.4c-0.7,1-1.5,1.9-2.6,2.7c0,0.2,0,0.4,0,0.6c0,6.6-5,14.3-14.3,14.3c-2.8,0-5.4-0.8-7.7-2.2
	c0.4,0.1,0.8,0.1,1.2,0.1c2.4,0,4.5-0.8,6.2-2.1c-2.2,0-4.1-1.4-4.7-3.5c0.3,0.1,0.6,0.1,0.9,0.1c0.5,0,0.9-0.1,1.3-0.2
	c-2.2-0.4-4-2.5-4-4.9c0-0.1,0-0.1,0-0.1c0.6,0.3,1.4,0.5,2.2,0.6c-1.3-0.9-2.2-2.5-2.2-4.2c0-0.9,0.2-1.8,0.7-2.6
	c2.5,3.1,6.1,5,10.3,5.2c-0.1-0.3-0.1-0.7-0.1-1.1c0-2.8,2.2-5,5-5c1.4,0,2.8,0.6,3.8,1.6c1.1-0.2,2.1-0.6,3.2-1.2
	c-0.4,1.1-1.2,2.1-2.2,2.8C310.4,293.1,311.3,292.8,312.3,292.4z"/>
</svg>
